<svg width="33" height="33" viewBox="0 0 33 33" fill="none" xmlns="http://www.w3.org/2000/svg">
    <g clip-path="url(#clip0_255_4294)">
        <path d="M28.2978 6.70312H18.5978L16.5978 10.7031H5.39775V27.7031H30.3978V6.70312H28.2978ZM28.3978 24.7031H7.39775V12.7031H28.3978V24.7031ZM28.4978 10.7031H20.6978L21.6978 8.70312H28.3978L28.4978 10.7031ZM26.2978 14.7031H0.697754L4.49775 27.7031H30.0978L26.2978 14.7031Z" fill="#0E4F81"/>
        <path d="M26.678 28.4262C24.069 28.3069 21.5317 27.5354 19.2979 26.1822C17.7302 25.3031 16.3056 24.1903 15.073 22.8822L15.573 22.4222C16.76 23.6782 18.1305 24.747 19.6379 25.5922C23.1809 27.6182 27.0259 28.2922 29.0129 27.2792C28.8727 27.0062 28.8254 26.6949 28.8782 26.3926C28.931 26.0903 29.0811 25.8135 29.3057 25.6043C29.5302 25.3951 29.8169 25.2649 30.1222 25.2336C30.4274 25.2022 30.7346 25.2714 30.997 25.4305C31.2594 25.5897 31.4626 25.8302 31.5758 26.1154C31.689 26.4007 31.706 26.7151 31.6242 27.0109C31.5423 27.3066 31.3662 27.5676 31.1225 27.7541C30.8788 27.9406 30.5808 28.0425 30.2739 28.0442C29.989 28.0462 29.71 27.9618 29.4739 27.8022C28.6107 28.2461 27.648 28.4609 26.678 28.4262ZM30.268 25.9262C30.1262 25.9281 29.9882 25.972 29.8713 26.0522C29.7543 26.1324 29.6637 26.2453 29.6109 26.3769C29.558 26.5084 29.5451 26.6527 29.574 26.7915C29.6029 26.9303 29.6721 27.0575 29.7731 27.157C29.874 27.2566 30.0021 27.3241 30.1413 27.351C30.2805 27.3779 30.4246 27.3631 30.5554 27.3084C30.6862 27.2537 30.7979 27.1616 30.8764 27.0436C30.955 26.9256 30.9969 26.7869 30.997 26.6452C30.9968 26.5499 30.9778 26.4557 30.941 26.3679C30.9042 26.28 30.8503 26.2004 30.7825 26.1335C30.7147 26.0666 30.6343 26.0139 30.546 25.9783C30.4577 25.9427 30.3632 25.925 30.268 25.9262ZM13.635 20.9562C12.7 19.3402 12.5349 17.8412 13.1859 16.7332C14.0569 15.2392 16.193 14.6782 19.046 15.1922L18.925 15.8632C16.407 15.4082 14.482 15.8632 13.774 17.0762C13.257 17.9632 13.417 19.2202 14.224 20.6152L13.635 20.9562Z" fill="#F4F5F6"/>
        <path d="M13.5278 28.0444C13.2219 28.0438 12.9247 27.943 12.6816 27.7574C12.4385 27.5719 12.2628 27.3119 12.1814 27.0171C12.1 26.7223 12.1173 26.409 12.2308 26.125C12.3443 25.841 12.5476 25.602 12.8098 25.4444C12.6288 22.9104 15.2518 19.5914 19.3098 17.2714C20.8821 16.357 22.5852 15.6886 24.3598 15.2894L24.5008 15.9554C22.7955 16.3404 21.1589 16.9835 19.6478 17.8624C15.9478 19.9764 13.4378 23.0174 13.4838 25.2494C13.8551 25.2433 14.2136 25.385 14.4804 25.6432C14.7473 25.9015 14.9007 26.2551 14.9068 26.6264C14.9129 26.9977 14.7712 27.3563 14.513 27.6231C14.2547 27.89 13.9011 28.0433 13.5298 28.0494L13.5278 28.0444ZM13.5278 25.9254C13.386 25.9274 13.248 25.9712 13.1311 26.0514C13.0141 26.1316 12.9235 26.2446 12.8707 26.3761C12.8178 26.5077 12.8049 26.6519 12.8338 26.7907C12.8627 26.9295 12.9319 27.0567 13.0329 27.1563C13.1338 27.2558 13.2619 27.3233 13.4011 27.3503C13.5403 27.3772 13.6844 27.3624 13.8152 27.3077C13.946 27.253 14.0577 27.1608 14.1362 27.0428C14.2148 26.9248 14.2567 26.7862 14.2568 26.6444C14.2566 26.5492 14.2376 26.4549 14.2008 26.3671C14.164 26.2793 14.1101 26.1996 14.0423 26.1328C13.9745 26.0659 13.8942 26.0131 13.8058 25.9775C13.7175 25.942 13.623 25.9242 13.5278 25.9254ZM29.0468 22.5384L28.5298 22.0954C30.1758 20.1694 30.7378 18.2954 30.0298 17.0894C29.5208 16.2164 28.3678 15.7244 26.7848 15.7044L26.7938 15.0234C28.6258 15.0474 29.9838 15.6594 30.6178 16.7464C31.4908 18.2394 30.9178 20.3504 29.0468 22.5384Z" fill="#F4F5F6"/>
        <path d="M21.9078 31.7023C20.1678 31.7023 18.6078 30.1523 17.6328 27.4493L18.2728 27.2183C19.1338 29.5993 20.4928 31.0183 21.9078 31.0183C22.5139 30.9443 23.0909 30.7162 23.5837 30.3557C24.0765 29.9952 24.4687 29.5145 24.7228 28.9593L25.3048 29.3133C24.3708 30.8543 23.1648 31.7023 21.9078 31.7023ZM26.3548 26.9363L25.7068 26.7313C26.1968 25.1103 26.4398 23.4247 26.4278 21.7313C26.4278 17.5943 25.0588 13.9313 23.1278 12.7963C22.9582 13.0906 22.6874 13.3132 22.3659 13.4226C22.0443 13.532 21.694 13.5209 21.3801 13.3911C21.0662 13.2614 20.8101 13.0219 20.6597 12.7174C20.5092 12.4129 20.4746 12.0641 20.5622 11.7359C20.6499 11.4078 20.8539 11.1227 21.1362 10.9338C21.4184 10.7449 21.7598 10.665 22.0965 10.7091C22.4333 10.7532 22.7426 10.9182 22.9667 11.1734C23.1909 11.4286 23.3146 11.7566 23.3148 12.0963V12.1163C25.5578 13.2963 27.1058 17.1883 27.1058 21.7263C27.1194 23.4909 26.8662 25.2474 26.3548 26.9363ZM21.9078 11.3833C21.766 11.3853 21.628 11.4291 21.5111 11.5093C21.3942 11.5895 21.3036 11.7025 21.2507 11.834C21.1978 11.9655 21.185 12.1098 21.2139 12.2486C21.2427 12.3874 21.312 12.5146 21.4129 12.6141C21.5139 12.7137 21.642 12.7812 21.7812 12.8081C21.9204 12.8351 22.0644 12.8203 22.1952 12.7656C22.326 12.7108 22.4377 12.6187 22.5163 12.5007C22.5949 12.3827 22.6368 12.2441 22.6368 12.1023C22.6367 12.0071 22.6177 11.9128 22.5809 11.825C22.5441 11.7371 22.4902 11.6575 22.4224 11.5906C22.3546 11.5237 22.2742 11.471 22.1859 11.4354C22.0975 11.3998 22.003 11.3821 21.9078 11.3833ZM21.9078 23.0413C21.6075 23.0414 21.3161 22.9391 21.0818 22.7513C20.8474 22.5635 20.6841 22.3014 20.6188 22.0083C20.5822 21.8408 20.5791 21.6677 20.6096 21.499C20.6402 21.3303 20.7038 21.1693 20.7968 21.0253C20.9383 20.8066 21.1413 20.6346 21.3802 20.5309C21.6192 20.4272 21.8834 20.3964 22.1398 20.4423C22.3962 20.4883 22.6333 20.6089 22.8213 20.7891C23.0094 20.9693 23.14 21.2011 23.1968 21.4553C23.2339 21.6225 23.2373 21.7955 23.2069 21.9641C23.1766 22.1327 23.1129 22.2935 23.0198 22.4373C22.9257 22.5833 22.8037 22.7093 22.6608 22.808C22.5178 22.9067 22.3567 22.9761 22.1868 23.0123C22.095 23.0314 22.0016 23.0412 21.9078 23.0413Z" fill="#F4F5F6"/>
    </g>
    <defs>
        <clipPath id="clip0_255_4294">
            <rect width="32" height="32" fill="white" transform="translate(0.397949 0.703125)"/>
        </clipPath>
    </defs>
</svg>
