<svg width="26" height="26" viewBox="0 0 26 26" fill="none" xmlns="http://www.w3.org/2000/svg">
    <path d="M9.1927 1.08984H2.26707C1.96093 1.08984 1.66734 1.21145 1.45087 1.42792C1.2344 1.64439 1.11279 1.93798 1.11279 2.24412V9.16975C1.11279 9.47588 1.2344 9.76948 1.45087 9.98594C1.66734 10.2024 1.96093 10.324 2.26707 10.324H9.1927C9.49883 10.324 9.79243 10.2024 10.0089 9.98594C10.2254 9.76948 10.347 9.47588 10.347 9.16975V2.24412C10.347 1.93798 10.2254 1.64439 10.0089 1.42792C9.79243 1.21145 9.49883 1.08984 9.1927 1.08984ZM9.1927 14.9411H2.26707C1.96093 14.9411 1.66734 15.0627 1.45087 15.2792C1.2344 15.4957 1.11279 15.7893 1.11279 16.0954V23.021C1.11279 23.3272 1.2344 23.6207 1.45087 23.8372C1.66734 24.0537 1.96093 24.1753 2.26707 24.1753H9.1927C9.49883 24.1753 9.79243 24.0537 10.0089 23.8372C10.2254 23.6207 10.347 23.3272 10.347 23.021V16.0954C10.347 15.7893 10.2254 15.4957 10.0089 15.2792C9.79243 15.0627 9.49883 14.9411 9.1927 14.9411ZM23.044 1.08984H16.1183C15.8122 1.08984 15.5186 1.21145 15.3021 1.42792C15.0857 1.64439 14.9641 1.93798 14.9641 2.24412V9.16975C14.9641 9.47588 15.0857 9.76948 15.3021 9.98594C15.5186 10.2024 15.8122 10.324 16.1183 10.324H23.044C23.3501 10.324 23.6437 10.2024 23.8602 9.98594C24.0766 9.76948 24.1982 9.47588 24.1982 9.16975V2.24412C24.1982 1.93798 24.0766 1.64439 23.8602 1.42792C23.6437 1.21145 23.3501 1.08984 23.044 1.08984Z" stroke="#0E4F81" stroke-width="2" stroke-linejoin="round"/>
    <path d="M14.9644 14.9395H24.1985M19.5814 19.5565H24.1985M14.9644 24.1736H24.1985" stroke="#0E4F81" stroke-width="2" stroke-linecap="round" stroke-linejoin="round"/>
</svg>
