<svg width="25" height="25" viewBox="0 0 25 25" fill="none" xmlns="http://www.w3.org/2000/svg">
    <g clip-path="url(#clip0_255_4290)">
        <path fill-rule="evenodd" clip-rule="evenodd" d="M19.3976 5.51875V8.77775C19.7916 8.77775 20.1817 8.85535 20.5457 9.00611C20.9097 9.15687 21.2404 9.37785 21.519 9.65643C21.7975 9.935 22.0185 10.2657 22.1693 10.6297C22.32 10.9937 22.3976 11.3838 22.3976 11.7778C22.3976 12.1717 22.32 12.5618 22.1693 12.9258C22.0185 13.2898 21.7975 13.6205 21.519 13.8991C21.2404 14.1776 20.9097 14.3986 20.5457 14.5494C20.1817 14.7002 19.7916 14.7778 19.3976 14.7778V17.7778C19.3976 19.4257 17.5166 20.3668 16.1976 19.3778L14.1376 17.8318C13.0365 17.0061 11.7544 16.4549 10.3976 16.2238V19.0678C10.3977 19.7215 10.1615 20.3532 9.73254 20.8465C9.30354 21.3398 8.71069 21.6614 8.06325 21.752C7.41582 21.8427 6.75745 21.6962 6.20952 21.3396C5.66158 20.983 5.261 20.4404 5.08164 19.8118L3.51164 14.3158C2.94665 13.6485 2.57897 12.837 2.44992 11.9723C2.32087 11.1076 2.43557 10.224 2.78112 9.42089C3.12667 8.61779 3.68938 7.92699 4.40599 7.42615C5.12259 6.9253 5.9647 6.63426 6.83764 6.58575L9.85564 6.41775C11.3323 6.33558 12.7683 5.90409 14.0456 5.15875L16.3896 3.79075C17.7236 3.01375 19.3976 3.97475 19.3976 5.51875ZM6.03164 15.8558L7.00464 19.2628C7.05146 19.4277 7.15638 19.5701 7.30001 19.6637C7.44364 19.7573 7.61629 19.7957 7.78607 19.772C7.95585 19.7482 8.11129 19.6638 8.2237 19.5344C8.33611 19.4049 8.39789 19.2392 8.39764 19.0678V16.0577L6.83764 15.9707C6.56616 15.9557 6.29649 15.9172 6.03164 15.8558ZM17.3976 5.51875L15.0526 6.88775C13.628 7.71819 12.0395 8.22803 10.3976 8.38175V14.2008C12.1846 14.4468 13.8856 15.1438 15.3376 16.2318L17.3976 17.7778V5.51875ZM8.39764 8.50175L6.94764 8.58175C6.27308 8.619 5.637 8.90777 5.16495 9.39107C4.6929 9.87437 4.41919 10.5171 4.39784 11.1923C4.37649 11.8676 4.60906 12.5263 5.04964 13.0384C5.49021 13.5506 6.10678 13.879 6.77764 13.9587L6.94764 13.9738L8.39764 14.0538V8.50175ZM19.3976 10.7777V12.7778C19.6525 12.7775 19.8977 12.6799 20.083 12.5049C20.2683 12.3299 20.3799 12.0908 20.3948 11.8364C20.4097 11.5819 20.327 11.3314 20.1634 11.1359C19.9998 10.9405 19.7677 10.8149 19.5146 10.7847L19.3976 10.7777Z" fill="#0E4F81"/>
    </g>
    <defs>
        <clipPath id="clip0_255_4290">
            <rect width="24" height="24" fill="white" transform="translate(0.397461 0.777344)"/>
        </clipPath>
    </defs>
</svg>
