<svg width="155" height="68" viewBox="0 0 155 68" fill="none" xmlns="http://www.w3.org/2000/svg">
    <path fill-rule="evenodd" clip-rule="evenodd" d="M99.4027 45.307L95.2429 45.3022C95.343 41.3218 95.2608 37.2296 95.2608 33.2265C95.2608 31.2435 95.2632 29.26 95.2642 27.2771C95.2681 20.3289 95.9129 21.3746 92.4527 21.3789L92.5624 35.7871L62.5698 35.8243L62.4968 21.3697L59.7544 21.3755L59.7723 45.1988L62.4755 45.1789L62.0622 39.4683L60.9349 39.1754L60.8996 36.7583L94.0798 36.7897L94.163 39.1744L92.5812 39.3175L92.5551 44.7255L86.9978 44.725L86.9905 39.4152L85.7955 39.4311L85.7264 44.855L69.4058 44.7704C69.2651 43.2622 69.8288 40.5493 69.0621 39.4123L68.3186 39.4089C67.6167 40.7073 68.2277 43.208 68.0005 44.8169L62.5132 44.7733C62.6766 46.3759 62.8076 46.4614 62.3697 47.1532C61.6605 46.8375 62.0864 47.5448 61.9032 45.323L10.4164 45.3012L10.2395 46.9743C10.2163 47.0473 10.1307 47.2349 10.1085 47.2948C10.0249 47.5211 9.94848 47.3248 9.96637 47.7082C21.2121 47.8392 32.5235 47.7116 43.778 47.729C47.4157 47.7348 58.861 47.2567 61.5604 47.8629C61.9297 47.9455 61.6914 47.9673 62.402 48.0741L92.1239 48.1244C93.491 48.0582 93.0178 47.8938 94.1103 47.7522C96.1614 47.4853 100.261 47.7256 102.527 47.728L145.03 47.7309C145.041 47.4085 144.957 47.4607 144.908 47.291L144.598 45.3723C144.592 45.3713 144.177 45.2969 144.116 45.2669C143.615 45.0194 143.864 45.1577 143.526 44.8763L143.538 21.4988L140.801 21.4011L140.758 45.3056L136.44 45.2925L136.513 21.404L133.869 21.4161L133.825 45.3109L129.627 45.2983L129.648 21.4998L126.927 21.4065L126.89 45.3046L122.758 45.3017L122.782 21.4422L120.152 21.392L120.098 45.2809L115.826 45.2964L115.887 21.4437L113.106 21.4388L113.108 45.3027L108.935 45.2954L108.987 21.4069L106.347 21.4156L106.307 45.3133L102.135 45.2979L102.163 21.4848L99.4283 21.4103L99.4032 45.3066L99.4027 45.307Z" fill="#081B45"/>
    <path fill-rule="evenodd" clip-rule="evenodd" d="M68.8934 33.6905C68.8035 30.834 68.5869 21.4219 69.2545 19.3162C71.9916 10.678 83.6274 11.1082 86.0556 19.4708C86.6285 21.4441 86.3727 30.9815 86.3167 33.7437L68.8934 33.6905ZM76.4995 9.65653L76.5067 11.2122C72.3435 11.9494 70.1077 13.9826 68.5535 17.3448C67.7549 19.0715 68.0155 19.6826 67.5737 21.2721C66.1065 21.4379 63.7614 20.9404 62.6104 21.5756C63.3278 22.1514 66.2641 21.9135 67.5094 21.9184C64.5441 22.863 62.5867 20.3294 62.5921 23.5915C63.9567 23.8056 66.558 23.2763 67.4746 23.9125C68.0866 24.8585 67.6404 33.5968 67.6839 35.5691L87.3942 35.5614L87.3841 23.6408C88.7879 23.6273 91.6328 23.8719 92.4831 23.3106L92.4662 21.9899L92.471 21.9106C92.2318 21.3305 92.6016 21.2155 90.3866 21.2696C88.5897 21.3136 87.7751 21.5249 87.3884 20.8892C87.0457 15.8781 83.3142 11.6825 78.5433 11.3016C78.5825 8.88983 77.9816 10.2801 77.7012 8.93286C77.3972 5.99465 78.1977 6.51142 78.8537 6.37027C79.2922 6.276 79.7606 6.20494 80.2053 6.20445C81.0996 6.20349 81.8862 6.56266 82.6103 6.78697L82.2173 3.74193C81.0842 3.48234 80.4345 3.52536 79.2201 3.40354C78.3297 3.31411 78.1513 3.17682 77.7534 2.70597C77.7119 2.65666 77.5562 2.49907 77.5335 2.38498C77.5146 2.29168 77.4648 2.26848 77.4146 2.2124L77.4107 9.4912L76.499 9.65556L76.4995 9.65653Z" fill="#081B45"/>
    <path fill-rule="evenodd" clip-rule="evenodd" d="M91.9764 19.1901L92.5986 19.266L92.5725 20.9749L144.722 20.9521L144.909 19.1002C144.991 18.8503 144.951 19.4434 145.094 18.5747L92.0533 18.6143L91.9764 19.1901Z" fill="#081B45"/>
    <path fill-rule="evenodd" clip-rule="evenodd" d="M10.4638 20.9188L62.4436 20.9695C62.7805 18.2542 62.8753 19.6232 63.0619 18.6143L9.88562 18.5718L10.297 19.6483C10.4241 20.1028 10.398 20.4315 10.4638 20.9188Z" fill="#081B45"/>
    <path fill-rule="evenodd" clip-rule="evenodd" d="M70.2957 23.3107C70.2952 20.4184 70.6026 18.8188 72.2521 17.0862C76.4907 12.6349 84.8992 14.0499 84.875 23.3107L84.7977 32.1117L70.3576 32.0876L70.2957 23.3107ZM68.8933 33.6906L86.3166 33.7437C86.3727 30.9815 86.6289 21.4442 86.0555 19.4709C83.6273 11.1083 71.991 10.678 69.2544 19.3162C68.5873 21.422 68.8034 30.8341 68.8933 33.6906Z" fill="#081B45"/>
    <path fill-rule="evenodd" clip-rule="evenodd" d="M61.1461 39.2202L93.7975 39.2511L93.8666 36.8181L61.1447 36.8399L61.1461 39.2202Z" fill="#081B45"/>
    <path fill-rule="evenodd" clip-rule="evenodd" d="M11.5636 45.1079L14.2437 45.1577L14.3007 21.4466L11.6303 21.4331L11.5636 45.1079Z" fill="#081B45"/>
    <path fill-rule="evenodd" clip-rule="evenodd" d="M39.1614 45.1663L41.8535 45.1682L41.9144 21.418L39.2779 21.4194L39.1614 45.1663Z" fill="#081B45"/>
    <path fill-rule="evenodd" clip-rule="evenodd" d="M25.441 45.119L28.1042 45.1533L28.1554 21.4553L25.5073 21.4272L25.441 45.119Z" fill="#081B45"/>
    <path fill-rule="evenodd" clip-rule="evenodd" d="M52.9072 45.1368L55.5679 45.1474L55.6095 21.4566L52.9909 21.4165L52.9072 45.1368Z" fill="#081B45"/>
    <path fill-rule="evenodd" clip-rule="evenodd" d="M32.2837 45.1665L34.8912 45.1732L34.956 21.4119L32.3813 21.422L32.2837 45.1665Z" fill="#081B45"/>
    <path fill-rule="evenodd" clip-rule="evenodd" d="M18.5668 45.1233L21.1429 45.1673L21.1927 21.4253L18.6093 21.4287L18.5668 45.1233Z" fill="#081B45"/>
    <path fill-rule="evenodd" clip-rule="evenodd" d="M46.0872 45.1277L48.6676 45.1726L48.7039 21.4253L46.1287 21.4258L46.0872 45.1277Z" fill="#081B45"/>
    <path fill-rule="evenodd" clip-rule="evenodd" d="M76.6342 18.1066C74.5178 19.3156 75.6969 23.095 78.3658 22.0102C80.7196 21.0535 79.2162 16.6307 76.6342 18.1066Z" fill="#081B45"/>
    <path d="M9.38975 54.8376L7.08975 59.2676V61.7876H5.94975V59.2676L3.63975 54.8376H4.90975L6.51975 58.2476L8.12975 54.8376H9.38975ZM14.4844 60.3676H11.5744L11.0744 61.7876H9.88443L12.3744 54.8276H13.6944L16.1844 61.7876H14.9844L14.4844 60.3676ZM14.1644 59.4376L13.0344 56.2076L11.8944 59.4376H14.1644ZM22.9771 61.7876H21.8371L18.4071 56.5976V61.7876H17.2671V54.8276H18.4071L21.8371 60.0076V54.8276H22.9771V61.7876ZM29.5041 56.8376C29.3241 56.4909 29.0741 56.2309 28.7541 56.0576C28.4341 55.8776 28.0641 55.7876 27.6441 55.7876C27.1841 55.7876 26.7741 55.8909 26.4141 56.0976C26.0541 56.3043 25.7708 56.5976 25.5641 56.9776C25.3641 57.3576 25.2641 57.7976 25.2641 58.2976C25.2641 58.7976 25.3641 59.2409 25.5641 59.6276C25.7708 60.0076 26.0541 60.3009 26.4141 60.5076C26.7741 60.7143 27.1841 60.8176 27.6441 60.8176C28.2641 60.8176 28.7675 60.6443 29.1541 60.2976C29.5408 59.9509 29.7775 59.4809 29.8641 58.8876H27.2541V57.9776H31.0841V58.8676C31.0108 59.4076 30.8175 59.9043 30.5041 60.3576C30.1975 60.8109 29.7941 61.1743 29.2941 61.4476C28.8008 61.7143 28.2508 61.8476 27.6441 61.8476C26.9908 61.8476 26.3941 61.6976 25.8541 61.3976C25.3141 61.0909 24.8841 60.6676 24.5641 60.1276C24.2508 59.5876 24.0941 58.9776 24.0941 58.2976C24.0941 57.6176 24.2508 57.0076 24.5641 56.4676C24.8841 55.9276 25.3141 55.5076 25.8541 55.2076C26.4008 54.9009 26.9975 54.7476 27.6441 54.7476C28.3841 54.7476 29.0408 54.9309 29.6141 55.2976C30.1941 55.6576 30.6141 56.1709 30.8741 56.8376H29.5041ZM33.3485 54.8376V61.7876H32.2085V54.8376H33.3485ZM39.9952 54.8376L37.6952 59.2676V61.7876H36.5552V59.2676L34.2452 54.8376H35.5152L37.1252 58.2476L38.7352 54.8376H39.9952ZM44.0699 61.8576C43.4232 61.8576 42.8266 61.7076 42.2799 61.4076C41.7399 61.1009 41.3099 60.6776 40.9899 60.1376C40.6766 59.5909 40.5199 58.9776 40.5199 58.2976C40.5199 57.6176 40.6766 57.0076 40.9899 56.4676C41.3099 55.9276 41.7399 55.5076 42.2799 55.2076C42.8266 54.9009 43.4232 54.7476 44.0699 54.7476C44.7232 54.7476 45.3199 54.9009 45.8599 55.2076C46.4066 55.5076 46.8366 55.9276 47.1499 56.4676C47.4632 57.0076 47.6199 57.6176 47.6199 58.2976C47.6199 58.9776 47.4632 59.5909 47.1499 60.1376C46.8366 60.6776 46.4066 61.1009 45.8599 61.4076C45.3199 61.7076 44.7232 61.8576 44.0699 61.8576ZM44.0699 60.8676C44.5299 60.8676 44.9399 60.7643 45.2999 60.5576C45.6599 60.3443 45.9399 60.0443 46.1399 59.6576C46.3466 59.2643 46.4499 58.8109 46.4499 58.2976C46.4499 57.7843 46.3466 57.3343 46.1399 56.9476C45.9399 56.5609 45.6599 56.2643 45.2999 56.0576C44.9399 55.8509 44.5299 55.7476 44.0699 55.7476C43.6099 55.7476 43.1999 55.8509 42.8399 56.0576C42.4799 56.2643 42.1966 56.5609 41.9899 56.9476C41.7899 57.3343 41.6899 57.7843 41.6899 58.2976C41.6899 58.8109 41.7899 59.2643 41.9899 59.6576C42.1966 60.0443 42.4799 60.3443 42.8399 60.5576C43.1999 60.7643 43.6099 60.8676 44.0699 60.8676ZM48.9217 54.8376H50.1617L49.1117 57.2176H48.3117L48.9217 54.8376ZM52.3036 60.8676H54.6536V61.7876H51.1636V54.8376H52.3036V60.8676ZM60.4946 61.8576C60.0279 61.8576 59.6079 61.7776 59.2346 61.6176C58.8613 61.4509 58.5679 61.2176 58.3546 60.9176C58.1413 60.6176 58.0346 60.2676 58.0346 59.8676H59.2546C59.2813 60.1676 59.3979 60.4143 59.6046 60.6076C59.8179 60.8009 60.1146 60.8976 60.4946 60.8976C60.8879 60.8976 61.1946 60.8043 61.4146 60.6176C61.6346 60.4243 61.7446 60.1776 61.7446 59.8776C61.7446 59.6443 61.6746 59.4543 61.5346 59.3076C61.4013 59.1609 61.2313 59.0476 61.0246 58.9676C60.8246 58.8876 60.5446 58.8009 60.1846 58.7076C59.7313 58.5876 59.3613 58.4676 59.0746 58.3476C58.7946 58.2209 58.5546 58.0276 58.3546 57.7676C58.1546 57.5076 58.0546 57.1609 58.0546 56.7276C58.0546 56.3276 58.1546 55.9776 58.3546 55.6776C58.5546 55.3776 58.8346 55.1476 59.1946 54.9876C59.5546 54.8276 59.9713 54.7476 60.4446 54.7476C61.1179 54.7476 61.6679 54.9176 62.0946 55.2576C62.5279 55.5909 62.7679 56.0509 62.8146 56.6376H61.5546C61.5346 56.3843 61.4146 56.1676 61.1946 55.9876C60.9746 55.8076 60.6846 55.7176 60.3246 55.7176C59.9979 55.7176 59.7313 55.8009 59.5246 55.9676C59.3179 56.1343 59.2146 56.3743 59.2146 56.6876C59.2146 56.9009 59.2779 57.0776 59.4046 57.2176C59.5379 57.3509 59.7046 57.4576 59.9046 57.5376C60.1046 57.6176 60.3779 57.7043 60.7246 57.7976C61.1846 57.9243 61.5579 58.0509 61.8446 58.1776C62.1379 58.3043 62.3846 58.5009 62.5846 58.7676C62.7913 59.0276 62.8946 59.3776 62.8946 59.8176C62.8946 60.1709 62.7979 60.5043 62.6046 60.8176C62.4179 61.1309 62.1413 61.3843 61.7746 61.5776C61.4146 61.7643 60.9879 61.8576 60.4946 61.8576ZM69.7897 54.8376V61.7876H68.6497V58.7476H65.3797V61.7876H64.2397V54.8376H65.3797V57.8176H68.6497V54.8376H69.7897ZM75.4805 60.3676H72.5705L72.0705 61.7876H70.8805L73.3705 54.8276H74.6905L77.1805 61.7876H75.9805L75.4805 60.3676ZM75.1605 59.4376L74.0305 56.2076L72.8905 59.4376H75.1605ZM83.8132 54.8376V61.7876H82.6732V58.7476H79.4032V61.7876H78.2632V54.8376H79.4032V57.8176H82.6732V54.8376H83.8132ZM89.504 60.3676H86.594L86.094 61.7876H84.904L87.394 54.8276H88.714L91.204 61.7876H90.004L89.504 60.3676ZM89.184 59.4376L88.054 56.2076L86.914 59.4376H89.184ZM95.8966 61.7876L94.2966 59.0076H93.4266V61.7876H92.2866V54.8376H94.6866C95.22 54.8376 95.67 54.9309 96.0366 55.1176C96.41 55.3043 96.6866 55.5543 96.8666 55.8676C97.0533 56.1809 97.1466 56.5309 97.1466 56.9176C97.1466 57.3709 97.0133 57.7843 96.7466 58.1576C96.4866 58.5243 96.0833 58.7743 95.5366 58.9076L97.2566 61.7876H95.8966ZM93.4266 58.0976H94.6866C95.1133 58.0976 95.4333 57.9909 95.6466 57.7776C95.8666 57.5643 95.9766 57.2776 95.9766 56.9176C95.9766 56.5576 95.87 56.2776 95.6566 56.0776C95.4433 55.8709 95.12 55.7676 94.6866 55.7676H93.4266V58.0976ZM106.753 54.8376V61.7876H105.613V58.7476H102.343V61.7876H101.203V54.8376H102.343V57.8176H105.613V54.8376H106.753ZM111.423 61.8576C110.777 61.8576 110.18 61.7076 109.633 61.4076C109.093 61.1009 108.663 60.6776 108.343 60.1376C108.03 59.5909 107.873 58.9776 107.873 58.2976C107.873 57.6176 108.03 57.0076 108.343 56.4676C108.663 55.9276 109.093 55.5076 109.633 55.2076C110.18 54.9009 110.777 54.7476 111.423 54.7476C112.077 54.7476 112.673 54.9009 113.213 55.2076C113.76 55.5076 114.19 55.9276 114.503 56.4676C114.817 57.0076 114.973 57.6176 114.973 58.2976C114.973 58.9776 114.817 59.5909 114.503 60.1376C114.19 60.6776 113.76 61.1009 113.213 61.4076C112.673 61.7076 112.077 61.8576 111.423 61.8576ZM111.423 60.8676C111.883 60.8676 112.293 60.7643 112.653 60.5576C113.013 60.3443 113.293 60.0443 113.493 59.6576C113.7 59.2643 113.803 58.8109 113.803 58.2976C113.803 57.7843 113.7 57.3343 113.493 56.9476C113.293 56.5609 113.013 56.2643 112.653 56.0576C112.293 55.8509 111.883 55.7476 111.423 55.7476C110.963 55.7476 110.553 55.8509 110.193 56.0576C109.833 56.2643 109.55 56.5609 109.343 56.9476C109.143 57.3343 109.043 57.7843 109.043 58.2976C109.043 58.8109 109.143 59.2643 109.343 59.6576C109.55 60.0443 109.833 60.3443 110.193 60.5576C110.553 60.7643 110.963 60.8676 111.423 60.8676ZM119.925 61.7876L117.235 58.6776V61.7876H116.095V54.8376H117.235V58.0076L119.935 54.8376H121.365L118.345 58.3176L121.415 61.7876H119.925ZM123.563 54.8376V61.7876H122.423V54.8376H123.563ZM132.38 54.8376V61.7876H131.24V57.0276L129.12 61.7876H128.33L126.2 57.0276V61.7876H125.06V54.8376H126.29L128.73 60.2876L131.16 54.8376H132.38ZM135.018 60.8676H137.368V61.7876H133.878V54.8376H135.018V60.8676ZM139.462 54.8376V61.7876H138.322V54.8376H139.462ZM145.988 56.8376C145.808 56.4909 145.558 56.2309 145.238 56.0576C144.918 55.8776 144.548 55.7876 144.128 55.7876C143.668 55.7876 143.258 55.8909 142.898 56.0976C142.538 56.3043 142.255 56.5976 142.048 56.9776C141.848 57.3576 141.748 57.7976 141.748 58.2976C141.748 58.7976 141.848 59.2409 142.048 59.6276C142.255 60.0076 142.538 60.3009 142.898 60.5076C143.258 60.7143 143.668 60.8176 144.128 60.8176C144.748 60.8176 145.252 60.6443 145.638 60.2976C146.025 59.9509 146.262 59.4809 146.348 58.8876H143.738V57.9776H147.568V58.8676C147.495 59.4076 147.302 59.9043 146.988 60.3576C146.682 60.8109 146.278 61.1743 145.778 61.4476C145.285 61.7143 144.735 61.8476 144.128 61.8476C143.475 61.8476 142.878 61.6976 142.338 61.3976C141.798 61.0909 141.368 60.6676 141.048 60.1276C140.735 59.5876 140.578 58.9776 140.578 58.2976C140.578 57.6176 140.735 57.0076 141.048 56.4676C141.368 55.9276 141.798 55.5076 142.338 55.2076C142.885 54.9009 143.482 54.7476 144.128 54.7476C144.868 54.7476 145.525 54.9309 146.098 55.2976C146.678 55.6576 147.098 56.1709 147.358 56.8376H145.988ZM149.833 54.8376V61.7876H148.693V54.8376H149.833Z" fill="#1E1E1E"/>
</svg>
