<svg width="14" height="19" viewBox="0 0 14 19" fill="none" xmlns="http://www.w3.org/2000/svg">
    <g clip-path="url(#clip0_194_6036)">
        <path d="M6.95301 6.03938C6.81281 5.71592 6.47805 5.50391 6.10896 5.50391C5.73986 5.50391 5.4051 5.71592 5.26491 6.03938L1.83147 13.8676L0.686992 16.477C0.49243 16.9201 0.712743 17.4284 1.17912 17.6132C1.64549 17.798 2.18054 17.5887 2.3751 17.1457L3.28496 15.0717H8.93296L9.84282 17.1457C10.0374 17.5887 10.5724 17.798 11.0388 17.6132C11.5052 17.4284 11.7255 16.9201 11.5309 16.477L10.3864 13.8676L6.95301 6.03938ZM8.16902 13.3321H4.0489L6.10896 8.6352L8.16902 13.3321Z" fill="#091B44"/>
    </g>
    <path d="M6.6333 1.23828H13.4697" stroke="#091B44" stroke-linecap="round" stroke-linejoin="round"/>
    <defs>
        <clipPath id="clip0_194_6036">
            <rect width="10.987" height="13.9169" fill="white" transform="translate(0.615234 4.63477)"/>
        </clipPath>
    </defs>
</svg>
