<svg width="20" height="29" viewBox="0 0 20 29" fill="none" xmlns="http://www.w3.org/2000/svg">
    <g clip-path="url(#clip0_194_6028)">
        <path d="M9.05365 10.1133C8.85737 9.63666 8.38871 9.32422 7.87198 9.32422C7.35524 9.32422 6.88658 9.63666 6.6903 10.1133L1.88349 21.6497L0.281222 25.4951C0.00883609 26.1481 0.317273 26.8971 0.970198 27.1695C1.62312 27.4419 2.37218 27.1334 2.64457 26.4805L3.91837 23.4242H11.8256L13.0994 26.4805C13.3718 27.1334 14.1208 27.4419 14.7738 27.1695C15.4267 26.8971 15.7351 26.1481 15.4627 25.4951L13.8605 21.6497L9.05365 10.1133ZM10.7561 20.8606H4.98789L7.87198 13.9388L10.7561 20.8606Z" fill="#091B44"/>
    </g>
    <path d="M16.6615 6.80102H14.22V9.24257C14.22 9.37208 14.1685 9.49628 14.0769 9.58786C13.9854 9.67944 13.8612 9.73088 13.7317 9.73088C13.6021 9.73088 13.4779 9.67944 13.3864 9.58786C13.2948 9.49628 13.2433 9.37208 13.2433 9.24257V6.80102H10.8018C10.6723 6.80102 10.5481 6.74957 10.4565 6.658C10.3649 6.56642 10.3135 6.44222 10.3135 6.31271C10.3135 6.1832 10.3649 6.059 10.4565 5.96742C10.5481 5.87584 10.6723 5.8244 10.8018 5.8244H13.2433V3.38284C13.2433 3.25333 13.2948 3.12913 13.3864 3.03755C13.4779 2.94598 13.6021 2.89453 13.7317 2.89453C13.8612 2.89453 13.9854 2.94598 14.0769 3.03755C14.1685 3.12913 14.22 3.25333 14.22 3.38284V5.8244H16.6615C16.791 5.8244 16.9152 5.87584 17.0068 5.96742C17.0984 6.059 17.1498 6.1832 17.1498 6.31271C17.1498 6.44222 17.0984 6.56642 17.0068 6.658C16.9152 6.74957 16.791 6.80102 16.6615 6.80102Z" fill="#091B44"/>
    <defs>
        <clipPath id="clip0_194_6028">
            <rect width="15.3818" height="20.5091" fill="white" transform="translate(0.181152 8.04297)"/>
        </clipPath>
    </defs>
</svg>
