<?xml version="1.0" standalone="no"?>
<!DOCTYPE svg PUBLIC "-//W3C//DTD SVG 20010904//EN"
 "http://www.w3.org/TR/2001/REC-SVG-20010904/DTD/svg10.dtd">
<svg version="1.0" xmlns="http://www.w3.org/2000/svg"
 width="300.000000pt" height="300.000000pt" viewBox="0 0 300.000000 300.000000"
 preserveAspectRatio="xMidYMid meet">
<metadata>
Created by potrace 1.10, written by Peter Selinger 2001-2011
</metadata>
<g transform="translate(0.000000,300.000000) scale(0.100000,-0.100000)"
fill="#000000" stroke="none">
<path d="M458 2928 c-21 -5 -57 -27 -82 -49 -83 -73 -77 36 -74 -1400 l3
-1275 28 -42 c15 -23 46 -54 69 -69 l42 -28 1056 0 1056 0 42 28 c23 15 54 46
69 69 l28 42 3 1270 c2 913 0 1282 -8 1309 -6 22 -30 59 -52 83 -72 78 -12 74
-1142 73 -623 -1 -1015 -5 -1038 -11z m2079 -97 c79 -36 73 70 73 -1333 0
-1225 -1 -1254 -20 -1285 -41 -67 29 -64 -1105 -61 l-1025 3 -32 33 -33 32 -3
1265 c-3 1418 -8 1309 71 1346 40 18 81 19 1037 19 956 0 997 -1 1037 -19z"/>
<path d="M958 2686 c-94 -34 -140 -95 -146 -190 -3 -49 1 -70 20 -106 61 -118
208 -154 311 -76 123 92 113 280 -20 354 -52 29 -118 36 -165 18z m106 -90
c49 -20 76 -61 76 -112 0 -36 -6 -51 -34 -82 -31 -34 -39 -37 -86 -37 -47 0
-55 3 -86 37 -28 31 -34 46 -34 82 0 51 27 91 74 112 40 17 49 17 90 0z"/>
<path d="M1622 2568 c-17 -17 -15 -42 6 -61 15 -13 39 -17 113 -17 110 0 133
10 127 55 l-3 30 -115 3 c-81 2 -119 -1 -128 -10z"/>
<path d="M2037 2573 c-15 -14 -7 -63 12 -73 11 -5 84 -10 166 -10 82 0 155 5
166 10 21 12 25 50 7 68 -13 13 -339 18 -351 5z"/>
<path d="M1640 2227 c-16 -8 -25 -21 -25 -37 0 -48 20 -50 408 -48 386 3 376
2 377 56 0 15 -8 26 -26 32 -40 16 -703 13 -734 -3z"/>
<path d="M882 2219 c-81 -14 -156 -54 -206 -110 -52 -57 -74 -117 -82 -214 -5
-60 -2 -76 18 -115 15 -29 37 -53 63 -67 39 -22 48 -23 339 -23 289 0 299 1
338 22 72 41 96 108 78 222 -22 136 -97 228 -219 267 -76 24 -245 33 -329 18z
m254 -92 c137 -29 204 -107 207 -242 2 -59 -1 -69 -22 -86 -13 -10 -32 -19
-42 -19 -16 0 -19 8 -19 48 0 68 -31 92 -72 55 -12 -11 -18 -30 -18 -60 l0
-43 -150 0 -150 0 0 42 c0 44 -21 78 -50 78 -28 0 -40 -22 -40 -72 0 -45 -2
-48 -25 -48 -15 0 -38 12 -52 26 -24 24 -25 30 -20 89 10 110 59 183 142 215
79 31 211 38 311 17z"/>
<path d="M1622 1878 c-17 -17 -15 -42 6 -61 17 -15 57 -17 376 -17 227 0 364
4 377 10 21 12 25 50 7 68 -17 17 -749 17 -766 0z"/>
<path d="M1035 1540 c-35 -4 -40 -8 -43 -34 -2 -16 1 -33 6 -38 10 -10 1377
-12 1393 -3 17 11 10 67 -9 72 -24 6 -1297 9 -1347 3z"/>
<path d="M604 1526 c-3 -8 -4 -25 -2 -38 2 -19 10 -24 48 -28 25 -3 73 -3 108
-2 70 4 93 24 72 62 -10 18 -21 20 -116 20 -81 0 -106 -3 -110 -14z"/>
<path d="M618 1189 c-21 -12 -24 -49 -6 -67 17 -17 869 -17 886 0 17 17 15 42
-6 61 -17 15 -61 17 -438 17 -266 0 -425 -4 -436 -11z"/>
<path d="M1670 1150 c-19 -19 -20 -33 -20 -356 0 -212 4 -342 10 -355 10 -18
25 -19 363 -19 261 0 356 3 365 12 9 9 12 104 12 365 0 338 -1 353 -19 363
-13 6 -143 10 -355 10 -323 0 -337 -1 -356 -20z m640 -355 l0 -285 -285 0
-285 0 0 278 c0 153 3 282 7 285 3 4 132 7 285 7 l278 0 0 -285z"/>
<path d="M2054 848 l-104 -102 -23 22 c-45 42 -114 13 -88 -36 14 -25 98 -102
112 -102 7 0 70 57 141 127 127 126 144 153 116 181 -26 26 -53 10 -154 -90z"/>
<path d="M630 853 c-21 -8 -30 -24 -30 -51 0 -32 40 -44 133 -40 64 3 81 7 93
23 17 23 17 27 0 51 -12 16 -28 19 -98 21 -46 1 -90 0 -98 -4z"/>
<path d="M1013 850 c-34 -14 -32 -67 3 -80 14 -6 118 -10 232 -10 226 0 257 6
257 50 0 44 -31 50 -260 49 -115 0 -220 -4 -232 -9z"/>
<path d="M618 499 c-21 -12 -24 -49 -6 -67 17 -17 869 -17 886 0 17 17 15 42
-6 61 -17 15 -61 17 -438 17 -266 0 -425 -4 -436 -11z"/>
</g>
</svg>
