<?xml version="1.0" standalone="no"?>
<!DOCTYPE svg PUBLIC "-//W3C//DTD SVG 20010904//EN"
 "http://www.w3.org/TR/2001/REC-SVG-20010904/DTD/svg10.dtd">
<svg version="1.0" xmlns="http://www.w3.org/2000/svg"
 width="512.000000pt" height="512.000000pt" viewBox="0 0 512.000000 512.000000"
 preserveAspectRatio="xMidYMid meet">

<g transform="translate(0.000000,512.000000) scale(0.100000,-0.100000)"
fill="#000000" stroke="none">
<path d="M323 4765 c-158 -43 -280 -171 -313 -328 -7 -36 -10 -534 -8 -1652
l3 -1600 24 -58 c44 -111 143 -207 258 -250 l58 -22 1323 -3 1322 -2 0 -224
c0 -124 3 -232 6 -241 8 -20 55 -45 85 -45 16 0 70 47 174 150 83 82 155 150
160 150 5 0 77 -67 160 -150 168 -167 182 -174 236 -121 l29 29 0 226 0 225
468 3 c452 3 469 4 525 25 115 43 214 139 258 250 l24 58 3 1600 c2 1118 -1
1616 -8 1652 -25 117 -116 240 -218 292 -105 54 20 51 -2337 50 -1846 0 -2188
-2 -2232 -14z m4446 -171 c61 -18 123 -69 154 -128 l22 -41 3 -1590 c3 -1761
7 -1641 -63 -1722 -19 -22 -56 -51 -82 -64 l-48 -24 -457 -3 -458 -3 0 198 0
197 42 43 42 43 151 -150 c83 -82 160 -151 171 -151 42 -3 60 3 82 27 l22 25
0 593 c0 570 1 596 20 637 11 24 20 56 20 71 0 31 32 58 68 58 34 0 95 34 129
74 45 50 57 96 49 182 l-7 73 40 25 c84 53 125 147 103 234 -7 26 -24 63 -38
83 -13 19 -24 40 -24 46 0 7 15 35 33 64 27 44 32 61 32 113 -1 80 -30 135
-95 182 l-50 36 6 81 c5 73 3 87 -18 127 -29 57 -95 107 -151 115 -61 9 -68
16 -78 71 -12 62 -48 116 -101 151 -38 26 -50 28 -136 28 l-94 0 -30 42 c-31
46 -93 87 -146 98 -43 9 -122 -11 -163 -41 -41 -30 -62 -30 -103 1 -97 74
-236 46 -309 -64 l-29 -42 -75 6 c-148 14 -225 -48 -258 -207 -4 -20 -13 -29
-33 -34 -82 -18 -102 -27 -139 -59 -58 -50 -78 -105 -70 -199 l7 -74 -52 -38
c-93 -70 -121 -169 -74 -266 14 -29 31 -61 38 -71 11 -14 10 -22 -4 -45 -39
-61 -58 -109 -58 -150 0 -77 42 -147 118 -194 l32 -20 -6 -77 c-4 -50 -2 -91
5 -114 17 -51 84 -115 135 -128 88 -22 91 -24 99 -54 5 -17 18 -53 28 -80 18
-48 19 -84 17 -755 l-3 -705 -1310 0 -1310 0 -48 24 c-26 13 -63 42 -82 64
-70 81 -66 -39 -63 1722 l3 1590 22 40 c32 59 85 105 145 126 51 18 144 18
2214 19 1927 0 2166 -2 2213 -16z m-1226 -356 c40 -25 64 -33 113 -36 58 -4
69 -1 128 32 54 30 69 35 86 26 11 -6 20 -15 20 -21 0 -5 18 -29 41 -54 57
-61 116 -78 217 -60 50 8 72 -5 72 -44 0 -30 33 -107 58 -135 22 -25 110 -66
142 -66 44 0 50 -16 44 -105 -6 -70 -4 -86 14 -121 21 -40 83 -104 103 -104 5
0 15 -11 21 -25 9 -21 7 -30 -15 -62 -35 -51 -47 -86 -47 -136 0 -42 38 -138
59 -151 24 -15 9 -45 -41 -82 -32 -24 -62 -57 -76 -84 -21 -40 -23 -55 -18
-127 6 -94 5 -95 -73 -113 -88 -21 -153 -90 -167 -179 -4 -23 -12 -45 -18 -49
-6 -4 -52 -7 -102 -7 -82 0 -94 -3 -131 -27 -23 -15 -56 -48 -73 -73 -36 -52
-57 -56 -103 -21 -74 56 -172 58 -249 6 -24 -16 -50 -30 -59 -30 -9 0 -34 23
-55 52 -56 74 -98 93 -208 93 -99 0 -96 -2 -117 80 -19 74 -87 139 -163 156
-31 7 -60 17 -64 23 -4 6 -7 52 -7 102 0 81 -3 94 -27 131 -15 23 -46 54 -70
70 -24 16 -44 36 -46 45 -2 8 11 37 27 64 53 83 53 167 0 248 -35 52 -32 79
10 101 39 20 87 77 101 121 8 24 10 61 6 107 -7 78 1 97 43 97 15 0 51 12 80
26 61 31 105 90 116 157 11 62 20 70 79 61 106 -15 168 5 224 73 52 62 62 73
69 73 3 0 29 -14 56 -32z m-239 -1905 c43 -69 111 -113 171 -113 l25 0 0 -484
0 -485 23 -26 c28 -34 77 -36 117 -6 l30 22 0 -303 0 -302 -109 107 c-99 98
-111 107 -146 107 -35 0 -47 -9 -146 -107 l-109 -107 0 861 0 862 38 4 c81 8
81 8 106 -30z m854 27 l22 0 0 -437 0 -438 -110 110 c-147 147 -143 147 -290
0 l-110 -110 0 403 c0 221 2 402 5 402 2 0 25 -14 49 -32 104 -73 240 -41 313
75 23 37 27 39 61 33 21 -3 47 -6 60 -6z"/>
<path d="M873 4090 c-168 -25 -315 -167 -352 -338 -8 -37 -11 -321 -11 -940 0
-962 -1 -941 55 -1051 34 -68 116 -145 194 -184 l66 -32 884 -3 884 -2 24 22
c37 35 29 113 -14 134 -10 5 -407 11 -883 14 l-865 5 -36 22 c-50 31 -87 70
-113 118 l-21 40 0 920 0 920 30 54 c32 57 67 90 131 118 36 17 100 18 857 23
l819 5 19 24 c26 32 24 74 -5 108 l-24 28 -794 1 c-436 1 -816 -2 -845 -6z"/>
<path d="M965 3555 c-32 -31 -32 -75 -1 -112 l24 -28 630 0 630 0 26 24 c34
32 36 88 3 119 l-23 22 -633 0 -632 0 -24 -25z"/>
<path d="M965 3215 c-35 -34 -33 -78 4 -116 l29 -29 617 0 c651 0 662 1 679
45 13 35 6 76 -19 100 l-24 25 -631 0 -631 0 -24 -25z"/>
<path d="M965 2875 c-46 -45 -24 -125 38 -140 12 -3 300 -4 640 -3 l619 3 19
24 c27 33 25 86 -6 116 l-24 25 -631 0 -631 0 -24 -25z"/>
<path d="M1258 2374 c-28 -15 -32 -24 -43 -102 -12 -93 -61 -150 -182 -210
-68 -35 -93 -63 -93 -105 0 -39 40 -77 81 -77 57 0 177 68 251 141 l67 67 22
-24 c91 -97 236 -128 322 -70 33 23 34 23 68 6 83 -43 373 -100 507 -100 68 0
76 2 103 29 37 38 38 74 1 110 -25 26 -34 28 -142 34 -75 4 -159 17 -240 37
-155 38 -178 47 -198 79 -34 55 -54 71 -92 71 -45 0 -78 -32 -87 -84 -3 -21
-12 -40 -19 -43 -41 -16 -150 82 -189 172 -36 80 -78 102 -137 69z"/>
<path d="M3520 3994 c-92 -19 -233 -93 -307 -159 -78 -70 -146 -171 -185 -277
-25 -69 -31 -102 -35 -198 -6 -141 10 -219 69 -340 34 -68 59 -102 128 -170
139 -139 285 -200 479 -200 120 0 203 19 308 71 323 160 465 569 309 894 -72
152 -172 253 -321 325 -140 67 -296 86 -445 54z m252 -165 c89 -18 190 -73
255 -138 204 -203 203 -526 -1 -726 -103 -101 -212 -145 -356 -145 -147 0
-253 44 -361 150 -99 98 -149 216 -149 355 0 324 298 569 612 504z"/>
</g>
</svg>
