<?xml version="1.0" standalone="no"?>
<!DOCTYPE svg PUBLIC "-//W3C//DTD SVG 20010904//EN"
 "http://www.w3.org/TR/2001/REC-SVG-20010904/DTD/svg10.dtd">
<svg version="1.0" xmlns="http://www.w3.org/2000/svg"
 width="300.000000pt" height="300.000000pt" viewBox="0 0 300.000000 300.000000"
 preserveAspectRatio="xMidYMid meet">
<metadata>
Created by potrace 1.10, written by Peter Selinger 2001-2011
</metadata>
<g transform="translate(0.000000,300.000000) scale(0.100000,-0.100000)"
fill="#000000" stroke="none">
<path d="M831 2560 c-44 -11 -81 -39 -106 -81 -16 -27 -21 -57 -23 -141 l-4
-107 -203 -3 c-223 -3 -229 -5 -279 -72 -21 -27 -21 -37 -24 -812 -3 -857 -5
-812 55 -868 14 -13 45 -29 69 -35 54 -14 1790 -15 1848 -1 49 11 85 37 111
81 16 27 21 57 23 141 l4 107 203 3 c223 3 229 5 279 72 21 27 21 38 24 752 2
712 2 725 -18 764 -11 22 -39 52 -62 67 l-42 28 -465 3 -466 3 -22 34 c-46 70
-43 70 -478 72 -214 1 -405 -2 -424 -7z m811 -102 c9 -7 57 -85 108 -173 51
-88 99 -168 108 -177 14 -17 47 -18 418 -18 l403 0 20 -26 c21 -26 21 -35 21
-589 0 -539 -1 -564 -19 -586 l-19 -24 -915 -3 c-914 -2 -914 -2 -940 19 l-27
20 0 765 c0 751 0 764 20 784 19 19 33 20 413 20 299 0 397 -3 409 -12z m1027
-102 c37 -19 51 -55 51 -128 0 -54 -2 -59 -17 -52 -10 5 -192 10 -404 12
l-385 3 -39 67 c-21 37 -45 77 -53 90 l-14 22 416 0 c341 0 422 -3 445 -14z
m-1967 -844 l3 -628 25 -37 c13 -20 41 -45 61 -56 36 -21 49 -21 723 -21 l686
0 0 -100 c0 -158 120 -140 -959 -140 l-920 0 -20 26 c-21 26 -21 33 -21 776 0
511 3 756 11 769 17 33 46 38 231 38 l177 1 3 -628z"/>
<path d="M1643 1976 c-179 -41 -331 -190 -379 -371 -8 -27 -14 -86 -14 -131 0
-142 46 -252 149 -355 103 -103 213 -149 355 -149 100 1 153 12 236 53 127 62
232 197 266 343 71 303 -156 603 -470 619 -50 3 -105 -1 -143 -9z m292 -121
c207 -99 295 -349 197 -558 -136 -291 -543 -318 -722 -49 -107 162 -87 376 48
515 94 97 173 128 317 124 86 -3 108 -7 160 -32z"/>
<path d="M1722 1768 c-9 -9 -12 -68 -12 -222 l0 -210 -66 72 c-66 72 -95 87
-122 60 -7 -7 -12 -21 -12 -33 0 -26 201 -246 238 -260 23 -9 32 -3 129 100
58 61 111 120 120 132 19 29 8 61 -24 69 -21 6 -35 -3 -92 -60 -36 -36 -70
-66 -74 -66 -3 0 -8 96 -9 213 l-3 212 -30 3 c-17 2 -36 -3 -43 -10z"/>
</g>
</svg>
