<?xml version="1.0" standalone="no"?>
<!DOCTYPE svg PUBLIC "-//W3C//DTD SVG 20010904//EN"
 "http://www.w3.org/TR/2001/REC-SVG-20010904/DTD/svg10.dtd">
<svg version="1.0" xmlns="http://www.w3.org/2000/svg"
 width="512.000000pt" height="512.000000pt" viewBox="0 0 512.000000 512.000000"
 preserveAspectRatio="xMidYMid meet">

<g transform="translate(0.000000,512.000000) scale(0.100000,-0.100000)"
fill="#000000" stroke="none">
<path d="M3445 5105 c-236 -33 -445 -118 -635 -261 -319 -238 -520 -601 -548
-989 l-7 -90 -283 -3 -283 -2 -181 170 -180 170 -213 0 -213 0 -30 53 c-100
178 -334 249 -523 160 -205 -96 -290 -341 -190 -547 49 -102 128 -170 237
-206 178 -59 383 17 477 178 l33 57 152 3 151 3 179 -171 180 -170 357 -2 357
-3 29 -100 c17 -55 58 -156 92 -225 34 -69 64 -128 65 -132 2 -5 -46 -8 -107
-8 l-111 0 0 -150 0 -150 246 0 246 0 62 -46 c33 -26 96 -67 139 -92 l77 -45
0 -138 0 -139 -726 0 -726 0 -178 -170 -179 -170 -153 0 -153 0 -25 47 c-127
243 -465 285 -655 82 -148 -158 -145 -410 8 -563 129 -128 328 -157 488 -69
57 31 137 113 163 167 l17 36 214 0 215 0 179 170 179 170 699 0 698 -1 50
-66 c28 -36 53 -71 57 -77 3 -6 -34 -65 -83 -130 -70 -95 -89 -126 -89 -153
l0 -33 -701 0 -701 0 -240 -235 c-237 -232 -240 -234 -267 -221 -120 61 -304
37 -419 -54 -156 -122 -198 -333 -104 -517 73 -142 253 -230 417 -203 160 26
284 133 331 289 16 52 18 161 5 207 -9 31 -5 35 193 233 l201 201 643 0 642 0
0 -27 c0 -19 28 -63 90 -145 l91 -118 -91 -120 -90 -119 0 -321 0 -320 363 0
362 0 248 248 247 247 0 1007 0 1008 43 21 c147 75 342 244 449 389 365 495
364 1152 -3 1650 -109 150 -310 316 -486 404 -246 123 -528 169 -798 131z
m354 -300 c629 -102 1033 -723 871 -1339 -50 -189 -133 -332 -277 -479 -95
-97 -218 -180 -351 -238 l-102 -44 0 -1040 0 -1040 -163 -163 -162 -162 -148
0 -147 0 0 121 0 121 125 163 c69 90 125 168 125 174 0 5 -56 83 -125 173
l-124 163 -1 111 0 111 129 169 128 169 -128 170 -129 169 0 297 0 296 -88 37
c-181 75 -348 203 -464 356 -64 84 -141 242 -173 353 -79 281 -34 605 118 849
234 376 658 572 1086 503z m-3213 -773 c55 -44 59 -109 10 -158 -27 -27 -42
-34 -74 -34 -103 0 -145 135 -61 194 31 21 98 20 125 -2z m10 -2216 c65 -65
37 -149 -59 -180 -23 -7 -77 15 -98 40 -39 46 -27 123 24 154 50 31 93 26 133
-14z m427 -1106 c50 -56 31 -137 -39 -166 -72 -30 -144 20 -144 99 1 48 14 70
56 92 42 23 93 13 127 -25z"/>
<path d="M3490 4471 c-281 -90 -414 -402 -285 -667 80 -163 242 -264 425 -264
422 0 636 513 339 811 -58 57 -114 91 -194 119 -75 26 -207 26 -285 1z m226
-300 c18 -11 45 -36 60 -57 25 -32 29 -46 29 -100 0 -55 -4 -67 -31 -101 -96
-119 -272 -88 -315 56 -21 72 11 152 80 198 44 30 132 32 177 4z"/>
<path d="M393 3231 c-185 -63 -304 -257 -273 -445 52 -322 431 -459 675 -244
25 22 60 65 77 94 l30 53 101 3 102 3 3 147 3 147 -103 3 -102 3 -29 50 c-38
65 -71 100 -132 140 -100 65 -243 83 -352 46z m180 -292 c13 -6 31 -23 40 -39
44 -73 -4 -159 -88 -160 -75 0 -124 62 -104 133 18 65 88 95 152 66z"/>
<path d="M1382 2843 l3 -148 290 0 290 0 3 148 3 147 -296 0 -296 0 3 -147z"/>
</g>
</svg>
