<svg width="20" height="20" viewBox="0 0 20 20" fill="none" xmlns="http://www.w3.org/2000/svg">
    <path d="M10.1009 7.79688C9.47102 7.79688 8.86693 8.0471 8.42153 8.4925C7.97613 8.9379 7.72591 9.54199 7.72591 10.1719C7.72591 10.8018 7.97613 11.4059 8.42153 11.8513C8.86693 12.2967 9.47102 12.5469 10.1009 12.5469C10.7308 12.5469 11.3349 12.2967 11.7803 11.8513C12.2257 11.4059 12.4759 10.8018 12.4759 10.1719C12.4759 9.54199 12.2257 8.9379 11.7803 8.4925C11.3349 8.0471 10.7308 7.79688 10.1009 7.79688ZM10.1009 14.1302C9.0511 14.1302 8.04428 13.7132 7.30195 12.9708C6.55962 12.2285 6.14258 11.2217 6.14258 10.1719C6.14258 9.12206 6.55962 8.11524 7.30195 7.37291C8.04428 6.63058 9.0511 6.21354 10.1009 6.21354C11.1507 6.21354 12.1575 6.63058 12.8999 7.37291C13.6422 8.11524 14.0592 9.12206 14.0592 10.1719C14.0592 11.2217 13.6422 12.2285 12.8999 12.9708C12.1575 13.7132 11.1507 14.1302 10.1009 14.1302ZM10.1009 4.23438C6.14258 4.23438 2.76216 6.69646 1.39258 10.1719C2.76216 13.6473 6.14258 16.1094 10.1009 16.1094C14.0592 16.1094 17.4397 13.6473 18.8092 10.1719C17.4397 6.69646 14.0592 4.23438 10.1009 4.23438Z" fill="#0C338C"/>
</svg>
