<svg width="33" height="33" viewBox="0 0 33 33" fill="none" xmlns="http://www.w3.org/2000/svg">
    <path opacity="0.1" fill-rule="evenodd" clip-rule="evenodd" d="M0.0634766 16.7207C0.0634766 7.88415 7.22692 0.720703 16.0635 0.720703C24.9 0.720703 32.0635 7.88415 32.0635 16.7207C32.0635 25.5573 24.9 32.7207 16.0635 32.7207C7.22692 32.7207 0.0634766 25.5573 0.0634766 16.7207Z" fill="white"/>
    <path fill-rule="evenodd" clip-rule="evenodd" d="M24.5969 16.709C24.5969 17.2861 24.5382 17.8624 24.4228 18.4241C24.3103 18.9725 24.1436 19.5109 23.9253 20.0256C23.7119 20.5312 23.4473 21.0184 23.1381 21.4728C22.8336 21.9243 22.4827 22.3478 22.0973 22.734C21.711 23.1184 21.286 23.4683 20.8347 23.7742C20.3788 24.0812 19.8909 24.3454 19.3851 24.5598C18.8696 24.7769 18.33 24.9434 17.782 25.0557C17.2195 25.1714 16.6411 25.2305 16.0632 25.2305C15.4849 25.2305 14.9065 25.1714 14.3448 25.0557C13.796 24.9434 13.2564 24.7769 12.7414 24.5598C12.2355 24.3454 11.7472 24.0812 11.2913 23.7742C10.84 23.4683 10.415 23.1184 10.0296 22.734C9.64375 22.3478 9.29288 21.9243 8.98786 21.4728C8.68035 21.0184 8.41532 20.5312 8.20115 20.0256C7.98278 19.5109 7.81571 18.9725 7.70279 18.4241C7.58862 17.8624 7.53027 17.2861 7.53027 16.709C7.53027 16.1315 7.58859 15.554 7.70282 14.9934C7.81575 14.445 7.98281 13.9058 8.20119 13.3919C8.41535 12.886 8.68038 12.3983 8.9879 11.944C9.29291 11.4921 9.64378 11.0693 10.0296 10.6828C10.4151 10.2983 10.8401 9.94923 11.2914 9.64382C11.7472 9.33548 12.2356 9.0713 12.7414 8.85658C13.2565 8.63892 13.796 8.47209 14.3448 8.3606C14.9065 8.24577 15.4849 8.1875 16.0633 8.1875C16.6412 8.1875 17.2195 8.24577 17.7821 8.3606C18.33 8.47213 18.8696 8.63895 19.3851 8.85658C19.8909 9.07126 20.3789 9.33548 20.8347 9.64382C21.286 9.94923 21.7111 10.2983 22.0973 10.6828C22.4827 11.0693 22.8336 11.4921 23.1382 11.944C23.4473 12.3983 23.7119 12.886 23.9253 13.3919C24.1436 13.9058 24.3103 14.445 24.4228 14.9934C24.5382 15.554 24.5969 16.1315 24.5969 16.709ZM12.9539 10.1269C10.9216 11.0852 9.40491 12.955 8.93196 15.2086C9.12408 15.2102 12.1609 15.2485 15.6598 14.3202C14.3985 12.0825 13.051 10.2563 12.9539 10.1269ZM16.2636 15.4408C12.5113 16.5625 8.91071 16.4818 8.78155 16.4768C8.77945 16.555 8.77571 16.6308 8.77571 16.709C8.77571 18.5784 9.48199 20.2827 10.6429 21.5714C10.6404 21.5676 12.6347 18.0346 16.5674 16.7648C16.6624 16.7331 16.7591 16.7048 16.8549 16.6774C16.672 16.2638 16.4723 15.8494 16.2636 15.4408ZM20.876 11.2474C19.5929 10.1177 17.9083 9.43246 16.0632 9.43246C15.4711 9.43246 14.8965 9.50404 14.346 9.63634C14.4552 9.78283 15.824 11.5961 17.0703 13.8812C19.8201 12.8519 20.858 11.274 20.876 11.2474ZM17.3516 17.8832C17.3354 17.8886 17.3192 17.8932 17.3033 17.899C13.0036 19.3958 11.5994 22.4123 11.5842 22.4452C12.8214 23.4059 14.3732 23.9855 16.0632 23.9855C17.0724 23.9855 18.0337 23.7804 18.9084 23.4088C18.8004 22.7731 18.3771 20.5445 17.3516 17.8832ZM20.1355 22.7439C21.7718 21.6413 22.9339 19.8904 23.2581 17.8624C23.1081 17.8141 21.0693 17.1696 18.717 17.5461C19.6729 20.1692 20.0613 22.3054 20.1355 22.7439ZM17.6312 14.9656C17.8004 15.3126 17.9642 15.6658 18.1154 16.0208C18.1692 16.1481 18.2217 16.2729 18.2729 16.3978C20.7764 16.0832 23.2428 16.6124 23.3482 16.6341C23.3315 14.909 22.7136 13.3258 21.6911 12.0863C21.6773 12.1058 20.5085 13.7922 17.6312 14.9656Z" fill="white"/>
</svg>
