<?xml version="1.0" standalone="no"?>
<!DOCTYPE svg PUBLIC "-//W3C//DTD SVG 20010904//EN"
 "http://www.w3.org/TR/2001/REC-SVG-20010904/DTD/svg10.dtd">
<svg version="1.0" xmlns="http://www.w3.org/2000/svg"
 width="300.000000pt" height="300.000000pt" viewBox="0 0 300.000000 300.000000"
 preserveAspectRatio="xMidYMid meet">
<metadata>
Created by potrace 1.10, written by Peter Selinger 2001-2011
</metadata>
<g transform="translate(0.000000,300.000000) scale(0.100000,-0.100000)"
fill="#000000" stroke="none">
<path d="M586 2908 c-11 -15 -16 -45 -16 -90 l0 -68 -85 0 c-98 0 -128 -11
-156 -57 -19 -30 -20 -46 -17 -179 l3 -146 37 -34 c37 -33 39 -34 128 -34 l90
0 0 -115 0 -115 -86 0 c-155 0 -177 -31 -172 -241 l3 -141 37 -34 c37 -33 39
-34 128 -34 l90 0 0 -115 0 -115 -90 0 c-89 0 -91 -1 -128 -34 l-37 -34 -3
-146 c-3 -133 -2 -149 17 -179 28 -46 58 -57 156 -57 l85 0 0 -114 0 -114 -95
-4 c-92 -3 -96 -4 -127 -36 l-33 -32 -3 -145 c-3 -133 -2 -148 17 -179 28 -44
67 -59 160 -60 l76 -1 5 -72 c8 -120 -114 -108 1059 -108 988 0 1020 1 1040
19 l21 19 0 1392 c0 1336 -1 1393 -18 1408 -17 16 -104 17 -1045 17 l-1026 0
-15 -22z m1979 -1408 l0 -1305 -935 0 -935 0 0 25 c0 24 2 25 85 30 149 9 165
30 165 220 0 199 -23 230 -175 230 l-81 0 3 112 3 113 85 5 c150 9 165 30 165
225 0 195 -15 216 -165 225 l-85 5 -3 113 -3 112 81 0 c137 0 169 33 178 181
7 128 -4 194 -38 232 -27 30 -32 32 -122 37 l-93 5 -3 113 -3 112 82 0 c64 0
89 4 114 20 50 31 60 67 60 215 0 186 -21 213 -166 218 -72 2 -84 5 -87 20
-10 49 -56 46 940 44 l933 -2 0 -1305z m-1745 1015 l0 -105 -195 0 -195 0 0
105 0 105 195 0 195 0 0 -105z m0 -675 l0 -110 -195 0 -195 0 0 110 0 110 195
0 195 0 0 -110z m0 -680 l0 -110 -195 0 -195 0 0 103 c0 57 3 107 7 110 3 4
91 7 195 7 l188 0 0 -110z m0 -680 l0 -110 -195 0 -195 0 0 110 0 110 195 0
195 0 0 -110z"/>
<path d="M1114 2696 c-18 -14 -19 -28 -19 -259 0 -227 1 -246 19 -266 19 -21
23 -21 575 -21 488 0 559 2 579 16 22 15 22 18 22 263 0 227 -2 249 -18 264
-17 15 -72 17 -578 17 -468 0 -563 -2 -580 -14z m1056 -266 l0 -160 -475 0
-475 0 0 160 0 160 475 0 475 0 0 -160z"/>
<path d="M1070 1930 c-11 -11 -20 -29 -20 -40 0 -11 9 -29 20 -40 20 -20 33
-20 663 -20 611 0 645 1 660 18 22 24 21 65 -1 85 -17 15 -77 17 -660 17 -629
0 -642 0 -662 -20z"/>
<path d="M1066 1648 c-21 -30 -20 -54 4 -78 20 -20 33 -20 663 -20 611 0 645
1 660 18 21 23 22 66 1 86 -14 14 -88 16 -664 16 l-649 0 -15 -22z"/>
<path d="M1067 1372 c-23 -25 -21 -55 4 -78 20 -18 46 -19 664 -19 529 0 645
2 658 14 20 16 23 71 5 89 -9 9 -170 12 -663 12 -619 0 -653 -1 -668 -18z"/>
</g>
</svg>
