
<svg width="341" height="356" viewBox="0 0 341 356" fill="none" xmlns="http://www.w3.org/2000/svg">
<path fill-rule="evenodd" clip-rule="evenodd" d="M165.675 263.293L173.306 258.867L175.111 260.787C172.212 262.08 168.956 262.919 165.675 263.292V263.293ZM178.275 259.124C178.652 258.669 178.948 258.198 179.164 257.719L179.404 257.857C179.584 257.961 179.757 258.066 179.925 258.174L178.275 259.124Z" fill="url(#paint0_linear_59_1005)"/>
<path fill-rule="evenodd" clip-rule="evenodd" d="M110.63 355.558L84.6943 340.619L110.759 325.602L136.696 340.544L110.63 355.558Z" fill="url(#paint1_linear_59_1005)"/>
<path d="M69.6737 199.17L67.3721 198.962C72.6105 195.925 80.9997 195.849 86.1101 198.793L83.83 199C80.0225 196.801 73.6758 196.852 69.6737 199.17Z" fill="#332A43"/>
<path d="M28.3102 223.155L26.0088 222.947L67.3722 198.962L69.6738 199.17L28.3102 223.155Z" fill="#2D243E"/>
<path d="M21.9927 233.352L22.0061 228.484C22.0013 230.416 23.2529 232.328 25.7707 233.779L25.7565 238.646C23.2387 237.196 21.9871 235.282 21.9927 233.352Z" fill="#211833"/>
<path d="M28.0566 231.338L25.7707 233.779C20.6603 230.835 20.7664 225.987 26.0084 222.947L28.3098 223.155C24.3062 225.478 24.2402 229.145 28.0566 231.338V231.338Z" fill="#2D243E"/>
<path d="M83.8301 199L86.1102 198.793L175.835 250.479L173.554 250.686L83.8301 199Z" fill="#2D243E"/>
<path d="M173.553 250.686L175.834 250.479C180.943 253.422 180.838 258.271 175.6 261.308L173.306 258.868C177.304 256.547 177.37 252.879 173.553 250.686V250.686Z" fill="#2D243E"/>
<path d="M179.599 255.774L179.584 260.641C179.579 262.629 178.243 264.636 175.587 266.176L175.6 261.308C178.257 259.768 179.594 257.762 179.599 255.774Z" fill="#211833"/>
<path d="M173.306 258.868L175.6 261.308L134.237 285.293L131.941 282.852L173.306 258.868Z" fill="#2D243E"/>
<path d="M175.6 261.308L175.587 266.176L134.222 290.16L134.237 285.293L175.6 261.308Z" fill="#211833"/>
<path d="M117.782 283.026L115.495 285.466L25.771 233.779L28.0569 231.338L117.782 283.026Z" fill="#2D243E"/>
<path d="M115.495 285.466L115.482 290.333L25.7568 238.646L25.771 233.779L115.495 285.466Z" fill="#211833"/>
<path d="M173.553 250.686C177.371 252.879 177.305 256.547 173.306 258.867L131.941 282.852C127.935 285.173 121.588 285.223 117.781 283.025L28.0566 231.338C24.2402 229.145 24.3062 225.477 28.3099 223.155L69.6735 199.17C73.6756 196.852 80.0223 196.801 83.8298 199L173.553 250.686Z" fill="#332A43"/>
<path d="M131.941 282.852L134.237 285.293C128.994 288.331 120.605 288.408 115.495 285.466L117.782 283.026C121.588 285.224 127.935 285.173 131.941 282.852Z" fill="#2D243E"/>
<path d="M134.237 285.293L134.222 290.16C128.98 293.199 120.592 293.277 115.482 290.333L115.495 285.466C120.606 288.408 128.994 288.331 134.237 285.293Z" fill="#211833"/>
<path d="M60.4038 204.388L59.6196 203.647L63.469 204.239L63.0048 203.8L60.4038 204.388Z" fill="#3385FF"/>
<path d="M61.0915 204.383L61.0872 205.799C61.089 205.314 60.8652 204.825 60.4038 204.388L60.4074 202.972C60.8687 203.41 61.0925 203.899 61.0915 204.383V204.383Z" fill="#0066FF"/>
<path d="M38.5194 215.883L39.8027 216.333L38.2256 218.162L38.9922 218.431L38.5194 215.883Z" fill="#3385FF"/>
<path fill-rule="evenodd" clip-rule="evenodd" d="M124.546 279.065C122.56 279.065 120.572 278.705 118.904 277.985C118.549 277.831 118.207 277.661 117.884 277.474L32.1257 228.073C31.5327 227.731 31.034 227.355 30.6308 226.956C29.1577 225.494 28.955 223.717 30.0274 222.173C30.0327 222.166 30.0383 222.158 30.0441 222.15C30.4996 221.504 31.1792 220.9 32.0826 220.377L36.9511 217.555L38.9985 216.368L38.9858 216.329C39.2428 216.398 39.5047 216.459 39.7694 216.511C40.5761 216.668 41.412 216.745 42.2433 216.745C43.9603 216.745 45.6585 216.415 47.0436 215.775C47.2653 215.673 47.4788 215.563 47.6825 215.445L52.1671 212.844L61.8941 207.204C62.3956 206.913 62.8148 206.59 63.1505 206.246C63.8255 205.557 64.1613 204.782 64.1402 204.002C64.1293 203.536 63.9928 203.07 63.7263 202.619C63.6362 202.466 63.5307 202.315 63.4096 202.166H63.467L63.4753 202.174L70.3907 198.164C72.2211 197.102 74.6293 196.571 77.0401 196.571C79.0826 196.571 81.128 196.952 82.8254 197.715C82.8292 197.716 82.8328 197.717 82.8366 197.719C82.8391 197.721 82.8419 197.722 82.8449 197.723C83.1406 197.857 83.4253 198.002 83.6983 198.158L155.511 239.533C155.683 240.234 156.321 240.982 157.396 241.616C158.521 242.282 159.906 242.695 161.228 242.826L168.975 247.288C163.592 248.694 158.652 250.121 158.652 250.121L160.841 250.987L134.458 266.185C134.343 266.251 134.33 266.351 134.43 266.409C134.476 266.436 134.536 266.448 134.599 266.448C134.676 266.448 134.757 266.429 134.82 266.393L161.27 251.156L170.312 254.733C170.266 254.767 170.22 254.801 170.173 254.834C169.963 254.975 169.738 255.124 169.501 255.26L131.193 277.475C129.364 278.535 126.956 279.065 124.546 279.065H124.546ZM135.389 254.876C135.068 254.959 134.743 255.053 134.409 255.167C131.933 256.009 129.485 257.056 128.341 258.992C127.73 260.027 127.688 260.922 128.22 261.655C128.953 262.663 130.556 263.322 132.25 263.322L132.427 263.32C134.085 263.274 135.67 262.974 137.01 262.451C139.845 261.345 141.646 259.335 141.83 257.075C141.897 256.251 141.692 255.637 141.388 255.183C142.394 255.751 143.693 256.059 145.015 256.059C145.563 256.059 146.118 256.006 146.656 255.896C149.736 255.272 150.696 254.033 152.148 252.156C152.28 251.987 152.406 251.8 152.522 251.6C152.757 251.618 152.996 251.627 153.236 251.627C155.004 251.627 156.875 251.15 158.33 250.309L157.693 249.213C156.438 249.938 154.83 250.362 153.3 250.362C153.211 250.362 153.123 250.36 153.035 250.358C153.3 249.334 153.217 248.174 152.434 247.119C151.85 246.334 150.54 245.674 149.386 245.585C149.261 245.575 149.142 245.57 149.029 245.57C147.857 245.57 147.346 246.057 147.123 246.491C146.609 247.497 147.305 248.914 147.866 249.571C148.581 250.409 149.764 251.059 151.14 251.388C149.773 253.153 149.018 254.126 146.404 254.656C145.952 254.748 145.485 254.792 145.021 254.792C144.254 254.792 143.496 254.671 142.831 254.443L142.998 254.377C145.363 253.418 146.836 252.267 147.259 251.049C147.456 250.483 147.416 249.929 147.14 249.447C146.633 248.561 145.579 248.075 144.396 248.075C143.775 248.075 143.118 248.208 142.487 248.488C141.106 249.098 139.946 250.254 139.664 251.299C139.509 251.874 139.555 252.432 139.627 252.95C139.678 253.316 139.816 253.668 140.036 253.994L139.877 254.033C139.079 253.711 138.05 253.55 136.772 253.55C136.149 253.55 135.467 253.589 134.723 253.665L134.157 253.723C133.22 253.822 132.266 253.923 131.354 253.923C130.614 253.923 129.9 253.857 129.25 253.669C128.344 253.408 127.681 252.925 127.389 252.313C127.189 251.897 127.176 251.457 127.35 251.044C127.55 250.571 127.888 250.243 128.638 249.791C129.251 249.422 129.921 249.047 130.761 248.878C131.026 248.824 131.306 248.799 131.577 248.799C132.144 248.799 132.671 248.91 132.946 249.111L133.693 248.086C133.147 247.69 132.349 247.531 131.582 247.531C131.207 247.531 130.838 247.569 130.51 247.636C129.47 247.846 128.659 248.299 127.982 248.706C127.159 249.202 126.539 249.705 126.18 250.553C125.865 251.299 125.887 252.118 126.243 252.859C126.696 253.803 127.638 254.524 128.897 254.886C129.682 255.112 130.508 255.19 131.35 255.19C132.322 255.19 133.314 255.086 134.29 254.983L134.85 254.926C135.037 254.907 135.216 254.89 135.389 254.877V254.876ZM132.357 262.053C130.89 262.053 129.68 261.506 129.249 260.911C129.094 260.699 128.995 260.378 129.434 259.636C130.369 258.055 132.576 257.129 134.819 256.366C135.875 256.007 136.882 255.844 137.948 255.673C138.508 255.584 139.097 255.49 139.726 255.36L139.89 255.458C140.406 255.799 140.621 256.28 140.566 256.971C140.424 258.712 138.884 260.359 136.549 261.271C135.36 261.734 133.883 262.014 132.393 262.053C132.381 262.053 132.369 262.053 132.357 262.053L132.357 262.053ZM141.375 253.621C141.141 253.4 140.931 253.112 140.883 252.773C140.821 252.33 140.799 251.965 140.89 251.628C141.045 251.049 141.837 250.159 142.999 249.645C143.473 249.437 143.964 249.336 144.417 249.336C145.141 249.336 145.763 249.594 146.037 250.074C146.128 250.233 146.136 250.417 146.059 250.634C145.952 250.943 145.379 252.043 142.52 253.202C142.123 253.365 141.741 253.502 141.375 253.621L141.375 253.621ZM151.757 250.224C150.513 249.986 149.421 249.441 148.833 248.749C148.427 248.274 148.082 247.405 148.254 247.067C148.33 246.918 148.606 246.835 149.01 246.835C149.097 246.835 149.189 246.838 149.287 246.846C150.141 246.914 151.093 247.441 151.414 247.872C152.026 248.696 151.975 249.557 151.757 250.225V250.224Z" fill="url(#paint2_linear_59_1005)"/>
<path d="M60.4076 202.972L60.4038 204.388L59.6196 203.647L59.6242 202.232L60.4076 202.972Z" fill="#0066FF"/>
<path d="M26.294 225.929L26.298 224.514C26.2929 226.369 27.5196 228.228 29.9771 229.644L29.9733 231.06C27.5156 229.644 26.2891 227.785 26.294 225.929V225.929Z" fill="#0066FF"/>
<path d="M175.294 251.774L175.29 253.188C175.284 255.02 174.077 256.849 171.666 258.248L171.669 256.831C174.081 255.434 175.288 253.604 175.294 251.773V251.774Z" fill="#0066FF"/>
<path d="M171.67 256.831L171.666 258.248L133.357 280.459L133.362 279.044L171.67 256.831Z" fill="#0066FF"/>
<path d="M115.735 279.044L115.731 280.459L29.9736 231.06L29.9774 229.644L115.735 279.044Z" fill="#0066FF"/>
<path fill-rule="evenodd" clip-rule="evenodd" d="M124.557 281.157C121.369 281.157 118.178 280.455 115.739 279.049L29.9786 229.646C27.6389 228.299 26.4125 226.545 26.3046 224.775C26.1881 222.854 27.3887 220.915 29.9162 219.451L38.5147 214.459L39.7983 214.92C40.437 215.145 41.1392 215.272 41.8464 215.306C41.9743 215.312 42.1025 215.315 42.2304 215.315C43.4423 215.315 44.6409 215.042 45.5369 214.521L59.7287 206.277C60.7148 205.703 61.1843 204.924 61.077 204.155C61.0196 203.744 60.7976 203.335 60.4017 202.962L59.6239 202.23L68.2232 197.236C70.6513 195.831 73.8365 195.128 77.0271 195.128C80.2177 195.128 83.4128 195.831 85.8619 197.236L149.6 233.957L155.575 237.399C155.538 237.953 155.503 238.509 155.467 239.064C155.457 239.216 155.472 239.373 155.511 239.533L83.6978 198.159C83.4248 198.002 83.14 197.857 82.8444 197.723C82.8416 197.722 82.8388 197.721 82.836 197.719C82.8325 197.717 82.8289 197.717 82.8249 197.715C81.1274 196.951 79.0803 196.57 77.0352 196.57C74.6242 196.57 72.217 197.099 70.3884 198.159L63.4712 202.166H63.4667H63.4093H63.4075C63.5278 202.315 63.6331 202.467 63.7232 202.62C63.9899 203.072 64.1282 203.538 64.1399 204.002C64.1607 204.782 63.825 205.557 63.1502 206.246C62.8145 206.588 62.3958 206.909 61.8938 207.2L52.1668 212.843L47.6822 215.445C47.4785 215.563 47.2651 215.672 47.0433 215.774C45.6707 216.404 43.9831 216.732 42.2743 216.732C41.4407 216.732 40.603 216.654 39.7942 216.496C39.5181 216.442 39.2453 216.378 38.9774 216.305L38.9855 216.329L38.9982 216.368L36.9508 217.554L32.081 220.375C31.1776 220.897 30.4988 221.503 30.0433 222.149C30.038 222.157 30.0324 222.165 30.0271 222.172C28.9547 223.717 29.1574 225.494 30.6305 226.955C31.033 227.356 31.5309 227.731 32.1229 228.073L117.883 277.474C118.207 277.661 118.548 277.831 118.904 277.984C120.571 278.704 122.56 279.065 124.546 279.065C126.956 279.065 129.363 278.534 131.192 277.474L169.5 255.26C169.738 255.123 169.962 254.974 170.172 254.834C170.222 254.8 170.271 254.768 170.32 254.736L173.095 255.826C172.675 256.182 172.212 256.518 171.665 256.833L133.358 279.048C130.93 280.454 127.744 281.157 124.556 281.157L124.557 281.157ZM174.861 249.876L174.855 249.863L174.848 249.849L174.817 249.784L174.814 249.779L174.807 249.763C174.782 249.714 174.756 249.664 174.73 249.615L174.728 249.611L174.719 249.595L174.688 249.539L174.682 249.527L174.677 249.518L174.642 249.457L174.634 249.443L174.624 249.427L174.591 249.371L174.522 249.26L174.487 249.205L174.48 249.195L174.45 249.15L174.425 249.113L174.413 249.096L174.375 249.041L174.368 249.031L174.357 249.015L174.318 248.961L174.31 248.949L174.297 248.932L174.256 248.878L174.222 248.832L174.215 248.823L174.187 248.787L174.173 248.769L174.13 248.715L174.123 248.707L174.086 248.662C173.911 248.449 173.717 248.239 173.503 248.034L173.497 248.029C173.426 247.961 173.353 247.894 173.278 247.827L173.221 247.777C173.126 247.694 173.027 247.612 172.926 247.531L172.915 247.522C172.856 247.475 172.795 247.427 172.733 247.381C172.794 247.427 172.856 247.475 172.915 247.522L172.926 247.531C173.027 247.612 173.126 247.694 173.221 247.777L173.278 247.827C173.353 247.894 173.426 247.961 173.497 248.029L173.503 248.034C173.717 248.239 173.911 248.448 174.086 248.662L174.123 248.707L174.13 248.715L174.173 248.769L174.187 248.787L174.215 248.823L174.222 248.832L174.256 248.878L174.297 248.932L174.31 248.949L174.318 248.961L174.357 249.015L174.368 249.031L174.375 249.041L174.413 249.096L174.425 249.113L174.45 249.15L174.48 249.195L174.487 249.205L174.522 249.26L174.591 249.371L174.624 249.427L174.634 249.443L174.642 249.457L174.677 249.518L174.682 249.527L174.688 249.539L174.719 249.595L174.728 249.611L174.73 249.615C174.756 249.664 174.782 249.713 174.807 249.763L174.814 249.779L174.817 249.784L174.848 249.849L174.855 249.863L174.861 249.876ZM171.54 246.596C170.742 246.827 169.92 247.037 169.121 247.247L168.975 247.288L161.228 242.826C161.526 242.855 161.821 242.869 162.109 242.869C162.958 242.869 163.747 242.741 164.38 242.472L171.54 246.597V246.596Z" fill="url(#paint3_linear_59_1005)"/>
<path d="M149.01 246.835C148.606 246.835 148.33 246.917 148.254 247.067C148.081 247.404 148.427 248.274 148.833 248.749C149.421 249.441 150.513 249.985 151.757 250.224C151.975 249.557 152.026 248.696 151.413 247.872C151.093 247.441 150.141 246.913 149.286 246.845C149.189 246.838 149.096 246.835 149.01 246.835V246.835ZM144.417 249.336C143.964 249.336 143.473 249.436 142.999 249.645C141.837 250.159 141.045 251.049 140.89 251.627C140.799 251.965 140.821 252.33 140.883 252.773C140.931 253.111 141.141 253.399 141.375 253.621C141.742 253.502 142.123 253.365 142.52 253.202C145.379 252.043 145.952 250.943 146.059 250.634C146.136 250.417 146.128 250.233 146.037 250.074C145.763 249.594 145.141 249.336 144.417 249.336L144.417 249.336ZM139.726 255.36C139.097 255.49 138.508 255.584 137.948 255.673C136.882 255.844 135.874 256.007 134.819 256.366C132.575 257.129 130.369 258.055 129.434 259.636C128.995 260.378 129.094 260.699 129.249 260.911C129.683 261.51 130.909 262.062 132.392 262.053C133.883 262.014 135.359 261.735 136.548 261.272C138.884 260.359 140.423 258.713 140.565 256.972C140.62 256.281 140.406 255.799 139.89 255.458L139.725 255.36L139.726 255.36ZM132.25 263.322C130.555 263.322 128.953 262.663 128.22 261.655C127.688 260.922 127.73 260.027 128.341 258.992C129.485 257.056 131.933 256.009 134.409 255.167C134.743 255.053 135.068 254.959 135.389 254.876C135.216 254.889 135.037 254.906 134.85 254.925L134.29 254.983C132.468 255.174 130.588 255.372 128.897 254.886C127.638 254.523 126.696 253.803 126.243 252.858C125.887 252.117 125.865 251.298 126.18 250.552C126.539 249.704 127.159 249.201 127.982 248.706C128.659 248.299 129.47 247.845 130.51 247.635C131.506 247.431 132.88 247.495 133.693 248.085L132.946 249.11C132.539 248.813 131.58 248.711 130.761 248.877C129.921 249.046 129.251 249.421 128.637 249.79C127.888 250.242 127.55 250.57 127.35 251.043C127.175 251.457 127.189 251.896 127.388 252.312C127.681 252.925 128.343 253.407 129.249 253.668C130.701 254.086 132.458 253.902 134.157 253.722L134.723 253.664C136.991 253.432 138.69 253.554 139.877 254.032L140.036 253.994C139.816 253.668 139.678 253.315 139.627 252.949C139.555 252.431 139.509 251.873 139.664 251.298C139.946 250.253 141.106 249.098 142.487 248.487C144.325 247.674 146.368 248.095 147.14 249.446C147.415 249.928 147.456 250.482 147.259 251.048C146.836 252.266 145.363 253.417 142.998 254.376L142.831 254.442C143.898 254.809 145.207 254.899 146.404 254.655C149.018 254.125 149.773 253.152 151.14 251.387C149.764 251.059 148.582 250.409 147.866 249.57C147.305 248.913 146.609 247.497 147.123 246.491C147.368 246.014 147.959 245.475 149.386 245.584C150.54 245.673 151.85 246.333 152.434 247.118C153.218 248.173 153.301 249.333 153.036 250.357C154.643 250.41 156.366 249.979 157.693 249.213L158.33 250.309C156.678 251.263 154.487 251.75 152.523 251.6C152.406 251.8 152.28 251.987 152.148 252.156C150.696 254.033 149.736 255.272 146.656 255.896C144.821 256.27 142.814 255.987 141.389 255.183C141.693 255.637 141.897 256.25 141.83 257.075C141.646 259.335 139.845 261.344 137.01 262.451C135.67 262.974 134.085 263.274 132.428 263.32L132.25 263.322L132.25 263.322Z" fill="white"/>
<path d="M82.0131 212.249L57.6672 226.274C56.6983 226.832 55.2315 226.893 54.3926 226.41C53.5529 225.925 53.6582 225.082 54.6276 224.523L78.9735 210.498C79.9432 209.94 81.4092 209.88 82.2489 210.363C83.0876 210.847 82.983 211.692 82.0131 212.249Z" fill="white"/>
<path d="M97.5404 215.205L62.7963 235.219C61.8274 235.777 60.3609 235.837 59.5219 235.354C58.6822 234.87 58.7878 234.026 59.7567 233.468L94.5006 213.453C95.4697 212.896 96.9362 212.834 97.7752 213.319C98.6149 213.802 98.5093 214.647 97.5404 215.205V215.205Z" fill="white"/>
<path d="M104.699 219.328L69.955 239.343C68.9861 239.901 67.5204 239.961 66.6804 239.478C65.8407 238.994 65.9465 238.149 66.9162 237.591L101.659 217.577C102.628 217.019 104.095 216.958 104.935 217.442C105.774 217.926 105.668 218.77 104.699 219.328Z" fill="white"/>
<path d="M111.857 223.452L77.1139 243.465C76.144 244.024 74.6782 244.084 73.8385 243.601C72.9996 243.118 73.1044 242.273 74.0732 241.715L108.817 221.701C109.786 221.142 111.253 221.081 112.092 221.565C112.931 222.048 112.826 222.893 111.857 223.452Z" fill="white"/>
<path d="M111.566 231.866L84.2715 247.59C83.3026 248.148 81.8358 248.208 80.9971 247.725C80.1572 247.241 80.263 246.397 81.2319 245.839L108.527 230.115C109.496 229.556 110.962 229.496 111.802 229.979C112.641 230.463 112.536 231.307 111.566 231.866Z" fill="white"/>
<path d="M126.173 231.699L91.4293 251.713C90.4604 252.271 88.9944 252.332 88.1547 251.848C87.315 251.365 87.4206 250.52 88.3895 249.962L123.134 229.948C124.103 229.39 125.569 229.329 126.409 229.812C127.248 230.296 127.142 231.14 126.173 231.699Z" fill="white"/>
<path d="M163.863 249.663L134.819 266.393C134.704 266.46 134.53 266.467 134.43 266.409C134.33 266.351 134.342 266.251 134.458 266.185L163.501 249.454C163.617 249.388 163.791 249.381 163.891 249.439C163.99 249.496 163.978 249.596 163.863 249.663Z" fill="white"/>
<path d="M171.721 249.63L171.716 249.627C171.314 248.962 170.682 248.333 169.822 247.781C170.685 248.334 171.318 248.964 171.721 249.63H171.721Z" fill="#1A1A3B"/>
<path d="M170.32 254.736L170.311 254.733C172.276 253.255 172.744 251.324 171.716 249.626L171.721 249.63C172.747 251.326 172.282 253.256 170.32 254.736Z" fill="#1D1E40"/>
<path fill-rule="evenodd" clip-rule="evenodd" d="M170.311 254.733L161.27 251.156L163.863 249.663C163.978 249.596 163.99 249.496 163.891 249.439C163.846 249.413 163.785 249.4 163.722 249.4C163.645 249.4 163.564 249.418 163.502 249.454L160.841 250.987L158.652 250.121C158.652 250.121 163.593 248.694 168.975 247.288L169.458 247.562C169.583 247.633 169.705 247.707 169.822 247.781C170.682 248.333 171.314 248.962 171.716 249.627C172.744 251.324 172.276 253.255 170.311 254.733L170.311 254.733Z" fill="url(#paint4_linear_59_1005)"/>
<path fill-rule="evenodd" clip-rule="evenodd" d="M173.096 255.826L170.32 254.736C172.282 253.256 172.747 251.326 171.721 249.63C171.318 248.964 170.685 248.333 169.821 247.781C169.704 247.706 169.583 247.633 169.457 247.561L168.974 247.288L169.121 247.247C169.919 247.037 170.741 246.827 171.54 246.596L171.603 246.639C174.059 248.047 175.29 249.904 175.291 251.756C175.291 251.852 175.288 251.95 175.281 252.046C175.189 253.377 174.461 254.693 173.096 255.826Z" fill="url(#paint5_linear_59_1005)"/>
<path d="M161.269 251.156L160.841 250.986L163.501 249.454C163.564 249.418 163.645 249.4 163.721 249.4C163.785 249.4 163.845 249.413 163.891 249.439C163.99 249.496 163.978 249.596 163.862 249.663L161.269 251.156V251.156Z" fill="#91B8F2"/>
<path d="M108.579 250.08L98.5888 255.836C97.6189 256.395 96.1521 256.455 95.3134 255.972C94.4737 255.489 94.5793 254.644 95.5482 254.086L105.539 248.33C106.509 247.772 107.975 247.711 108.815 248.195C109.654 248.679 109.549 249.523 108.579 250.081V250.08Z" fill="white"/>
<path d="M253.352 186.281L289.091 207.005C288.632 206.738 288.046 206.688 287.391 206.889C287.13 206.969 286.859 207.087 286.579 207.248L250.84 186.526C251.119 186.365 251.392 186.246 251.653 186.166C252.308 185.966 252.894 186.015 253.352 186.281H253.352Z" fill="#888B90"/>
<path d="M285.661 207.916L249.922 187.194L250.009 186.951L285.748 207.674L285.661 207.916Z" fill="#1F79FF"/>
<path d="M286.578 207.248C286.859 207.087 287.13 206.969 287.391 206.889C288.95 206.412 290.116 207.349 290.122 209.264C290.128 211.499 288.551 214.225 286.601 215.348C285.372 216.056 284.288 215.958 283.654 215.228C283.357 214.886 283.158 214.407 283.089 213.807C283.072 213.655 283.063 213.497 283.063 213.33C283.057 211.46 284.158 209.246 285.66 207.916C285.952 207.657 286.26 207.432 286.578 207.248H286.578Z" fill="#888B90"/>
<path d="M285.748 207.674L250.009 186.951L228.565 135.072L264.303 155.794L285.748 207.674Z" fill="#ADADB4"/>
<path d="M284.093 215.592L248.354 194.87C248.192 194.776 248.044 194.653 247.916 194.506C247.619 194.164 247.42 193.685 247.351 193.085C247.333 192.933 247.323 192.774 247.323 192.608C247.319 190.738 248.42 188.524 249.922 187.194C250.214 186.935 250.521 186.709 250.84 186.527L286.578 207.249C286.26 207.432 285.952 207.657 285.66 207.916C284.158 209.247 283.057 211.461 283.062 213.33C283.062 213.497 283.072 213.655 283.089 213.807C283.158 214.407 283.357 214.886 283.654 215.229C283.783 215.376 283.93 215.498 284.093 215.592H284.093Z" fill="#BABCBF"/>
<path d="M283.089 213.807L247.351 195.167L219.111 211.436C218.49 211.793 218.022 212.28 217.698 212.831L217.162 212.711V214.802C217.161 216.109 217.807 217.416 219.1 218.166L243.458 232.29C246.899 234.285 251.147 234.291 254.593 232.305L283.887 215.437L283.089 213.807V213.807Z" fill="#888B90"/>
<path fill-rule="evenodd" clip-rule="evenodd" d="M247.351 193.084L219.11 209.352C216.515 210.848 216.51 214.581 219.1 216.084L243.458 230.207C246.899 232.203 251.147 232.208 254.593 230.224L283.089 213.807L247.351 193.084V193.084Z" fill="url(#paint6_linear_59_1005)"/>
<path d="M264.303 155.794L228.565 135.072L229.98 133.641L265.72 154.363L264.303 155.794Z" fill="#1F79FF"/>
<path d="M191.418 1.96976L192.444 2.53464L322.802 77.6292L321.777 77.0635L191.418 1.96976Z" fill="#1F79FF"/>
<path d="M191.192 1.84189C191.542 2.03432 191.89 2.22675 192.24 2.41943L192.444 2.53463L191.418 1.96975L191.192 1.84189Z" fill="#1F79FF"/>
<path d="M328.746 207.895L324.259 210.496C326.112 209.423 327.261 207.14 327.269 203.898L331.755 201.296C331.746 204.54 330.598 206.821 328.746 207.895Z" fill="#818489"/>
<path d="M332.057 94.8297L332.073 93.6498L331.771 200.116L331.755 201.296L332.057 94.8297Z" fill="#1F79FF"/>
<path fill-rule="evenodd" clip-rule="evenodd" d="M327.572 97.4308L332.057 94.8297L331.755 201.296L327.269 203.898L327.572 97.4308Z" fill="url(#paint7_linear_59_1005)"/>
<path d="M321.777 77.0635L322.803 77.6292C327.936 80.5847 332.091 87.7598 332.074 93.6499L332.057 94.83C332.077 88.2971 327.471 80.3434 321.778 77.0638L321.777 77.0635Z" fill="#818489"/>
<path fill-rule="evenodd" clip-rule="evenodd" d="M320.065 210.488C318.81 210.488 317.393 210.079 315.896 209.216L215.708 151.502C216.113 151.328 216.475 151.173 216.801 151.035C218.135 151.468 219.44 151.694 220.683 151.694C220.761 151.694 220.841 151.694 220.92 151.692C221.977 151.951 223.012 152.085 224.01 152.085C225.691 152.085 227.267 151.706 228.669 150.909C228.696 150.893 228.723 150.877 228.751 150.861L232.259 148.84L311.662 194.58L311.348 193.702C312.863 194.574 314.294 194.988 315.563 194.988C318.639 194.988 320.756 192.556 320.768 188.346L321.019 99.5577C321.038 93.6172 316.848 86.3725 311.662 83.3863L186.389 11.2218C184.878 10.3505 183.447 9.93831 182.18 9.93831C179.102 9.93831 176.982 12.3695 176.97 16.5768L176.718 105.366C176.7 111.311 180.894 118.553 186.076 121.536L189.939 123.762V123.763L186.076 121.537L186.389 122.415L189.468 124.189L181.829 131.101C178.544 127.562 176.253 122.474 176.267 118.101L176.569 11.6352C176.58 7.46383 178.681 5.0567 181.728 5.0567C182.985 5.0567 184.402 5.46612 185.901 6.32926L316.259 81.4228C321.392 84.3793 325.546 91.5544 325.529 97.4445L325.227 203.91C325.215 208.078 323.113 210.489 320.064 210.489L320.065 210.488Z" fill="url(#paint8_linear_59_1005)"/>
<path fill-rule="evenodd" clip-rule="evenodd" d="M317.291 79.6651L186.933 4.57059C181.239 1.2912 176.603 3.92089 176.585 10.4549L176.569 11.635C176.585 5.74466 180.767 3.37171 185.901 6.32928L316.259 81.4228C321.392 84.3794 325.548 91.5544 325.529 97.4445L325.227 203.911C325.212 209.717 321.14 212.109 316.101 209.332C316.451 209.524 316.799 209.717 317.147 209.909C322.737 212.99 327.251 210.338 327.269 203.898L327.572 97.4321C327.59 90.8982 322.984 82.9453 317.291 79.6656L317.291 79.6651Z" fill="url(#paint9_linear_59_1005)"/>
<path fill-rule="evenodd" clip-rule="evenodd" d="M321.777 77.0635L191.418 1.96975C188.553 0.318665 185.955 0.165229 184.08 1.2527L179.593 3.85353C181.469 2.7658 184.067 2.92025 186.933 4.57033L317.291 79.6649C322.984 82.9445 327.59 90.8974 327.572 97.4314L332.057 94.8298C332.077 88.2968 327.471 80.3432 321.777 77.0635Z" fill="url(#paint10_linear_59_1005)"/>
<path d="M186.076 121.537L186.388 122.415C180.695 119.135 176.09 111.182 176.108 104.648L176.717 105.365C176.7 111.31 180.894 118.552 186.075 121.537H186.076Z" fill="#1F79FF"/>
<path d="M176.718 105.365L176.108 104.648L176.36 15.8601L176.97 16.5766L176.718 105.365Z" fill="#1F79FF"/>
<path d="M179.37 9.26178L180.747 8.4632C182.622 7.37547 185.22 7.52815 188.084 9.17823L186.707 9.97731C183.842 8.32698 181.245 8.17456 179.37 9.26204V9.26178Z" fill="#0066FF"/>
<path d="M176.97 16.5766L176.36 15.8603C176.378 9.33268 181.015 6.69691 186.707 9.97731L186.389 11.2218C181.209 8.23634 176.986 10.6374 176.97 16.5769L176.97 16.5766Z" fill="#1F79FF"/>
<path d="M311.348 193.701L311.662 194.58L186.389 122.415L186.076 121.537L311.348 193.701Z" fill="#1F79FF"/>
<path d="M320.379 194.5L319.002 195.298C320.853 194.224 322 191.942 322.009 188.696L323.387 187.898C323.378 191.143 322.23 193.427 320.379 194.5Z" fill="#0066FF"/>
<path d="M320.768 188.346L322.009 188.696C321.991 195.23 317.361 197.862 311.662 194.58L311.348 193.701C316.536 196.688 320.751 194.292 320.768 188.345L320.768 188.346Z" fill="#1F79FF"/>
<path d="M322.262 99.9079L323.639 99.11L323.387 187.898L322.009 188.696L322.262 99.9079Z" fill="#0066FF"/>
<path d="M321.021 99.5574L322.262 99.9079L322.009 188.696L320.769 188.346L321.021 99.5574Z" fill="#1F79FF"/>
<path d="M186.389 11.2215L186.707 9.97733L311.982 82.1414L311.662 83.3861L186.389 11.2215Z" fill="#1F79FF"/>
<path d="M186.707 9.97731L188.084 9.17822L313.358 81.3428L311.982 82.1413L186.707 9.97731Z" fill="#0066FF"/>
<path fill-rule="evenodd" clip-rule="evenodd" d="M315.563 194.987C314.294 194.987 312.863 194.574 311.348 193.701L232.865 148.49L300.879 187.669L300.666 112.763C300.734 112.794 300.794 112.809 300.847 112.809C302.003 112.81 299.342 105.343 296.008 97.1346L295.969 86.8174L290.155 83.4461C288.189 79.0678 286.696 75.9869 286.509 75.9869C286.505 75.9869 286.502 75.9887 286.498 75.9912L192.866 21.6987L192.881 27.0427L188.25 24.3575L188.598 117.811L193.146 120.448L193.147 120.86L189.94 123.762L186.076 121.536C180.895 118.553 176.701 111.31 176.718 105.365L176.97 16.5763C176.982 12.369 179.102 9.93781 182.18 9.93781C183.448 9.93781 184.878 10.35 186.389 11.2213L311.663 83.3858C316.848 86.3723 321.038 93.6169 321.02 99.5572L320.768 188.345C320.756 192.555 318.64 194.987 315.564 194.987L315.563 194.987Z" fill="url(#paint11_linear_59_1005)"/>
<path d="M286.499 75.9912L192.866 21.6988L193.161 125.617L300.879 187.669L300.666 112.762C302.409 113.559 298.864 103.979 294.883 94.3976C291.012 85.0787 286.729 75.7598 286.499 75.991V75.9912Z" fill="#1F79FF"/>
<path d="M311.663 83.3861L311.982 82.1414C317.68 85.4248 322.281 93.3812 322.263 99.9078L321.021 99.5574C321.038 93.618 316.849 86.3733 311.663 83.3861H311.663Z" fill="#1F79FF"/>
<path d="M311.981 82.1413L313.358 81.3428C319.057 84.6262 323.658 92.5826 323.639 99.11L322.262 99.9078C322.28 93.381 317.68 85.4245 311.981 82.1413Z" fill="#0066FF"/>
<path d="M211.135 129.929C211.501 129.187 211.709 128.6 211.701 128.172L211.135 129.929Z" fill="#52586C"/>
<path fill-rule="evenodd" clip-rule="evenodd" d="M296.317 180.269L237.201 145.992L251.917 137.515C258.976 133.499 258.976 120.395 251.917 108.246C246.26 98.5097 237.787 92.3424 231.01 92.3424C229.331 92.3424 227.755 92.7209 226.353 93.5187L203.104 106.911C200.84 108.199 199.301 110.423 198.49 113.25C197.766 114.438 197.257 115.843 196.961 117.408L193.424 120.609L193.146 120.448L188.598 117.81L188.25 24.3573L192.881 27.0424L290.155 83.4456L295.969 86.8169L296.007 97.1341L296.317 180.269L296.317 180.269Z" fill="url(#paint12_linear_59_1005)"/>
<path d="M295.969 86.8174L188.25 24.3578L189.771 23.4818L297.491 85.9403L295.969 86.8174Z" fill="#E4E7ED"/>
<path d="M297.491 85.9403L297.838 179.394L296.317 180.269L295.969 86.8174L297.491 85.9403Z" fill="#E4E7ED"/>
<path d="M242.971 212.898C242.524 213.157 242.521 213.575 242.966 213.832L247.616 216.529C248.061 216.787 248.785 216.787 249.232 216.529L257.47 211.784C257.917 211.526 257.92 211.107 257.475 210.85L252.825 208.153C252.38 207.895 251.656 207.895 251.208 208.153L242.971 212.898Z" fill="#0E4AB6"/>
<path d="M242.966 213.832L243.962 214.411L251.208 210.235C251.656 209.978 252.38 209.978 252.825 210.235L256.479 212.354L257.47 211.784C257.917 211.526 257.92 211.107 257.475 210.85L252.825 208.153C252.38 207.895 251.656 207.895 251.208 208.153L242.971 212.898C242.523 213.157 242.521 213.575 242.966 213.832Z" fill="#888B90"/>
<path d="M196.346 315.049L175.868 303.253V295.143L196.346 306.939V315.049Z" fill="#6BA2D6"/>
<path d="M196.346 306.939V315.049L216.953 303.179V295.07L196.346 306.939Z" fill="#93BBE1"/>
<path d="M175.868 295.143L196.346 306.939L216.953 295.07L196.474 283.273L175.868 295.143Z" fill="#5493D2"/>
<path d="M196.346 305.669L175.868 293.873V285.764L196.346 297.56V305.669Z" fill="#6BA2D6"/>
<path d="M196.346 297.56V305.669L216.953 293.8V285.69L196.346 297.56Z" fill="#93BBE1"/>
<path d="M175.868 285.764L196.346 297.56L216.953 285.69L196.474 273.894L175.868 285.764Z" fill="#CEE0F2"/>
<path d="M187.986 285.743L196.384 290.581L204.836 285.712L196.437 280.874L187.986 285.743Z" fill="#EBF2F9"/>
<path d="M165.348 241.8C162.974 244.623 160.598 247.445 158.222 250.269L164.589 242.374C164.914 242.21 165.167 242.016 165.348 241.8Z" fill="#3D4359"/>
<path d="M158.222 250.269L155.515 239.547C155.692 240.245 156.328 240.986 157.396 241.616C159.609 242.924 162.829 243.263 164.59 242.374L158.222 250.269Z" fill="#464D62"/>
<path d="M171.98 225.797C169.853 230.994 167.726 236.192 165.6 241.389C165.444 241.771 165.109 242.112 164.589 242.374L170.441 227.297C171.233 226.898 171.741 226.379 171.98 225.797Z" fill="#464C61"/>
<path d="M171.606 222.735L171.651 222.894L171.672 222.974L171.717 223.135L171.761 223.295L171.782 223.375L171.827 223.535L171.87 223.695L171.892 223.775L171.937 223.935L171.98 224.096L172.002 224.176L172.046 224.336C172.366 225.496 171.851 226.585 170.441 227.297L170.166 225.39C171.431 224.751 171.892 223.776 171.607 222.735L171.606 222.735Z" fill="#626779"/>
<path fill-rule="evenodd" clip-rule="evenodd" d="M157.121 220.917C157.487 220.502 157.853 220.085 158.217 219.668C157.07 220.975 157.848 222.885 160.338 224.356C163.36 226.143 167.76 226.605 170.166 225.39L170.441 227.297C167.759 228.65 162.854 228.134 159.485 226.143C156.709 224.503 155.842 222.373 157.121 220.917Z" fill="url(#paint13_linear_59_1005)"/>
<path d="M186.76 155.507C186.822 155.792 186.884 156.078 186.946 156.363C187.162 157.357 186.688 158.279 185.474 158.893L185.368 157.899C186.515 157.318 186.965 156.446 186.76 155.507Z" fill="#90A09E"/>
<path d="M173.443 153.269L173.498 153.2L173.525 153.166L173.58 153.097L173.633 153.028L173.66 152.993L173.714 152.924L173.769 152.856L173.796 152.821L173.85 152.752L173.904 152.683L173.931 152.649L173.986 152.58C173.017 153.812 173.774 155.564 176.069 156.92C178.928 158.61 183.091 159.049 185.367 157.899L185.474 158.893C183.067 160.107 178.668 159.644 175.645 157.858C173.219 156.423 172.418 154.573 173.443 153.27L173.443 153.269Z" fill="#90A09E"/>
<path fill-rule="evenodd" clip-rule="evenodd" d="M185.885 145.294C186.535 146.372 187.186 147.45 187.836 148.529C188.581 149.766 188.263 151.001 186.783 151.748L185.291 147.112C186.128 146.69 186.306 145.993 185.885 145.294V145.294Z" fill="url(#paint14_linear_59_1005)"/>
<path fill-rule="evenodd" clip-rule="evenodd" d="M176.065 145.838C177.123 145.15 178.18 144.462 179.237 143.774C178.194 144.453 178.518 145.659 180.041 146.559C181.655 147.513 184.006 147.761 185.291 147.112L186.783 151.747C184.509 152.898 180.344 152.459 177.486 150.769C174.792 149.176 174.217 147.04 176.065 145.838V145.838Z" fill="url(#paint15_linear_59_1005)"/>
<path fill-rule="evenodd" clip-rule="evenodd" d="M185.291 147.112C184.006 147.761 181.655 147.513 180.041 146.559C178.426 145.605 178.159 144.305 179.444 143.656C180.729 143.007 183.08 143.255 184.696 144.209C186.31 145.164 186.576 146.462 185.291 147.112Z" fill="url(#paint16_linear_59_1005)"/>
<path d="M221.905 76.643C233.472 70.0629 252.224 80.865 263.79 100.77C275.356 120.675 275.356 142.144 263.79 148.723C252.224 155.303 233.472 144.502 221.905 124.596C210.34 104.692 210.34 83.2225 221.905 76.643ZM220.468 125.415C232.829 146.684 252.867 158.229 265.226 151.197C277.586 144.166 277.586 121.224 265.226 99.9532C252.867 78.6819 232.829 67.139 220.468 74.1705C208.109 81.2 208.109 104.143 220.468 125.415Z" fill="#8FBCFF"/>
<path d="M261.565 102.036C271.902 119.826 271.902 139.014 261.565 144.894C251.228 150.775 234.469 141.12 224.132 123.331C213.795 105.541 213.795 86.3528 224.132 80.473C234.469 74.5918 251.228 84.2467 261.565 102.036Z" fill="#62A1FF"/>
<path d="M257.117 104.573C265.465 118.94 265.465 134.436 257.117 139.185C248.767 143.935 235.232 136.137 226.885 121.77C218.537 107.403 218.537 91.9069 226.885 87.1577C235.233 82.4093 248.767 90.2059 257.117 104.573Z" fill="#7FB3FF"/>
<path fill-rule="evenodd" clip-rule="evenodd" d="M228.75 150.861C235.728 146.791 235.701 133.741 228.668 121.638C223.011 111.902 214.538 105.735 207.762 105.735C206.083 105.735 204.506 106.114 203.104 106.911L226.353 93.5187C227.755 92.7209 229.331 92.3423 231.01 92.3423C237.786 92.3423 246.26 98.5097 251.916 108.246C258.976 120.395 258.976 133.499 251.916 137.515L237.201 145.992L232.865 148.49L232.259 148.839L228.75 150.861H228.75Z" fill="url(#paint17_linear_59_1005)"/>
<path d="M228.669 121.638C235.729 133.788 235.729 146.891 228.669 150.908C221.61 154.924 210.165 148.33 203.104 136.182C196.045 124.032 196.045 110.928 203.104 106.911C210.164 102.896 221.609 109.489 228.669 121.638Z" fill="#3B4157"/>
<path d="M227.609 122.241C234.084 133.384 234.084 145.401 227.609 149.085C221.134 152.768 210.637 146.72 204.163 135.579C197.689 124.436 197.689 112.417 204.163 108.735C210.637 105.051 221.134 111.098 227.609 122.241Z" fill="#F0F4EF"/>
<path d="M201.508 110.264L204.163 108.735L230.654 138.946L227.61 149.085L224.954 150.615L201.508 110.264Z" fill="#F0F4EF"/>
<path d="M224.954 123.771C231.429 134.914 231.429 146.932 224.954 150.615C218.48 154.298 207.982 148.251 201.508 137.108C195.034 125.965 195.034 113.947 201.508 110.264C207.982 106.582 218.48 112.628 224.954 123.771Z" fill="#F0F4EF"/>
<path fill-rule="evenodd" clip-rule="evenodd" d="M151.106 216.723C151.105 216.722 151.105 216.722 151.105 216.722C147.936 214.79 144.464 212.619 143.984 212.22C143.088 211.454 132.416 199.193 131.631 196.208C130.863 193.221 133.376 158.689 134.24 153.581C134.991 149.154 137.421 148.865 138.045 148.865C138.139 148.865 138.191 148.872 138.191 148.872C138.191 148.872 138.288 145.6 140.224 144.145C142.16 142.709 181.122 131.741 181.122 131.741L181.829 131.101L189.469 124.189L189.94 123.763V123.762L193.147 120.86L193.425 120.609L196.962 117.409L199.327 115.268L199.336 115.269C200.632 114.152 202.271 113.56 204.145 113.56C206.079 113.56 208.262 114.191 210.576 115.526C218.254 119.948 224.522 130.458 224.924 139.361C223.246 140.238 221.694 141.02 219.887 141.93C217.824 142.984 219.199 142.761 215.888 144.357C214.671 144.932 211.235 143.715 207.763 147.738C206.101 149.683 204.966 151.565 204.197 153.352C204.196 153.352 204.194 153.352 204.191 153.352C203.819 153.339 203.434 153.332 203.036 153.332C200.113 153.332 196.545 153.709 193.108 155.057C190.979 155.892 188.971 158.244 187.177 161.223C186.318 159.776 184.261 159.537 183.528 152.524L180.303 166.862C178.606 160.901 176.106 159.23 176.106 159.23C176.106 159.23 173.208 165.611 172.726 165.611C172.402 165.611 171.7 164.472 171.392 162.99C173.946 159.395 181.534 151.015 181.534 151.015L181.804 150.11L185.762 136.839C185.762 136.839 182.673 135.807 179.146 135.807C178.642 135.807 178.128 135.829 177.614 135.877C173.498 136.261 155.559 142.866 155.559 142.866C152.64 144.323 151.005 146.441 149.808 149.173C149.643 149.502 133.472 181.612 133.183 186.878C133.037 189.557 134.349 190.535 135.718 190.535C135.973 190.535 136.228 190.501 136.478 190.438C135.945 194.745 137.983 197.226 142.732 204.007C147.849 211.313 150.658 215.921 151.099 216.653C151.102 216.677 151.104 216.699 151.108 216.722C151.108 216.722 151.108 216.723 151.108 216.724L151.106 216.723ZM138.198 148.867C135.979 154.351 133.172 180.815 133.172 180.815C133.172 180.815 138.777 152.138 138.198 148.867ZM177.338 186.472C177.279 186.272 177.216 186.052 177.137 185.815C177.101 185.681 177.062 185.541 177.02 185.396C177.064 185.539 177.104 185.677 177.144 185.808C177.215 186.048 177.28 186.27 177.338 186.472ZM205.138 169.754L205.174 169.599C205.185 169.562 205.195 169.525 205.205 169.489C205.226 169.423 205.247 169.353 205.267 169.281C205.241 169.375 205.216 169.469 205.203 169.562L205.138 169.754ZM205.548 168.088C205.549 168.086 205.549 168.083 205.55 168.08C205.552 168.074 205.554 168.067 205.555 168.061L205.619 167.822L205.555 168.062C205.553 168.07 205.55 168.079 205.548 168.088ZM205.983 166.525C206.423 165.162 206.999 163.915 207.595 162.768C206.997 164.008 206.408 165.241 205.983 166.525ZM218.695 150.26C219.546 149.929 219.779 149.875 220.048 149.784L220.096 149.768C220.147 149.743 220.189 149.726 220.217 149.716C220.192 149.728 220.153 149.746 220.101 149.77C219.771 149.915 219.425 150.032 219.07 150.126C218.929 150.176 218.806 150.22 218.695 150.26V150.26ZM220.264 149.696L220.271 149.688C221.424 149.145 222.403 148.295 223.162 147.162C222.403 148.297 221.426 149.149 220.275 149.692L220.264 149.696L220.264 149.696ZM224.939 139.923C224.936 139.794 224.931 139.665 224.929 139.535C224.933 139.664 224.937 139.794 224.939 139.923Z" fill="url(#paint18_linear_59_1005)"/>
<path fill-rule="evenodd" clip-rule="evenodd" d="M151.098 216.653C150.657 215.921 147.848 211.313 142.731 204.007C137.982 197.226 135.944 194.745 136.477 190.438C136.789 190.359 137.09 190.235 137.362 190.075C138.128 192.493 139.972 195.081 141.411 197.398C143.406 200.605 149.643 210.294 150.477 213.18C150.753 214.137 150.945 215.355 151.098 216.653H151.098Z" fill="url(#paint19_linear_59_1005)"/>
<path fill-rule="evenodd" clip-rule="evenodd" d="M136.477 190.438C136.572 189.674 136.748 188.851 137.003 187.937C136.997 188.626 137.13 189.342 137.362 190.075C137.09 190.235 136.789 190.359 136.477 190.438Z" fill="url(#paint20_linear_59_1005)"/>
<path fill-rule="evenodd" clip-rule="evenodd" d="M166.294 230.886C164.887 230.592 163.733 229.298 162.986 227.568C162.708 226.922 162.486 226.216 162.329 225.478C166.198 218.695 176.491 199.981 180.33 186.439C180.967 184.194 181.422 182.094 181.646 180.21C183.489 176.257 186.392 169.611 187.289 165.131C187.733 162.921 187.598 161.928 187.177 161.223C188.971 158.244 190.978 155.892 193.108 155.057C196.544 153.709 200.112 153.332 203.035 153.332C203.434 153.332 203.819 153.339 204.191 153.352C204.194 153.352 204.195 153.352 204.197 153.352C204.196 153.354 204.195 153.356 204.195 153.358C200.995 160.782 203.907 166.864 199.666 171.095C196.515 174.24 196.37 175.788 195.651 178.327V178.342C195.155 180.035 194.419 182.206 192.338 185.591C187.137 194.051 183.33 206.631 183.458 210.48C183.551 213.297 182.016 215.079 180.112 215.079C179.415 215.079 178.669 214.841 177.937 214.328C176.952 213.644 176.06 213.187 175.15 213.187C173.534 213.187 171.86 214.629 169.505 218.798V228.333C169.502 228.336 169.5 228.339 169.496 228.342C168.231 229.716 167.078 230.702 166.294 230.886V230.886ZM171.697 225.73C173.739 223.116 175.713 220.138 176.642 218.366C181.494 215.843 184.607 214.275 186.746 211.569C186.013 212.499 185.165 213.296 184.172 214.042C182.27 215.471 179.835 216.719 176.65 218.376C175.783 220.013 174.018 222.701 172.131 225.169C171.986 225.357 171.841 225.544 171.697 225.73V225.73ZM162.082 223.722C162.052 223.277 162.046 222.828 162.065 222.382C162.065 222.382 162.066 222.381 162.066 222.38C162.047 222.825 162.052 223.275 162.082 223.722ZM163.205 217.591C163.205 217.589 163.205 217.588 163.206 217.587C163.569 216.576 164.014 215.445 164.516 214.254C164.014 215.445 163.568 216.58 163.205 217.591ZM189.505 206.54C191.679 201.954 195.659 193.335 199.117 185.292C197.528 188.992 195.826 192.816 194.241 196.311C192.382 200.413 190.681 204.064 189.505 206.54L189.505 206.54ZM205.174 169.598L205.187 169.546C205.193 169.528 205.2 169.509 205.205 169.489C205.195 169.525 205.185 169.562 205.174 169.598ZM205.485 168.36C205.506 168.267 205.527 168.174 205.55 168.08C205.549 168.083 205.549 168.085 205.548 168.088C205.528 168.179 205.506 168.269 205.485 168.36Z" fill="url(#paint21_linear_59_1005)"/>
<path d="M162.329 225.479C162.313 225.408 162.298 225.337 162.285 225.265C162.298 225.337 162.313 225.408 162.329 225.479Z" fill="#5D5056"/>
<path fill-rule="evenodd" clip-rule="evenodd" d="M162.285 225.264C162.186 224.764 162.119 224.25 162.083 223.733C162.118 224.25 162.187 224.763 162.285 225.264ZM162.083 223.73C162.083 223.728 162.082 223.725 162.082 223.722C162.082 223.725 162.083 223.727 162.083 223.73ZM164.516 214.254C166.801 208.842 170.281 202.24 172.725 200.543C170.283 202.241 166.802 208.843 164.516 214.254ZM177.409 186.712C177.386 186.636 177.362 186.555 177.338 186.472C177.363 186.554 177.386 186.633 177.41 186.708V186.709L177.409 186.712H177.409Z" fill="url(#paint22_linear_59_1005)"/>
<path fill-rule="evenodd" clip-rule="evenodd" d="M169.899 167.777C169.581 167.394 169.271 167.116 168.976 166.966C168.977 166.964 168.978 166.962 168.98 166.962C169.274 167.111 169.582 167.389 169.9 167.772L169.899 167.777Z" fill="url(#paint23_linear_59_1005)"/>
<path fill-rule="evenodd" clip-rule="evenodd" d="M177.41 186.709V186.708C177.387 186.633 177.363 186.554 177.338 186.472C177.279 186.27 177.214 186.048 177.144 185.808C177.105 185.677 177.064 185.539 177.02 185.396C176.876 184.896 176.7 184.328 176.513 183.722C176.033 182.173 175.425 180.305 174.769 178.39C173.291 174.165 171.48 169.675 169.9 167.772C169.582 167.389 169.274 167.111 168.98 166.962C169.856 165.913 170.261 165.259 170.604 164.294C170.7 164.021 170.982 163.567 171.391 162.99C171.699 164.472 172.402 165.611 172.726 165.611C173.208 165.611 176.105 159.23 176.105 159.23C176.105 159.23 178.606 160.901 180.302 166.862L183.528 152.524C184.261 159.537 186.317 159.776 187.177 161.223C184.901 165.006 182.964 169.807 181.56 173.814C179.997 178.271 179.09 181.743 179.09 181.743L177.41 186.709L177.41 186.709Z" fill="url(#paint24_linear_59_1005)"/>
<path fill-rule="evenodd" clip-rule="evenodd" d="M162.328 225.478C162.313 225.407 162.298 225.336 162.285 225.265C162.187 224.764 162.118 224.251 162.083 223.733C162.083 223.732 162.083 223.731 162.083 223.731C162.083 223.728 162.082 223.725 162.082 223.722C162.052 223.275 162.046 222.825 162.065 222.38C162.413 221.694 162.922 220.055 163.204 217.591C163.568 216.58 164.013 215.445 164.516 214.254C166.802 208.843 170.283 202.241 172.725 200.543L177.409 186.712L177.41 186.709L179.09 181.743C179.09 181.743 179.997 178.271 181.56 173.814C182.964 169.807 184.901 165.006 187.177 161.223C187.598 161.928 187.732 162.921 187.288 165.131C186.391 169.611 183.489 176.257 181.646 180.21C181.422 182.094 180.967 184.194 180.329 186.439C176.491 199.981 166.198 218.695 162.328 225.478H162.328Z" fill="url(#paint25_linear_59_1005)"/>
<path d="M170.438 227.281L170.438 227.276C170.855 226.785 171.277 226.265 171.696 225.73C171.277 226.267 170.855 226.788 170.438 227.281Z" fill="#616372"/>
<path fill-rule="evenodd" clip-rule="evenodd" d="M169.505 228.344V228.333C169.8 228.012 170.1 227.672 170.404 227.315C170.407 227.314 170.409 227.313 170.412 227.312C170.106 227.673 169.803 228.02 169.505 228.344H169.505Z" fill="url(#paint26_linear_59_1005)"/>
<path fill-rule="evenodd" clip-rule="evenodd" d="M186.747 211.569C187.271 210.902 187.738 210.167 188.157 209.331C188.433 208.779 188.9 207.816 189.505 206.54C188.902 207.815 188.437 208.778 188.162 209.331C187.742 210.167 187.273 210.902 186.747 211.569ZM201.608 179.357C203.136 175.608 204.383 172.301 205.052 170.023C205.06 170.003 205.067 169.982 205.075 169.961C204.41 172.242 203.154 175.573 201.611 179.355L201.608 179.357H201.608Z" fill="url(#paint27_linear_59_1005)"/>
<path fill-rule="evenodd" clip-rule="evenodd" d="M199.117 185.292C199.994 183.25 200.836 181.248 201.608 179.357L201.61 179.355C200.838 181.246 199.994 183.251 199.117 185.292Z" fill="url(#paint28_linear_59_1005)"/>
<path fill-rule="evenodd" clip-rule="evenodd" d="M215.708 151.502L215.702 151.499C216.148 151.303 216.496 151.15 216.778 151.027C216.786 151.03 216.793 151.032 216.801 151.035C216.475 151.173 216.112 151.327 215.708 151.502Z" fill="url(#paint29_linear_59_1005)"/>
<path d="M216.801 151.035C216.793 151.032 216.786 151.03 216.778 151.027C217.735 150.608 217.94 150.53 218.695 150.26C218.256 150.431 217.656 150.674 216.802 151.035H216.801ZM220.217 149.716C220.238 149.706 220.249 149.701 220.249 149.701L220.264 149.696L220.255 149.705C220.255 149.705 220.241 149.708 220.217 149.716V149.716ZM223.162 147.162C224.297 145.463 224.942 143.129 224.942 140.249C224.942 140.14 224.941 140.031 224.938 139.922C224.941 140.031 224.944 140.141 224.944 140.253C224.944 143.134 224.299 145.465 223.162 147.162ZM224.93 139.535C224.928 139.478 224.926 139.421 224.924 139.363C224.924 139.362 224.924 139.362 224.924 139.361C224.926 139.36 224.927 139.36 224.928 139.359C224.928 139.418 224.929 139.477 224.93 139.535Z" fill="#EDE9E1"/>
<path fill-rule="evenodd" clip-rule="evenodd" d="M169.505 228.333V218.798C171.86 214.629 173.533 213.187 175.15 213.187C176.06 213.187 176.952 213.643 177.937 214.328C178.669 214.84 179.415 215.078 180.111 215.078C182.015 215.078 183.551 213.297 183.457 210.48C183.33 206.631 187.136 194.051 192.338 185.591C194.418 182.206 195.155 180.035 195.65 178.342V178.327C196.37 175.787 196.515 174.24 199.666 171.094C203.907 166.863 200.994 160.781 204.194 153.358C204.195 153.356 204.196 153.353 204.197 153.352C207.275 153.462 211.641 154.929 211.709 154.961L211.714 154.962L211.708 154.965C211.607 155.157 207.316 160.638 205.552 168.071C205.552 168.073 205.551 168.076 205.55 168.08C205.526 168.174 205.505 168.267 205.484 168.36L205.483 168.361C205.449 168.508 205.414 168.657 205.379 168.806C205.348 168.94 205.313 169.079 205.279 169.222C205.255 169.309 205.231 169.398 205.205 169.489C205.2 169.509 205.193 169.528 205.187 169.546L205.174 169.599C205.141 169.716 205.107 169.835 205.07 169.957C205.064 169.979 205.057 170.002 205.051 170.024C204.383 172.301 203.136 175.608 201.608 179.357C200.836 181.249 199.994 183.25 199.117 185.292C195.659 193.336 191.678 201.954 189.505 206.54C188.9 207.816 188.433 208.779 188.157 209.331C187.738 210.167 187.271 210.902 186.746 211.569C184.607 214.275 181.494 215.843 176.642 218.366C175.712 220.138 173.738 223.116 171.697 225.73C171.277 226.265 170.855 226.785 170.438 227.276C170.427 227.289 170.415 227.303 170.404 227.315C170.1 227.672 169.8 228.012 169.505 228.333H169.505Z" fill="url(#paint30_linear_59_1005)"/>
<path d="M176.649 218.378C175.233 216.452 169.819 217.639 169.497 218.794C169.176 219.948 166.347 223.733 166.025 226.107C165.704 228.481 166.491 230.485 167.486 230.236C169.061 230.662 176.649 219.26 176.649 218.377V218.378Z" fill="#FFB9A0"/>
<path fill-rule="evenodd" clip-rule="evenodd" d="M155.311 226.862C153.334 226.862 152.183 226.144 151.828 224.024C151.531 222.237 151.403 219.324 151.106 216.723C151.106 216.722 151.106 216.722 151.106 216.722C151.104 216.699 151.101 216.676 151.098 216.653C150.945 215.355 150.753 214.137 150.478 213.18C149.643 210.294 143.406 200.604 141.412 197.398C139.972 195.081 138.128 192.493 137.362 190.075C137.13 189.342 136.997 188.626 137.004 187.937C137.005 187.753 137.017 187.57 137.04 187.39C137.426 184.311 145.654 162.882 147.456 156.47C148.236 153.694 148.895 151.255 149.807 149.173C151.004 146.441 152.639 144.323 155.558 142.866C155.558 142.866 173.497 136.261 177.613 135.877C178.127 135.828 178.641 135.807 179.145 135.807C182.672 135.807 185.761 136.839 185.761 136.839L181.803 150.11V141.885C181.414 141.803 181.067 141.763 180.758 141.763C177.99 141.763 178.151 144.916 176.649 149.171C174.974 153.902 166.745 151.858 163.401 161.731C162.61 164.067 161.546 166.684 160.379 169.349C158.405 173.868 156.144 178.513 154.443 182.152C152.907 185.43 151.827 187.882 151.827 188.671C151.827 189.626 153.301 192.101 155.041 195.227C157.274 199.23 159.952 204.303 160.558 208.645C160.626 209.133 160.77 209.362 160.982 209.362C161.383 209.362 162.025 208.529 162.838 207.079C162.645 205.858 162.39 204.576 162.065 203.237C159.512 192.651 157.44 189.233 157.44 189.233C157.44 189.233 159.42 192.501 161.896 202.54C161.953 202.769 162.009 203.001 162.065 203.237C162.39 204.576 162.645 205.858 162.838 207.079C163.536 211.414 163.501 214.965 163.205 217.586C163.204 217.587 163.204 217.589 163.204 217.591C162.784 218.754 162.475 219.754 162.309 220.493C162.17 221.105 162.093 221.74 162.065 222.379C162.065 222.38 162.065 222.381 162.065 222.381C161.719 223.069 161.331 223.867 160.769 224.596C160.364 225.12 159.868 225.607 159.232 225.989C158.651 226.337 157.954 226.597 157.101 226.717C156.807 226.759 156.524 226.791 156.254 226.816C155.922 226.846 155.607 226.861 155.311 226.861V226.862Z" fill="url(#paint31_linear_59_1005)"/>
<path fill-rule="evenodd" clip-rule="evenodd" d="M164.173 172.443C164.597 171.909 165.751 169.302 166.58 167.358C167.028 166.32 167.383 165.469 167.486 165.226C168.385 163.093 171.298 156.758 171.298 156.758C171.298 156.758 171.665 158.298 171.298 160.703C171.179 161.485 171.24 162.277 171.391 162.99C170.982 163.567 170.7 164.021 170.604 164.294C170.261 165.259 169.856 165.913 168.98 166.961C168.978 166.962 168.977 166.964 168.976 166.966C168.054 168.071 166.611 169.618 164.173 172.443V172.443Z" fill="url(#paint32_linear_59_1005)"/>
<path fill-rule="evenodd" clip-rule="evenodd" d="M157.359 219.981C156.233 215.746 153.581 215.746 152.665 215.506C151.749 215.266 151.379 215.205 151.13 216.943C150.881 218.681 152.311 225.66 152.858 226.863C153.404 228.064 154.65 227.953 156.105 227.294C157.56 226.636 157.712 226.428 157.937 224.889C158.163 223.348 157.359 219.981 157.359 219.981H157.359Z" fill="url(#paint33_linear_59_1005)"/>
<path d="M186.76 155.507C186.822 155.792 186.884 156.078 186.946 156.363C187.162 157.357 186.688 158.279 185.474 158.893L185.368 157.899C186.516 157.318 186.965 156.446 186.76 155.507Z" fill="#90A09E"/>
<path d="M173.443 153.269L173.498 153.2L173.525 153.166L173.58 153.097L173.633 153.028L173.66 152.993L173.714 152.924L173.769 152.856L173.796 152.821L173.85 152.752L173.904 152.683L173.931 152.649L173.986 152.58C173.017 153.812 173.774 155.564 176.069 156.92C178.928 158.61 183.091 159.049 185.367 157.899L185.474 158.893C183.067 160.107 178.668 159.644 175.645 157.858C173.219 156.423 172.418 154.573 173.443 153.27L173.443 153.269Z" fill="#90A09E"/>
<path fill-rule="evenodd" clip-rule="evenodd" d="M185.474 158.893C183.068 160.106 178.669 159.643 175.646 157.857C173.679 156.695 172.781 155.259 173.057 154.063L161.962 202.255C161.687 203.451 161.383 211.045 163.204 217.592C165.952 210.07 168.507 209.78 169.845 207.446C172.774 202.34 177.128 197.656 179.087 191.406L186.948 157.254C186.801 157.895 186.315 158.468 185.474 158.893V158.893Z" fill="url(#paint34_linear_59_1005)"/>
<path fill-rule="evenodd" clip-rule="evenodd" d="M187.835 148.529C187.185 147.45 186.535 146.372 185.885 145.293C186.306 145.992 186.127 146.689 185.291 147.112C184.006 147.761 181.655 147.513 180.04 146.559C178.518 145.659 178.193 144.453 179.238 143.774C178.18 144.462 177.123 145.15 176.064 145.838C174.216 147.04 174.791 149.176 177.487 150.769C180.344 152.459 184.507 152.898 186.783 151.748C188.263 151.001 188.581 149.765 187.835 148.529Z" fill="url(#paint35_linear_59_1005)"/>
<path d="M185.291 147.112C184.006 147.761 181.655 147.513 180.041 146.559C178.426 145.605 178.159 144.305 179.444 143.656C180.729 143.007 183.08 143.255 184.696 144.209C186.31 145.164 186.576 146.462 185.291 147.112Z" fill="#DCE1E0"/>
<path d="M110.63 351.387L131.237 339.517V331.407L110.63 343.278V351.387Z" fill="#93BBE1"/>
<path d="M110.63 351.387L90.1528 339.591V331.482L110.63 343.278V351.387Z" fill="#6BA2D6"/>
<path d="M110.63 351.387L90.1528 339.591V331.482L110.63 343.278V351.387Z" fill="#6BA2D6"/>
<path d="M110.63 343.278L131.237 331.407L110.759 319.611L90.1528 331.482L110.63 343.278Z" fill="#5493D2"/>
<path d="M110.63 342.007L131.237 330.137V322.027L110.63 333.899V342.007Z" fill="#93BBE1"/>
<path d="M110.63 342.007L90.1528 330.211V322.101L110.63 333.899V342.007Z" fill="#6BA2D6"/>
<path d="M110.63 342.007L90.1528 330.211V322.101L110.63 333.899V342.007Z" fill="#6BA2D6"/>
<path d="M110.63 333.899L131.237 322.027L110.759 310.231L90.1528 322.101L110.63 333.899Z" fill="#CEE0F2"/>
<path d="M102.27 322.08L110.669 326.918L119.121 322.05L110.722 317.211L102.27 322.08Z" fill="#EBF2F9"/>
<path d="M268.862 48.2043L274.192 45.135C284.276 52.7965 290.404 54.3197 294.93 55.5371C299.455 59.534 305.583 65.0712 315.668 69.0271V90.8558C315.668 99.662 312.183 104.082 308.073 106.233L302.747 109.3L303.042 107.857C298.711 108.564 294.931 107.724 294.931 107.724C294.927 107.72 274.192 88.4502 274.192 66.964V54.1374L268.862 48.2045V48.2043Z" fill="#A1BDFF"/>
<path d="M315.668 69.0271L310.34 72.0963L298.925 68.9881L289.601 58.6071L294.93 55.5371C299.455 59.534 305.583 65.0712 315.667 69.0271H315.668Z" fill="#B7CCFF"/>
<path d="M269.442 47.8701L274.192 45.135C284.276 52.7965 290.404 54.3197 294.93 55.5371L289.601 58.6071L278.187 58.5853L268.862 48.2045L269.442 47.8703L269.442 47.8701Z" fill="#A1BDFF"/>
<path d="M289.601 58.6071C294.127 62.603 300.255 68.1404 310.339 72.0963V93.9248C310.339 115.413 289.604 110.792 289.604 110.792C289.598 110.789 268.862 91.5202 268.862 70.0328V48.2043C278.947 55.8655 285.076 57.389 289.601 58.6071Z" fill="white"/>
<path d="M289.601 106.228C291.266 106.436 294.545 106.643 297.776 105.67C303.624 103.91 306.59 99.2318 306.59 91.7656V74.7815C305.213 74.1188 303.863 73.4061 302.551 72.6501C296.945 69.4221 292.744 65.8219 289.601 63.0514C286.459 62.2007 282.257 60.96 276.652 57.7313C275.339 56.975 273.99 56.1318 272.611 55.2087V72.1928C272.611 79.659 275.577 87.7524 281.425 96.2507C284.657 100.947 287.936 104.52 289.601 106.228V106.228Z" fill="#A1BDFF"/>
<path d="M290.933 105.46C289.268 103.751 285.989 100.179 282.758 95.4833C276.909 86.985 273.944 78.8916 273.944 71.4254V56.08C274.861 56.6671 275.765 57.2209 276.652 57.731C282.257 60.9598 286.459 62.2007 289.601 63.0512C292.744 65.8206 296.946 69.4218 302.551 72.6498C303.863 73.4059 305.213 74.1186 306.59 74.7812V91.7653C306.59 97.6139 304.762 101.743 301.163 104.108C300.523 104.418 299.839 104.682 299.109 104.903C295.878 105.875 292.599 105.669 290.933 105.46V105.46Z" fill="#00D158"/>
<path d="M292.025 95.1004L289.874 96.3484C289.969 96.2922 290.061 96.2287 290.15 96.158L292.302 94.9098C292.214 94.9817 292.122 95.0452 292.025 95.1004Z" fill="#C6C0D0"/>
<path d="M277.226 76.3918L279.377 75.1446C280.114 74.7169 281.089 74.8458 282.065 75.4089C282.963 75.9262 283.864 76.8114 284.584 77.9687L282.432 79.217C281.712 78.0596 280.811 77.1744 279.913 76.6569C278.936 76.094 277.962 75.9652 277.226 76.3918Z" fill="#D3E1FC"/>
<path d="M282.433 79.2167L284.584 77.9684L288.558 84.3718L286.406 85.619L282.433 79.2167Z" fill="#D3E1FC"/>
<path d="M301.101 87.2539L303.253 86.0064L292.302 94.9098L290.15 96.158L301.101 87.2539Z" fill="#D3E1FC"/>
<path d="M295.517 78.2328L297.67 76.9853C298.404 76.5587 299.381 76.685 300.363 77.2506L298.212 78.4986C297.229 77.9322 296.252 77.8069 295.517 78.2328Z" fill="#D3E1FC"/>
<path d="M298.212 78.4986L300.364 77.2506C301.208 77.737 302.057 78.5485 302.756 79.6162C304.366 82.0717 304.589 84.9311 303.253 86.0067L301.101 87.2541C302.437 86.1783 302.213 83.3197 300.605 80.8645C299.904 79.797 299.056 78.9845 298.212 78.4986Z" fill="#D3E1FC"/>
<path d="M298.212 78.4986C299.056 78.9845 299.905 79.7968 300.605 80.8645C302.213 83.3197 302.437 86.1783 301.102 87.2542L290.151 96.1583C289.262 96.8771 287.988 96.7735 286.708 96.0365C285.652 95.4283 284.593 94.3879 283.746 93.0209L277.369 82.7506C275.819 80.2627 275.702 77.4486 277.097 76.4743C277.847 75.9507 278.878 76.0606 279.914 76.6569C280.812 77.1744 281.712 78.0596 282.433 79.217L286.406 85.6193L295.287 78.3908C296.04 77.7846 297.123 77.8707 298.212 78.4989L298.212 78.4986Z" fill="white"/>
<path d="M92.3158 174.42L94.0386 175.419L93.8168 175.266L92.0938 174.268L92.3158 174.42Z" fill="#3689F5"/>
<path d="M108.534 152.403L106.81 151.404C106.22 151.061 105.44 151.165 104.658 151.615C103.939 152.03 103.217 152.738 102.641 153.665L104.364 154.663C104.941 153.737 105.662 153.029 106.381 152.614C107.163 152.163 107.943 152.061 108.534 152.403Z" fill="#3689F5"/>
<path d="M104.364 154.663L102.641 153.665L95.0913 165.83L96.8144 166.829L104.364 154.663Z" fill="#3689F5"/>
<path d="M89.6911 171.913L87.9678 170.915L92.094 174.268L93.8171 175.266L89.6911 171.913Z" fill="#3689F5"/>
<path d="M94.1606 164.69L92.4383 163.692C91.8495 163.35 91.0674 163.451 90.2812 163.904L92.0043 164.903C92.7905 164.45 93.5728 164.35 94.1606 164.69Z" fill="#3689F5"/>
<path d="M92.0046 164.904L90.2815 163.904C89.6045 164.294 88.9256 164.944 88.3653 165.799C87.0772 167.765 86.8978 170.053 87.9677 170.915L89.691 171.913C88.6211 171.053 88.7995 168.763 90.0886 166.797C90.6489 165.943 91.3285 165.293 92.0046 164.904Z" fill="#3689F5"/>
<path d="M92.0043 164.904C91.3283 165.293 90.6487 165.943 90.0884 166.797C88.7993 168.763 88.6206 171.053 89.6908 171.913L93.8167 175.266C94.528 175.843 95.5487 175.76 96.5734 175.17C97.4184 174.683 98.2665 173.85 98.9443 172.755L108.418 157.494C109.659 155.501 109.753 153.249 108.637 152.468C108.036 152.05 107.21 152.137 106.381 152.614C105.662 153.029 104.941 153.737 104.364 154.663L96.815 166.829L94.3456 164.817C93.7434 164.332 92.8763 164.401 92.0046 164.903L92.0043 164.904Z" fill="#8CD1FF"/>
<path fill-rule="evenodd" clip-rule="evenodd" d="M93.8171 148.477L92.094 147.478L87.9678 144.124L89.6911 145.124L93.8171 148.477Z" fill="url(#paint36_linear_59_1005)"/>
<path fill-rule="evenodd" clip-rule="evenodd" d="M94.9694 148.868C94.6293 148.868 94.3119 148.79 94.0314 148.626C93.9576 148.582 93.886 148.533 93.8168 148.477L89.6908 145.124C89.2203 144.746 88.9922 144.092 88.9922 143.31C88.9922 142.314 89.3662 141.11 90.0884 140.008C90.6488 139.153 91.3283 138.504 92.0044 138.113C92.2427 137.976 92.4812 137.871 92.7142 137.801C92.7149 137.801 92.7167 137.8 92.7177 137.8C92.7205 137.799 92.7223 137.798 92.724 137.798C92.9458 137.732 93.1626 137.699 93.3691 137.699C93.6475 137.699 93.9086 137.76 94.1398 137.889C94.2119 137.929 94.2799 137.975 94.3454 138.028L95.2589 138.772L96.8147 140.04L104.364 127.874C104.941 126.948 105.662 126.239 106.381 125.824C106.585 125.708 106.788 125.614 106.987 125.545C107.247 125.456 107.501 125.41 107.742 125.41C107.918 125.41 108.087 125.435 108.246 125.485C108.247 125.486 108.248 125.486 108.249 125.486C108.25 125.487 108.251 125.487 108.251 125.487C108.252 125.488 108.254 125.488 108.256 125.489C108.256 125.489 108.256 125.489 108.257 125.489C108.39 125.534 108.518 125.596 108.636 125.679C109.752 126.459 109.66 128.712 108.418 130.704L98.9441 145.965C98.2663 147.06 97.4184 147.892 96.5732 148.38C96.0207 148.698 95.4703 148.868 94.9691 148.868H94.9694Z" fill="url(#paint37_linear_59_1005)"/>
<path fill-rule="evenodd" clip-rule="evenodd" d="M93.8171 121.687L92.094 120.688L87.9678 117.335L89.6911 118.334L93.8171 121.687Z" fill="url(#paint38_linear_59_1005)"/>
<path fill-rule="evenodd" clip-rule="evenodd" d="M94.9694 122.079C94.6293 122.079 94.3119 122 94.0314 121.836C93.9568 121.792 93.886 121.743 93.8168 121.688L89.6908 118.334C89.2203 117.956 88.9922 117.302 88.9922 116.521C88.9922 115.524 89.3662 114.32 90.0884 113.218C90.6488 112.363 91.3283 111.713 92.0044 111.324C92.0589 111.292 92.1145 111.262 92.1691 111.234C92.5837 111.021 92.9923 110.908 93.3691 110.908C93.6467 110.908 93.9051 110.969 94.136 111.097C94.2088 111.137 94.2789 111.184 94.3451 111.237L95.2587 111.982L96.8145 113.25L104.364 101.084C104.941 100.157 105.662 99.4493 106.381 99.0343C106.849 98.7657 107.316 98.6204 107.742 98.6204C107.749 98.6204 107.757 98.6204 107.764 98.6204C107.764 98.6204 107.764 98.6204 107.765 98.6204C107.767 98.6204 107.77 98.6204 107.772 98.6204H107.773C107.774 98.6204 107.776 98.6204 107.778 98.6204C107.779 98.6204 107.78 98.6204 107.78 98.6204C107.781 98.6204 107.782 98.6204 107.784 98.6204C108.043 98.6267 108.287 98.6877 108.506 98.8085C108.55 98.833 108.594 98.8591 108.636 98.8893C109.752 99.6688 109.659 101.921 108.417 103.914L98.9436 119.175C98.2658 120.27 97.4179 121.103 96.5726 121.59C96.0202 121.908 95.4698 122.079 94.9686 122.079H94.9694Z" fill="url(#paint39_linear_59_1005)"/>
<path fill-rule="evenodd" clip-rule="evenodd" d="M93.8171 94.8981L92.094 93.8985L87.9678 90.5452L89.6911 91.5448L93.8171 94.8981Z" fill="url(#paint40_linear_59_1005)"/>
<path fill-rule="evenodd" clip-rule="evenodd" d="M94.9696 95.2893C94.6295 95.2893 94.3108 95.2103 94.0309 95.046C93.9571 95.0024 93.8863 94.9533 93.8172 94.8981L89.6913 91.5448C89.2208 91.1663 88.9927 90.512 88.9927 89.7301C88.9927 88.7336 89.3667 87.5299 90.0889 86.4277C90.6493 85.5737 91.3288 84.9237 92.0049 84.534C92.1394 84.4561 92.2751 84.389 92.4089 84.3325C92.7408 84.1917 93.0656 84.1183 93.3696 84.1183C93.648 84.1183 93.9081 84.1801 94.1393 84.309C94.2113 84.349 94.2804 84.395 94.3458 84.4477L95.2594 85.1921L96.8152 86.4601L104.364 74.2946C104.941 73.3676 105.663 72.6599 106.381 72.2447C106.85 71.9753 107.317 71.83 107.743 71.83C108.019 71.83 108.279 71.891 108.509 72.0188C108.553 72.0434 108.596 72.0695 108.637 72.0986C109.753 72.8792 109.66 75.1316 108.418 77.124L98.9446 92.3851C98.2668 93.4807 97.4189 94.3132 96.5736 94.8009C96.0212 95.1184 95.4708 95.2893 94.9696 95.2893Z" fill="url(#paint41_linear_59_1005)"/>
<path d="M253.336 349.754L273.942 337.885V329.775L253.336 341.645V349.754Z" fill="#93BBE1"/>
<path d="M253.336 349.754L232.858 337.958V329.849L253.336 341.645V349.754Z" fill="#6BA2D6"/>
<path d="M253.336 349.754L232.858 337.958V329.849L253.336 341.645V349.754Z" fill="#6BA2D6"/>
<path d="M253.336 341.645L273.942 329.775L253.464 317.978L232.858 329.849L253.336 341.645Z" fill="#5493D2"/>
<path d="M253.336 340.374L273.942 328.504V320.396L253.336 332.265V340.374Z" fill="#93BBE1"/>
<path d="M253.336 340.374L232.858 328.578V320.47L253.336 332.266V340.374Z" fill="#6BA2D6"/>
<path d="M253.336 340.374L232.858 328.578V320.47L253.336 332.266V340.374Z" fill="#6BA2D6"/>
<path d="M253.336 332.265L273.942 320.396L253.464 308.599L232.858 320.47L253.336 332.265Z" fill="#CEE0F2"/>
<path d="M244.975 320.448L253.374 325.286L261.826 320.417L253.426 315.579L244.975 320.448Z" fill="#EBF2F9"/>
<path d="M41.9854 311.844L62.5918 299.973V291.864L41.9854 303.734V311.844Z" fill="#93BBE1"/>
<path d="M41.9854 311.844L21.5073 300.048V291.938L41.9854 303.734V311.844Z" fill="#6BA2D6"/>
<path d="M41.9854 303.734L62.5918 291.864L42.1138 280.067L21.5073 291.938L41.9854 303.734Z" fill="#5493D2"/>
<path d="M41.9854 302.464L62.5918 290.594V282.484L41.9854 294.354V302.464Z" fill="#93BBE1"/>
<path d="M41.9854 302.464L21.5073 290.668V282.558L41.9854 294.354V302.464Z" fill="#6BA2D6"/>
<path d="M41.9854 294.354L62.5918 282.484L42.1138 270.688L21.5073 282.558L41.9854 294.354Z" fill="#CEE0F2"/>
<path d="M41.9984 291.901L58.3195 282.499L42.1007 273.156L25.7793 282.558L41.9984 291.901Z" fill="#5493D2"/>
<path d="M41.9985 288.163L58.3197 278.76V270.651L41.9985 280.052V288.163Z" fill="#93BBE1"/>
<path d="M41.9984 288.163L25.7793 278.82V270.71L41.9984 280.052V288.163Z" fill="#6BA2D6"/>
<path d="M41.9984 280.053L58.3195 270.651L42.1007 261.308L25.7793 270.71L41.9984 280.053Z" fill="#CEE0F2"/>
<path d="M35.376 270.722L42.0284 274.554L48.723 270.698L42.0703 266.866L35.376 270.722Z" fill="#EBF2F9"/>
<path d="M61.2673 311.512L55.9005 308.419C55.2681 308.055 54.8961 307.504 55.0745 307.197C55.2526 306.888 55.916 306.935 56.5491 307.298L61.9162 310.391C62.5484 310.754 62.9204 311.305 62.7422 311.613C62.5638 311.922 61.8997 311.876 61.2673 311.512Z" fill="#6AAEDE"/>
<path d="M73.9853 318.837L68.6185 315.745C67.9851 315.38 67.6141 314.831 67.7922 314.523C67.9706 314.214 68.6339 314.26 69.2671 314.624L74.634 317.716C75.2663 318.081 75.6374 318.631 75.4602 318.939C75.2811 319.248 74.6177 319.201 73.9853 318.837Z" fill="#6AAEDE"/>
<path d="M86.7031 326.163L81.336 323.072C80.7028 322.707 80.3318 322.157 80.51 321.848C80.6884 321.541 81.3515 321.587 81.9849 321.951L87.3517 325.042C87.9841 325.407 88.3551 325.957 88.1777 326.265C87.9986 326.574 87.3355 326.528 86.7031 326.163Z" fill="#6AAEDE"/>
<path d="M200.944 234.711L195.576 231.62C194.944 231.256 194.573 230.705 194.75 230.397C194.93 230.089 195.593 230.134 196.225 230.5L201.593 233.591C202.224 233.955 202.597 234.505 202.418 234.814C202.24 235.121 201.576 235.075 200.944 234.711Z" fill="#6AAEDE"/>
<path d="M213.661 242.038L208.294 238.946C207.662 238.582 207.29 238.031 207.469 237.724C207.647 237.416 208.311 237.461 208.943 237.826L214.31 240.918C214.943 241.282 215.314 241.832 215.136 242.14C214.958 242.448 214.295 242.403 213.661 242.038Z" fill="#6AAEDE"/>
<path d="M226.379 249.364L221.012 246.272C220.38 245.908 220.009 245.358 220.186 245.05C220.366 244.741 221.029 244.787 221.661 245.151L227.028 248.243C227.661 248.608 228.032 249.158 227.854 249.466C227.676 249.774 227.012 249.728 226.379 249.364V249.364Z" fill="#6AAEDE"/>
<path d="M277.251 278.669L271.884 275.578C271.251 275.213 270.88 274.662 271.058 274.355C271.237 274.046 271.9 274.093 272.532 274.457L277.9 277.548C278.532 277.913 278.903 278.462 278.725 278.771C278.547 279.08 277.884 279.033 277.251 278.669Z" fill="#6AAEDE"/>
<path d="M289.968 285.995L284.601 282.904C283.969 282.539 283.598 281.989 283.776 281.681C283.954 281.372 284.618 281.418 285.25 281.783L290.617 284.875C291.25 285.239 291.621 285.79 291.444 286.097C291.265 286.405 290.601 286.359 289.968 285.995Z" fill="#6AAEDE"/>
<path d="M216.214 317.126L210.847 314.034C210.214 313.669 209.843 313.12 210.02 312.812C210.199 312.503 210.863 312.549 211.496 312.913L216.863 316.006C217.495 316.37 217.866 316.92 217.688 317.228C217.51 317.537 216.847 317.49 216.214 317.126V317.126Z" fill="#6AAEDE"/>
<path d="M228.932 324.452L223.565 321.361C222.932 320.997 222.561 320.446 222.74 320.137C222.917 319.831 223.581 319.876 224.213 320.241L229.58 323.332C230.213 323.696 230.585 324.247 230.407 324.555C230.227 324.863 229.565 324.818 228.932 324.453V324.452Z" fill="#6AAEDE"/>
<path d="M160.26 284.893L154.893 281.801C154.259 281.437 153.888 280.887 154.067 280.578C154.245 280.27 154.908 280.316 155.541 280.681L160.908 283.772C161.541 284.137 161.912 284.687 161.734 284.995C161.555 285.303 160.892 285.258 160.26 284.893Z" fill="#6AAEDE"/>
<path d="M172.977 292.22L167.61 289.127C166.977 288.763 166.606 288.212 166.784 287.905C166.963 287.597 167.626 287.643 168.259 288.007L173.626 291.098C174.259 291.463 174.63 292.013 174.452 292.321C174.273 292.629 173.61 292.584 172.977 292.22V292.22Z" fill="#6AAEDE"/>
<path d="M63.7472 271.859L69.114 268.768C69.7464 268.403 70.4105 268.356 70.5889 268.665C70.7663 268.973 70.395 269.524 69.7629 269.888L64.3958 272.979C63.7626 273.344 63.0993 273.39 62.9212 273.082C62.7428 272.773 63.1148 272.223 63.7472 271.859Z" fill="#6AAEDE"/>
<path d="M171.584 312.813L176.952 309.721C177.584 309.357 178.247 309.311 178.425 309.62C178.604 309.927 178.233 310.477 177.6 310.842L172.232 313.933C171.6 314.298 170.936 314.345 170.758 314.036C170.58 313.727 170.951 313.177 171.584 312.813Z" fill="#6AAEDE"/>
<path d="M158.866 320.139L164.234 317.047C164.866 316.684 165.53 316.637 165.708 316.946C165.887 317.255 165.515 317.803 164.882 318.169L159.515 321.26C158.882 321.624 158.219 321.67 158.041 321.362C157.863 321.054 158.235 320.504 158.866 320.139Z" fill="#6AAEDE"/>
<path d="M146.149 327.465L151.516 324.374C152.149 324.01 152.812 323.963 152.99 324.271C153.169 324.58 152.797 325.13 152.165 325.495L146.797 328.587C146.164 328.95 145.501 328.997 145.323 328.688C145.145 328.38 145.517 327.829 146.149 327.465Z" fill="#6AAEDE"/>
<path d="M133.431 334.792L138.798 331.7C139.431 331.335 140.094 331.29 140.273 331.598C140.451 331.906 140.08 332.456 139.446 332.82L134.079 335.912C133.446 336.277 132.783 336.323 132.605 336.014C132.426 335.707 132.798 335.156 133.431 334.792Z" fill="#6AAEDE"/>
<path d="M140.766 339.144L134.568 339.123C133.839 339.122 133.242 338.828 133.243 338.472C133.243 338.116 133.843 337.827 134.573 337.83L140.77 337.85C141.501 337.852 142.098 338.145 142.096 338.501C142.095 338.857 141.496 339.146 140.766 339.144Z" fill="#6AAEDE"/>
<path d="M155.451 339.192L149.254 339.172C148.523 339.169 147.926 338.875 147.927 338.52C147.929 338.164 148.528 337.875 149.257 337.877L155.455 337.898C156.185 337.901 156.782 338.193 156.781 338.55C156.78 338.904 156.182 339.194 155.451 339.192Z" fill="#6AAEDE"/>
<path d="M170.137 339.24L163.939 339.22C163.208 339.217 162.613 338.925 162.613 338.568C162.614 338.213 163.213 337.923 163.944 337.925L170.141 337.946C170.872 337.949 171.467 338.242 171.467 338.597C171.466 338.953 170.867 339.243 170.137 339.24Z" fill="#6AAEDE"/>
<path d="M184.822 339.288L178.624 339.268C177.894 339.266 177.297 338.972 177.299 338.617C177.3 338.26 177.898 337.972 178.629 337.974L184.826 337.994C185.556 337.996 186.153 338.29 186.152 338.645C186.15 339.002 185.553 339.29 184.822 339.288Z" fill="#6AAEDE"/>
<path d="M199.507 339.337L193.31 339.316C192.58 339.313 191.982 339.02 191.984 338.665C191.985 338.31 192.583 338.02 193.314 338.022L199.512 338.042C200.241 338.045 200.839 338.337 200.837 338.694C200.836 339.049 200.238 339.34 199.507 339.337Z" fill="#6AAEDE"/>
<path d="M214.192 339.385L207.995 339.364C207.264 339.362 206.668 339.069 206.669 338.712C206.671 338.358 207.269 338.068 207.999 338.07L214.197 338.09C214.927 338.093 215.523 338.386 215.522 338.742C215.521 339.098 214.923 339.387 214.192 339.385Z" fill="#6AAEDE"/>
<path d="M228.878 339.433L222.68 339.413C221.95 339.41 221.354 339.117 221.354 338.761C221.355 338.404 221.954 338.116 222.684 338.118L228.882 338.139C229.613 338.141 230.209 338.434 230.208 338.79C230.206 339.146 229.608 339.434 228.878 339.433Z" fill="#6AAEDE"/>
<path d="M231.36 304.222L225.162 304.202C224.432 304.199 223.835 303.907 223.836 303.551C223.838 303.195 224.436 302.906 225.166 302.908L231.364 302.928C232.094 302.931 232.69 303.225 232.689 303.579C232.688 303.936 232.09 304.225 231.36 304.222Z" fill="#6AAEDE"/>
<path d="M246.045 304.27L239.847 304.251C239.117 304.249 238.521 303.954 238.521 303.6C238.523 303.244 239.121 302.954 239.852 302.957L246.049 302.977C246.78 302.98 247.376 303.272 247.375 303.628C247.374 303.985 246.775 304.273 246.045 304.27Z" fill="#6AAEDE"/>
<path d="M260.731 304.319L254.532 304.299C253.803 304.296 253.206 304.003 253.207 303.647C253.208 303.292 253.806 303.002 254.537 303.004L260.734 303.025C261.464 303.028 262.062 303.32 262.061 303.677C262.059 304.031 261.46 304.322 260.731 304.319Z" fill="#6AAEDE"/>
<path d="M275.414 304.366L269.218 304.347C268.487 304.345 267.89 304.051 267.892 303.695C267.893 303.34 268.492 303.05 269.222 303.053L275.419 303.074C276.15 303.076 276.746 303.369 276.745 303.725C276.744 304.08 276.145 304.369 275.414 304.366Z" fill="#6AAEDE"/>
<path d="M290.1 304.416L283.903 304.395C283.172 304.393 282.575 304.099 282.576 303.744C282.578 303.388 283.177 303.098 283.906 303.101L290.105 303.121C290.835 303.124 291.431 303.417 291.43 303.773C291.43 304.129 290.831 304.417 290.1 304.416Z" fill="#6AAEDE"/>
<path d="M66.8761 303.87L60.6787 303.849C59.9481 303.848 59.352 303.554 59.353 303.199C59.3538 302.842 59.9527 302.553 60.6822 302.556L66.8797 302.577C67.6103 302.578 68.2071 302.871 68.2064 303.227C68.2054 303.583 67.6067 303.872 66.8761 303.87Z" fill="#6AAEDE"/>
<path d="M81.5612 303.918L75.3638 303.898C74.6332 303.896 74.0371 303.602 74.0381 303.246C74.0388 302.891 74.6375 302.601 75.3681 302.604L81.5655 302.624C82.2961 302.626 82.8932 302.92 82.8912 303.275C82.8904 303.631 82.2918 303.92 81.5612 303.918Z" fill="#6AAEDE"/>
<path d="M96.247 303.967L90.0496 303.946C89.319 303.944 88.7221 303.651 88.7231 303.295C88.7249 302.939 89.3225 302.65 90.0531 302.652L96.2506 302.672C96.9812 302.675 97.578 302.968 97.5772 303.324C97.5755 303.68 96.9776 303.969 96.247 303.967Z" fill="#6AAEDE"/>
<path d="M110.932 304.015L104.734 303.995C104.004 303.992 103.407 303.698 103.409 303.343C103.409 302.987 104.008 302.698 104.739 302.7L110.936 302.721C111.667 302.724 112.263 303.016 112.262 303.373C112.26 303.727 111.662 304.017 110.932 304.015Z" fill="#6AAEDE"/>
<path d="M125.618 304.063L119.419 304.043C118.689 304.04 118.093 303.748 118.094 303.391C118.095 303.036 118.693 302.746 119.424 302.748L125.621 302.769C126.352 302.772 126.948 303.065 126.947 303.42C126.946 303.775 126.347 304.065 125.618 304.063Z" fill="#6AAEDE"/>
<path d="M140.302 304.111L134.105 304.091C133.374 304.089 132.778 303.796 132.779 303.44C132.78 303.083 133.378 302.795 134.109 302.797L140.307 302.817C141.037 302.819 141.633 303.113 141.633 303.468C141.631 303.825 141.032 304.113 140.302 304.111Z" fill="#6AAEDE"/>
<path d="M154.987 304.16L148.79 304.139C148.059 304.136 147.463 303.843 147.464 303.488C147.465 303.132 148.064 302.842 148.795 302.845L154.992 302.865C155.722 302.868 156.318 303.16 156.318 303.517C156.317 303.872 155.718 304.162 154.987 304.16Z" fill="#6AAEDE"/>
<path d="M169.672 304.208L163.475 304.187C162.745 304.184 162.148 303.892 162.149 303.535C162.15 303.181 162.749 302.891 163.479 302.893L169.677 302.913C170.406 302.916 171.004 303.209 171.002 303.565C171.001 303.92 170.403 304.21 169.672 304.208Z" fill="#6AAEDE"/>
<path d="M291.268 317.077L296.636 313.985C297.269 313.621 297.932 313.575 298.11 313.884C298.288 314.193 297.917 314.742 297.284 315.105L291.917 318.198C291.285 318.563 290.62 318.609 290.443 318.301C290.265 317.992 290.636 317.442 291.268 317.077V317.077Z" fill="#6AAEDE"/>
<path d="M278.551 324.404L283.918 321.311C284.551 320.947 285.214 320.901 285.392 321.21C285.57 321.517 285.198 322.068 284.567 322.433L279.199 325.524C278.567 325.888 277.903 325.935 277.724 325.626C277.546 325.317 277.918 324.768 278.551 324.404V324.404Z" fill="#6AAEDE"/>
<path d="M233.559 280.418L238.927 277.325C239.558 276.961 240.222 276.914 240.4 277.223C240.579 277.531 240.207 278.081 239.574 278.446L234.207 281.538C233.574 281.901 232.912 281.948 232.733 281.639C232.554 281.33 232.926 280.781 233.559 280.417V280.418Z" fill="#6AAEDE"/>
<path d="M220.84 287.743L226.208 284.651C226.841 284.286 227.504 284.241 227.682 284.549C227.861 284.858 227.489 285.408 226.856 285.771L221.489 288.863C220.857 289.228 220.193 289.274 220.015 288.966C219.837 288.658 220.208 288.107 220.84 287.743Z" fill="#6AAEDE"/>
<path d="M314.934 316.306L335.541 304.436V296.326L314.934 308.196V316.306Z" fill="#93BBE1"/>
<path d="M314.934 316.306L294.456 304.509V296.399L314.934 308.196V316.306Z" fill="#6BA2D6"/>
<path d="M314.934 308.196L335.541 296.326L315.062 284.53L294.456 296.399L314.934 308.196Z" fill="#5493D2"/>
<path d="M314.934 306.927L335.541 295.056V286.946L314.934 298.817V306.927Z" fill="#93BBE1"/>
<path d="M314.934 306.927L294.456 295.13V287.021L314.934 298.817V306.927Z" fill="#6BA2D6"/>
<path d="M314.934 298.817L335.541 286.946L315.062 275.15L294.456 287.021L314.934 298.817Z" fill="#CEE0F2"/>
<path d="M314.948 296.363L331.268 286.961L315.05 277.618L298.728 287.02L314.948 296.363Z" fill="#5493D2"/>
<path d="M314.948 292.625L331.268 283.223V275.114L314.948 284.515V292.625Z" fill="#93BBE1"/>
<path d="M314.948 292.625L298.728 283.282V275.172L314.948 284.515V292.625Z" fill="#6BA2D6"/>
<path d="M314.948 284.515L331.268 275.114L315.05 265.77L298.728 275.172L314.948 284.515Z" fill="#CEE0F2"/>
<path d="M308.325 275.184L314.978 279.017L321.672 275.16L315.019 271.327L308.325 275.184Z" fill="#EBF2F9"/>
<path d="M253.336 280.344L232.858 268.547V260.438L253.336 272.234V280.344Z" fill="#6BA2D6"/>
<path d="M253.336 272.234V280.344L273.942 268.473V260.364L253.336 272.234Z" fill="#93BBE1"/>
<path d="M232.858 260.438L253.336 272.234L273.942 260.364L253.464 248.568L232.858 260.438Z" fill="#5493D2"/>
<path d="M253.336 270.964L232.858 259.167V251.059L253.336 262.855V270.964Z" fill="#6BA2D6"/>
<path d="M253.336 262.855V270.964L273.942 259.094V250.985L253.336 262.855Z" fill="#93BBE1"/>
<path d="M232.858 251.059L253.336 262.855L273.942 250.985L253.464 239.188L232.858 251.059Z" fill="#CEE0F2"/>
<path d="M244.975 251.037L253.374 255.875L261.826 251.007L253.426 246.168L244.975 251.037Z" fill="#EBF2F9"/>
<path d="M71.2539 103.001L3.31934 142.135L4.96297 145.014L34.2469 147.963L40.3264 144.46L69.6098 107.774L71.2539 103.001Z" fill="#FF7200"/>
<path d="M10.4146 144.927V155.382L22.8226 148.732L19.8818 137.609L10.4146 144.927Z" fill="#93BBE1"/>
<path d="M33.0367 94.6811L39.1169 91.1779L71.2539 103.002L3.31934 142.136L33.0367 94.6811Z" fill="#E06800"/>
<path fill-rule="evenodd" clip-rule="evenodd" d="M39.1266 203.596V203.568H38.9652C38.7711 203.531 38.5815 203.481 38.3988 203.419V203.387H38.3064C38.2453 203.365 38.1851 203.341 38.126 203.316V203.296H38.0793C38.0337 203.276 37.9885 203.255 37.9438 203.234V203.205H37.8865C37.8299 203.177 37.7743 203.147 37.7203 203.115L35.7071 201.956C35.3988 201.778 35.141 201.565 34.9415 201.326V201.299H34.9194C34.8958 201.27 34.8728 201.24 34.8509 201.21V201.208H34.8492C34.6639 200.956 34.5413 200.679 34.487 200.388V200.3H34.4728C34.4612 200.217 34.4556 200.132 34.4556 200.047C34.4556 199.948 34.4632 199.851 34.4787 199.756H34.487V199.708C34.5073 199.6 34.5373 199.495 34.5769 199.393H34.5779V199.39C34.6012 199.329 34.6286 199.269 34.6586 199.211H34.669V199.191C34.8119 198.922 35.0237 198.682 35.2958 198.485H35.3062V198.478C35.3729 198.43 35.4432 198.385 35.5166 198.342L42.6755 194.218L66.7766 180.334L66.7849 180.33C66.841 180.298 66.8984 180.268 66.9578 180.239H66.9669V180.235C67.0319 180.204 67.0986 180.175 67.1671 180.149H67.2402V180.121C67.4275 180.054 67.6264 180.002 67.8355 179.967H67.968V179.947C68.1403 179.923 68.3187 179.911 68.5019 179.91H68.5331C68.7098 179.91 68.8859 179.92 69.0597 179.94V179.967H69.2546C69.501 180.006 69.741 180.065 69.9694 180.143V180.149H69.9849C70.0413 180.168 70.0966 180.189 70.1511 180.21V180.239H70.224C70.3686 180.3 70.5079 180.368 70.6399 180.445L72.6533 181.604C72.6999 181.631 72.7454 181.659 72.7898 181.687V181.692H72.7964C72.9258 181.775 73.0453 181.866 73.1537 181.962V181.964H73.1557C73.1862 181.991 73.2159 182.019 73.2448 182.047V182.055H73.2529C73.2816 182.083 73.3095 182.111 73.3359 182.14V182.145H73.341C73.4435 182.257 73.5328 182.374 73.6087 182.497V182.508H73.6158C73.646 182.558 73.6739 182.608 73.6995 182.66V182.69H73.7145C73.7432 182.75 73.7683 182.81 73.7906 182.871V182.871C73.8322 182.985 73.8627 183.102 73.8815 183.221V183.325H73.8949C73.9013 183.387 73.9046 183.45 73.9046 183.513C73.9046 183.572 73.9018 183.63 73.8962 183.689H73.8815V183.802C73.863 183.919 73.833 184.033 73.7924 184.142H73.7906V184.147C73.7683 184.207 73.7427 184.266 73.7137 184.324H73.6995V184.352C73.6724 184.404 73.6429 184.455 73.6107 184.505H73.6084V184.509C73.4283 184.788 73.1697 185.03 72.8443 185.218L41.5831 203.226C41.479 203.286 41.3694 203.339 41.2544 203.387H41.2199V203.401C41.1501 203.428 41.0783 203.454 41.0047 203.478H40.9469V203.495C40.8527 203.523 40.7558 203.547 40.6566 203.568H40.583V203.583C40.3523 203.625 40.11 203.648 39.8585 203.65H39.8273C39.5913 203.65 39.3565 203.632 39.1271 203.596H39.1266Z" fill="url(#paint42_linear_59_1005)"/>
<path d="M69.6098 107.774L40.3269 144.46H40.3264L34.2469 147.963H34.2464L4.96297 145.014L3.31934 142.136V142.135V187.695L71.2539 148.56V103.002L69.6098 107.774Z" fill="#FFA100"/>
<path d="M34.2469 147.963L40.3264 144.46L71.2539 148.56L3.31934 187.695L34.2469 147.963Z" fill="#FFAE00"/>
<path d="M42.9673 191.067L79.956 169.756L80.2517 169.585C81.1233 169.026 81.7301 168.063 81.7301 166.883L76.8893 169.678L44.4462 188.365C44.4462 189.545 43.839 190.509 42.9673 191.067Z" fill="#93BBE1"/>
<path d="M25.6558 154.262L35.884 148.36L35.8992 116.942C35.8992 116.724 35.884 116.507 35.853 116.289V116.274C35.7442 115.078 35.3232 113.96 34.623 112.997C34.4048 112.67 34.1404 112.36 33.8447 112.08C33.4395 111.676 32.9883 111.335 32.4904 111.04L32.1481 110.885C31.1828 110.326 30.0923 110.326 29.2054 110.745L28.6603 111.055C27.8511 111.614 27.306 112.546 27.306 113.665V151.218C27.306 152.553 26.6213 153.641 25.6558 154.262Z" fill="#93BBE1"/>
<path d="M10.4146 142.799V144.927L16.9074 141.183C16.5181 140.81 16.0981 140.5 15.615 140.22L15.2566 140.002C14.2137 139.412 13.0616 139.46 12.1432 139.941L12.0341 140.002C11.0845 140.546 10.4146 141.555 10.4146 142.799Z" fill="#93BBE1"/>
<path d="M29.2056 110.745C30.0925 110.325 31.1829 110.325 32.1482 110.885L32.4906 111.04C32.9884 111.335 33.4399 111.676 33.8449 112.08C34.1405 112.36 34.405 112.67 34.6232 112.997C35.3231 113.96 35.7443 115.079 35.8532 116.274V116.289C35.8841 116.507 35.8994 116.724 35.8994 116.942L35.8841 148.36L35.8222 185.04C35.8062 187.463 37.1147 189.716 39.2151 190.928L39.6043 191.16C40.6636 191.766 41.8469 191.704 42.78 191.176L42.9675 191.067C43.8392 190.509 44.4464 189.545 44.4464 188.365L76.8895 169.678L76.5 169.446C74.3983 168.233 73.1064 165.982 73.1064 163.558L73.1848 95.46C73.1848 93.0217 71.8918 90.785 69.7747 89.5732L69.4326 89.4025C68.3427 88.7652 67.1127 88.8589 66.1783 89.4334L66.0692 89.4952L29.2058 110.744L29.2056 110.745Z" fill="#EBF2F9"/>
<path d="M12.1436 139.942C13.0619 139.46 14.2143 139.412 15.257 140.002L15.6153 140.22C16.0982 140.5 16.5185 140.81 16.9077 141.184C18.2458 142.442 19.0246 144.213 19.0246 146.093V149.462C19.0246 151.45 20.0676 153.315 21.7952 154.338C22.4033 154.697 23.0415 154.851 23.6637 154.851C24.3177 154.851 24.9561 154.68 25.5012 154.355V154.338L25.6563 154.262C26.6218 153.641 27.3065 152.553 27.3065 151.218V131.212L12.1438 139.942H12.1436Z" fill="#CEE0F2"/>
<path d="M46.2022 127.063L64.3781 116.592C64.8948 116.295 65.3132 115.497 65.3132 114.809C65.3132 114.122 64.8948 113.807 64.3781 114.104L46.2022 124.574C45.6853 124.872 45.2671 125.669 45.2671 126.357C45.2671 127.045 45.6853 127.36 46.2022 127.063Z" fill="#CFD8DB"/>
<path d="M42.461 141.887L68.1189 127.106C68.6358 126.809 69.0551 126.01 69.0551 125.323C69.0551 124.636 68.6358 124.32 68.1189 124.617L42.461 139.397C41.9438 139.695 41.5254 140.494 41.5254 141.181C41.5254 141.868 41.9438 142.184 42.461 141.887V141.887Z" fill="#CFD8DB"/>
<path d="M42.461 153.61L68.1189 138.83C68.6358 138.531 69.0551 137.733 69.0551 137.046C69.0551 136.359 68.6358 136.043 68.1189 136.34L42.461 151.12C41.9438 151.418 41.5254 152.217 41.5254 152.903C41.5254 153.592 41.9438 153.907 42.461 153.61V153.61Z" fill="#CFD8DB"/>
<path d="M42.461 147.748L62.7581 136.055C63.2751 135.758 63.6935 134.96 63.6935 134.273C63.6935 133.585 63.2751 133.27 62.7581 133.566L42.461 145.259C41.9438 145.557 41.5254 146.355 41.5254 147.043C41.5254 147.73 41.9438 148.046 42.461 147.748Z" fill="#CFD8DB"/>
<path d="M42.461 159.471L50.3064 154.951C50.8231 154.653 51.2413 153.855 51.2413 153.168C51.2413 152.481 50.8231 152.164 50.3064 152.463L42.461 156.981C41.9438 157.279 41.5254 158.078 41.5254 158.764C41.5254 159.453 41.9438 159.768 42.461 159.471Z" fill="#CFD8DB"/>
<path d="M66.3338 156.178C66.1127 158.083 65.4131 160.198 64.2331 162.244C63.0541 164.29 61.5772 165.953 60.0452 167.091L57.9484 170.731L55.7457 169.462C52.8439 167.769 52.8439 162.315 55.7457 157.279C58.648 152.243 63.3525 149.532 66.2548 151.225L68.4573 152.494L66.3338 156.178Z" fill="#00A658"/>
<path d="M57.9487 158.548C55.0464 163.584 55.0464 169.038 57.9487 170.731C60.851 172.423 65.5556 169.713 68.4576 164.678C71.3599 159.642 71.3599 154.187 68.4576 152.494C65.5556 150.801 60.851 153.511 57.9487 158.548Z" fill="#00D158"/>
<path d="M61.2688 166.733L62.0077 167.161L61.9131 167.096L61.1733 166.667L61.2688 166.733Z" fill="#C6C0D0"/>
<path d="M68.4626 156.905L67.7238 156.476C67.4701 156.33 67.1361 156.375 66.8004 156.568C66.4921 156.745 66.1827 157.049 65.9351 157.447L66.674 157.875C66.9214 157.478 67.2308 157.174 67.5401 156.995C67.8748 156.803 68.2098 156.759 68.4626 156.905Z" fill="#D3E1FC"/>
<path d="M66.674 157.875L65.9351 157.447L62.459 163.049L63.1977 163.477L66.674 157.875Z" fill="#D3E1FC"/>
<path d="M59.8083 165.386L59.0693 164.957L61.1738 166.667L61.9135 167.096L59.8083 165.386Z" fill="#D3E1FC"/>
<path d="M61.7252 162.288L60.9863 161.86C60.7343 161.714 60.3985 161.756 60.061 161.951L60.8 162.379C61.1375 162.186 61.473 162.142 61.7252 162.288Z" fill="#D3E1FC"/>
<path d="M60.7993 162.379L60.0604 161.951C59.7713 162.118 59.479 162.397 59.2389 162.763C58.6865 163.606 58.6101 164.588 59.0687 164.957L59.8076 165.386C59.3491 165.017 59.4255 164.035 59.9787 163.192C60.2187 162.826 60.51 162.546 60.7993 162.379Z" fill="#D3E1FC"/>
<path d="M60.7996 162.379C60.5103 162.546 60.2189 162.826 59.9789 163.192C59.4257 164.035 59.3493 165.017 59.8079 165.386L61.9131 167.096C62.2168 167.343 62.6546 167.307 63.0939 167.054C63.457 166.845 63.8209 166.487 64.1109 166.018L68.4133 159.089C68.9446 158.233 68.9855 157.268 68.5069 156.933C68.2486 156.754 67.8946 156.791 67.5398 156.995C67.2305 157.174 66.9211 157.477 66.6737 157.875L63.1974 163.477L61.8037 162.343C61.5454 162.134 61.1731 162.164 60.7993 162.379H60.7996Z" fill="white"/>
<path d="M25.501 154.339V154.355L25.6562 154.262L25.501 154.339Z" fill="#EBF2F9"/>
<defs>
<linearGradient id="paint0_linear_59_1005" x1="307.586" y1="417.596" x2="28.896" y2="-66.1925" gradientUnits="userSpaceOnUse">
<stop stop-color="#0633B1"/>
<stop offset="0.8" stop-color="#062488"/>
<stop offset="1" stop-color="#062488"/>
</linearGradient>
<linearGradient id="paint1_linear_59_1005" x1="307.585" y1="417.596" x2="28.8967" y2="-66.1921" gradientUnits="userSpaceOnUse">
<stop stop-color="#0946C6"/>
<stop offset="0.8" stop-color="#093199"/>
<stop offset="1" stop-color="#093199"/>
</linearGradient>
<linearGradient id="paint2_linear_59_1005" x1="29.7411" y1="237.819" x2="172.24" y2="237.819" gradientUnits="userSpaceOnUse">
<stop stop-color="#3385FF"/>
<stop offset="1" stop-color="#7BAEFA"/>
</linearGradient>
<linearGradient id="paint3_linear_59_1005" x1="86.8397" y1="262.364" x2="114.762" y2="213.857" gradientUnits="userSpaceOnUse">
<stop stop-color="#1F79FF"/>
<stop offset="0.45098" stop-color="#1F79FF"/>
<stop offset="1" stop-color="#7BAEFA"/>
</linearGradient>
<linearGradient id="paint4_linear_59_1005" x1="33.9168" y1="237.819" x2="171.766" y2="237.819" gradientUnits="userSpaceOnUse">
<stop stop-color="#1D60F2"/>
<stop offset="1" stop-color="#467EED"/>
</linearGradient>
<linearGradient id="paint5_linear_59_1005" x1="86.775" y1="262.364" x2="114.718" y2="213.857" gradientUnits="userSpaceOnUse">
<stop stop-color="#1257F2"/>
<stop offset="0.45098" stop-color="#1257F2"/>
<stop offset="1" stop-color="#467EED"/>
</linearGradient>
<linearGradient id="paint6_linear_59_1005" x1="241.288" y1="228.265" x2="258.149" y2="199.085" gradientUnits="userSpaceOnUse">
<stop stop-color="#E8E8E9"/>
<stop offset="0.129412" stop-color="#E8E8E9"/>
<stop offset="0.580392" stop-color="#D1D1D4"/>
<stop offset="0.772549" stop-color="#CDCDD1"/>
<stop offset="1" stop-color="#C9C9CD"/>
</linearGradient>
<linearGradient id="paint7_linear_59_1005" x1="305.398" y1="191.298" x2="353.766" y2="107.335" gradientUnits="userSpaceOnUse">
<stop stop-color="#818489"/>
<stop offset="0.160784" stop-color="#818489"/>
<stop offset="1" stop-color="#B7B9BD"/>
</linearGradient>
<linearGradient id="paint8_linear_59_1005" x1="188.528" y1="143.707" x2="313.125" y2="71.5943" gradientUnits="userSpaceOnUse">
<stop stop-color="#BBBDBF"/>
<stop offset="0.0588235" stop-color="#BBBDBF"/>
<stop offset="0.741176" stop-color="#C7C9CB"/>
<stop offset="1" stop-color="#C7C9CB"/>
</linearGradient>
<linearGradient id="paint9_linear_59_1005" x1="236.865" y1="115.731" x2="314.923" y2="71.34" gradientUnits="userSpaceOnUse">
<stop stop-color="#989A9F"/>
<stop offset="0.211765" stop-color="#989A9F"/>
<stop offset="1" stop-color="#B7B9BD"/>
</linearGradient>
<linearGradient id="paint10_linear_59_1005" x1="218.387" y1="71.0124" x2="295.293" y2="26.6851" gradientUnits="userSpaceOnUse">
<stop stop-color="#818489"/>
<stop offset="0.431373" stop-color="#B7B9BD"/>
<stop offset="1" stop-color="#B7B9BD"/>
</linearGradient>
<linearGradient id="paint11_linear_59_1005" x1="191.566" y1="135.481" x2="306.045" y2="69.222" gradientUnits="userSpaceOnUse">
<stop stop-color="#0066FF"/>
<stop offset="0.278431" stop-color="#0066FF"/>
<stop offset="1" stop-color="#7BAEFA"/>
</linearGradient>
<linearGradient id="paint12_linear_59_1005" x1="221.96" y1="137.436" x2="262.47" y2="67.1126" gradientUnits="userSpaceOnUse">
<stop stop-color="#EAECEF"/>
<stop offset="0.670588" stop-color="#F2F2F2"/>
<stop offset="1" stop-color="#F2F2F2"/>
</linearGradient>
<linearGradient id="paint13_linear_59_1005" x1="156.06" y1="231.277" x2="169.671" y2="232.92" gradientUnits="userSpaceOnUse">
<stop stop-color="#4E5468"/>
<stop offset="0.109804" stop-color="#4E5468"/>
<stop offset="0.270588" stop-color="#797E8D"/>
<stop offset="0.427451" stop-color="#64697B"/>
<stop offset="0.529412" stop-color="#4E5468"/>
<stop offset="1" stop-color="#4E5468"/>
</linearGradient>
<linearGradient id="paint14_linear_59_1005" x1="185.274" y1="149.137" x2="187.22" y2="147.873" gradientUnits="userSpaceOnUse">
<stop stop-color="#DCE1E0"/>
<stop offset="0.309804" stop-color="#DCE1E0"/>
<stop offset="0.980392" stop-color="#B3BFBC"/>
<stop offset="1" stop-color="#B3BFBC"/>
</linearGradient>
<linearGradient id="paint15_linear_59_1005" x1="177.428" y1="150.91" x2="185.104" y2="146.441" gradientUnits="userSpaceOnUse">
<stop stop-color="#BEC8C6"/>
<stop offset="0.0196078" stop-color="#BEC8C6"/>
<stop offset="0.690196" stop-color="#DCE1E0"/>
<stop offset="0.847059" stop-color="#DCE1E0"/>
<stop offset="1" stop-color="#DCE1E0"/>
</linearGradient>
<linearGradient id="paint16_linear_59_1005" x1="181.398" y1="147.043" x2="183.331" y2="143.721" gradientUnits="userSpaceOnUse">
<stop stop-color="#BEC8C6"/>
<stop offset="0.0196078" stop-color="#BEC8C6"/>
<stop offset="0.901961" stop-color="#D6DCDB"/>
<stop offset="1" stop-color="#D6DCDB"/>
</linearGradient>
<linearGradient id="paint17_linear_59_1005" x1="245.125" y1="140.639" x2="220.53" y2="96.5495" gradientUnits="userSpaceOnUse">
<stop stop-color="#31374E"/>
<stop offset="0.211765" stop-color="#31374E"/>
<stop offset="0.588235" stop-color="#4B5264"/>
<stop offset="0.941176" stop-color="#454B60"/>
<stop offset="1" stop-color="#454B60"/>
</linearGradient>
<linearGradient id="paint18_linear_59_1005" x1="196.89" y1="196.799" x2="160.285" y2="132.832" gradientUnits="userSpaceOnUse">
<stop stop-color="#FF7D50"/>
<stop offset="0.368627" stop-color="#FF9874"/>
<stop offset="0.819608" stop-color="#FFBBA3"/>
<stop offset="1" stop-color="#FFBBA3"/>
</linearGradient>
<linearGradient id="paint19_linear_59_1005" x1="195.347" y1="196.799" x2="159.595" y2="132.834" gradientUnits="userSpaceOnUse">
<stop stop-color="#FC784B"/>
<stop offset="0.368627" stop-color="#FC916D"/>
<stop offset="0.819608" stop-color="#FCB399"/>
<stop offset="1" stop-color="#FCB399"/>
</linearGradient>
<linearGradient id="paint20_linear_59_1005" x1="196.702" y1="196.799" x2="159.853" y2="132.831" gradientUnits="userSpaceOnUse">
<stop stop-color="#F97347"/>
<stop offset="0.368627" stop-color="#F98B67"/>
<stop offset="0.819608" stop-color="#F9AB90"/>
<stop offset="1" stop-color="#F9AB90"/>
</linearGradient>
<linearGradient id="paint21_linear_59_1005" x1="162.469" y1="228.858" x2="206.695" y2="152.07" gradientUnits="userSpaceOnUse">
<stop stop-color="#FFA98A"/>
<stop offset="0.180392" stop-color="#FFA98A"/>
<stop offset="0.690196" stop-color="#FFA484"/>
<stop offset="1" stop-color="#FFA484"/>
</linearGradient>
<linearGradient id="paint22_linear_59_1005" x1="164.953" y1="189.083" x2="178.915" y2="192.314" gradientUnits="userSpaceOnUse">
<stop stop-color="#B29B8B"/>
<stop offset="0.0196078" stop-color="#B29B8B"/>
<stop offset="0.231373" stop-color="#D1B09F"/>
<stop offset="0.34902" stop-color="#D2B0A0"/>
<stop offset="0.980392" stop-color="#81786B"/>
<stop offset="1" stop-color="#81786B"/>
</linearGradient>
<linearGradient id="paint23_linear_59_1005" x1="307.585" y1="417.595" x2="28.897" y2="-66.1916" gradientUnits="userSpaceOnUse">
<stop stop-color="#0F50A3"/>
<stop offset="0.8" stop-color="#0F387D"/>
<stop offset="1" stop-color="#0F387D"/>
</linearGradient>
<linearGradient id="paint24_linear_59_1005" x1="196.702" y1="196.799" x2="159.853" y2="132.831" gradientUnits="userSpaceOnUse">
<stop stop-color="#F26239"/>
<stop offset="0.368627" stop-color="#F27752"/>
<stop offset="0.819608" stop-color="#F29274"/>
<stop offset="1" stop-color="#F29274"/>
</linearGradient>
<linearGradient id="paint25_linear_59_1005" x1="162.465" y1="228.858" x2="206.395" y2="152.071" gradientUnits="userSpaceOnUse">
<stop stop-color="#F28462"/>
<stop offset="0.180392" stop-color="#F28462"/>
<stop offset="0.690196" stop-color="#F2805E"/>
<stop offset="1" stop-color="#F2805E"/>
</linearGradient>
<linearGradient id="paint26_linear_59_1005" x1="155.335" y1="232.106" x2="169.632" y2="233.866" gradientUnits="userSpaceOnUse">
<stop stop-color="#4D5062"/>
<stop offset="0.109804" stop-color="#4D5062"/>
<stop offset="0.270588" stop-color="#787985"/>
<stop offset="0.529412" stop-color="#4D5062"/>
<stop offset="1" stop-color="#4D5062"/>
</linearGradient>
<linearGradient id="paint27_linear_59_1005" x1="307.586" y1="417.596" x2="28.8971" y2="-66.1922" gradientUnits="userSpaceOnUse">
<stop stop-color="#1062D8"/>
<stop offset="0.8" stop-color="#1045A6"/>
<stop offset="1" stop-color="#1045A6"/>
</linearGradient>
<linearGradient id="paint28_linear_59_1005" x1="307.585" y1="417.596" x2="28.897" y2="-66.1921" gradientUnits="userSpaceOnUse">
<stop stop-color="#0A48C0"/>
<stop offset="0.8" stop-color="#0A3394"/>
<stop offset="1" stop-color="#0A3394"/>
</linearGradient>
<linearGradient id="paint29_linear_59_1005" x1="188.516" y1="143.707" x2="313.14" y2="71.5929" gradientUnits="userSpaceOnUse">
<stop stop-color="#B9B5B4"/>
<stop offset="0.0588235" stop-color="#B9B5B4"/>
<stop offset="0.741176" stop-color="#C5C0BF"/>
<stop offset="1" stop-color="#C5C0BF"/>
</linearGradient>
<linearGradient id="paint30_linear_59_1005" x1="162.46" y1="228.858" x2="206.695" y2="152.07" gradientUnits="userSpaceOnUse">
<stop stop-color="#FCA282"/>
<stop offset="0.180392" stop-color="#FCA282"/>
<stop offset="0.690196" stop-color="#FC9D7C"/>
<stop offset="1" stop-color="#FC9D7C"/>
</linearGradient>
<linearGradient id="paint31_linear_59_1005" x1="186.04" y1="210.547" x2="149.164" y2="146.525" gradientUnits="userSpaceOnUse">
<stop stop-color="#FF9C78"/>
<stop offset="0.168627" stop-color="#FF9C78"/>
<stop offset="0.819608" stop-color="#FFBBA3"/>
<stop offset="1" stop-color="#FFBBA3"/>
</linearGradient>
<linearGradient id="paint32_linear_59_1005" x1="185.446" y1="210.547" x2="149.57" y2="146.528" gradientUnits="userSpaceOnUse">
<stop stop-color="#E65F3C"/>
<stop offset="0.168627" stop-color="#E65F3C"/>
<stop offset="0.819608" stop-color="#E67252"/>
<stop offset="1" stop-color="#E67252"/>
</linearGradient>
<linearGradient id="paint33_linear_59_1005" x1="184.301" y1="210.89" x2="149.477" y2="149.157" gradientUnits="userSpaceOnUse">
<stop stop-color="#F27A55"/>
<stop offset="0.168627" stop-color="#F27A55"/>
<stop offset="0.819608" stop-color="#F29274"/>
<stop offset="1" stop-color="#F29274"/>
</linearGradient>
<linearGradient id="paint34_linear_59_1005" x1="166.137" y1="185.293" x2="179.859" y2="188.515" gradientUnits="userSpaceOnUse">
<stop stop-color="#BCC6C4"/>
<stop offset="0.0196078" stop-color="#BCC6C4"/>
<stop offset="0.231373" stop-color="#DCE1E0"/>
<stop offset="0.290196" stop-color="#DCE1E0"/>
<stop offset="0.34902" stop-color="#DDE2E1"/>
<stop offset="0.639216" stop-color="#B3BEBC"/>
<stop offset="0.980392" stop-color="#889A97"/>
<stop offset="1" stop-color="#889A97"/>
</linearGradient>
<linearGradient id="paint35_linear_59_1005" x1="179.889" y1="145.668" x2="185.883" y2="153.115" gradientUnits="userSpaceOnUse">
<stop stop-color="#DCE1E0"/>
<stop offset="0.521569" stop-color="#BEC8C6"/>
<stop offset="1" stop-color="#8C9D9A"/>
</linearGradient>
<linearGradient id="paint36_linear_59_1005" x1="307.586" y1="417.596" x2="28.8967" y2="-66.192" gradientUnits="userSpaceOnUse">
<stop stop-color="#2D81F0"/>
<stop offset="0.8" stop-color="#2D79E4"/>
<stop offset="1" stop-color="#2D79E4"/>
</linearGradient>
<linearGradient id="paint37_linear_59_1005" x1="304.036" y1="417.596" x2="29.8801" y2="-66.1788" gradientUnits="userSpaceOnUse">
<stop stop-color="#6EB7F9"/>
<stop offset="0.8" stop-color="#6EAFEB"/>
<stop offset="1" stop-color="#6EAFEB"/>
</linearGradient>
<linearGradient id="paint38_linear_59_1005" x1="307.586" y1="417.596" x2="28.8967" y2="-66.192" gradientUnits="userSpaceOnUse">
<stop stop-color="#2478ED"/>
<stop offset="0.8" stop-color="#246AD4"/>
<stop offset="1" stop-color="#246AD4"/>
</linearGradient>
<linearGradient id="paint39_linear_59_1005" x1="304.036" y1="417.596" x2="29.8799" y2="-66.1788" gradientUnits="userSpaceOnUse">
<stop stop-color="#519EF3"/>
<stop offset="0.8" stop-color="#518FD9"/>
<stop offset="1" stop-color="#518FD9"/>
</linearGradient>
<linearGradient id="paint40_linear_59_1005" x1="307.586" y1="417.596" x2="28.8973" y2="-66.1921" gradientUnits="userSpaceOnUse">
<stop stop-color="#1B70E9"/>
<stop offset="0.8" stop-color="#1B5AC3"/>
<stop offset="1" stop-color="#1B5AC3"/>
</linearGradient>
<linearGradient id="paint41_linear_59_1005" x1="304.037" y1="417.596" x2="29.8802" y2="-66.1789" gradientUnits="userSpaceOnUse">
<stop stop-color="#3384EC"/>
<stop offset="0.8" stop-color="#336EC6"/>
<stop offset="1" stop-color="#336EC6"/>
</linearGradient>
<linearGradient id="paint42_linear_59_1005" x1="306.764" y1="417.203" x2="28.9749" y2="-65.7152" gradientUnits="userSpaceOnUse">
<stop stop-color="#0C54D5"/>
<stop offset="0.8" stop-color="#0C3CA4"/>
<stop offset="1" stop-color="#0C3CA4"/>
</linearGradient>
</defs>
</svg>
