<?xml version="1.0" standalone="no"?>
<!DOCTYPE svg PUBLIC "-//W3C//DTD SVG 20010904//EN"
 "http://www.w3.org/TR/2001/REC-SVG-20010904/DTD/svg10.dtd">
<svg version="1.0" xmlns="http://www.w3.org/2000/svg"
 width="512.000000pt" height="512.000000pt" viewBox="0 0 512.000000 512.000000"
 preserveAspectRatio="xMidYMid meet">
<metadata>
Created by potrace 1.16, written by Peter Selinger 2001-2019
</metadata>
<g transform="translate(0.000000,512.000000) scale(0.100000,-0.100000)"
fill="#000000" stroke="none">
<path d="M2055 5014 c-55 -20 -110 -66 -143 -122 -25 -43 -27 -57 -30 -167
l-4 -121 -114 -38 c-62 -21 -163 -62 -223 -91 l-109 -53 -73 74 c-91 91 -151
119 -244 111 -34 -2 -80 -14 -105 -27 -65 -32 -542 -510 -569 -570 -28 -61
-28 -168 0 -230 11 -25 52 -77 91 -117 l72 -72 -58 -120 c-31 -66 -72 -164
-90 -218 l-33 -98 -114 -6 c-70 -4 -128 -13 -151 -23 -56 -24 -109 -75 -134
-131 -24 -50 -24 -53 -24 -435 0 -382 0 -385 24 -435 25 -56 78 -107 134 -131
23 -10 81 -19 151 -23 l113 -6 39 -109 c21 -61 62 -159 91 -218 l52 -109 -72
-72 c-39 -40 -80 -92 -91 -117 -28 -62 -28 -169 0 -230 27 -60 504 -538 569
-570 25 -13 71 -25 105 -27 93 -8 153 20 244 111 l73 74 109 -53 c60 -29 161
-70 223 -91 l114 -38 4 -121 c3 -110 5 -124 30 -167 16 -25 45 -60 65 -77 73
-60 91 -62 509 -59 367 3 380 4 419 25 53 28 99 78 124 133 17 36 21 66 21
156 l0 111 48 14 c26 7 92 30 146 51 l99 39 41 -39 c168 -162 399 -258 647
-269 149 -7 255 6 380 47 183 60 230 103 196 175 -17 35 -51 52 -85 42 -9 -3
-55 -21 -102 -40 -318 -132 -674 -68 -927 167 -176 164 -269 362 -280 601 -13
264 68 466 262 660 115 115 197 166 345 216 83 28 112 33 231 37 106 3 154 1
214 -13 344 -76 608 -340 680 -680 18 -88 19 -270 1 -355 -29 -137 -80 -241
-202 -410 -44 -61 -11 -130 61 -130 27 0 41 9 74 46 90 103 160 234 208 389
25 84 27 103 27 275 1 162 -2 195 -22 270 -30 112 -118 289 -181 368 -28 34
-51 65 -51 68 0 3 11 20 23 37 51 69 52 76 52 482 0 379 0 380 -23 427 -28 55
-88 113 -141 135 -21 10 -82 18 -149 22 l-114 6 -22 70 c-29 89 -89 234 -128
308 l-31 57 75 78 c90 92 110 133 111 224 0 114 -18 139 -300 419 -159 159
-264 255 -292 269 -62 31 -145 37 -211 15 -41 -13 -73 -36 -134 -95 l-81 -77
-120 58 c-66 32 -166 73 -222 91 l-103 33 0 110 c0 89 -4 119 -21 155 -25 55
-71 105 -124 133 -39 21 -51 22 -425 24 -316 2 -392 -1 -425 -13z m806 -182
c29 -32 29 -32 29 -167 0 -130 9 -179 34 -188 6 -3 76 -26 155 -52 79 -27 204
-79 279 -117 75 -37 147 -68 160 -68 17 0 54 29 126 99 104 101 134 119 184
106 38 -9 519 -491 524 -525 8 -51 -12 -84 -107 -180 -119 -122 -119 -119 -29
-293 38 -74 85 -188 113 -273 27 -81 56 -155 65 -165 14 -17 31 -19 148 -19
154 0 192 -12 220 -70 16 -31 18 -71 18 -358 0 -254 -3 -330 -14 -356 -8 -19
-18 -36 -23 -39 -5 -3 -32 10 -59 30 -70 51 -236 128 -329 154 -59 16 -119 23
-230 26 l-150 5 0 177 c-1 188 -14 283 -61 439 -140 466 -511 848 -968 997
-186 60 -250 70 -476 70 -159 0 -224 -4 -290 -18 -130 -28 -246 -65 -346 -112
-123 -57 -150 -99 -103 -160 19 -23 27 -26 63 -22 23 2 83 23 135 46 188 84
366 116 595 108 115 -4 175 -11 252 -31 518 -130 905 -529 1015 -1049 17 -78
22 -138 23 -257 1 -85 -2 -171 -7 -191 -7 -33 -12 -37 -65 -53 -194 -61 -398
-221 -522 -409 -99 -149 -154 -310 -168 -488 l-7 -93 -80 -32 c-44 -18 -90
-35 -102 -39 l-23 -6 0 379 0 380 31 12 c99 41 247 167 324 275 259 365 196
878 -144 1161 -129 107 -235 139 -309 94 -62 -38 -65 -59 -63 -405 2 -338 -2
-373 -54 -441 -32 -42 -112 -84 -161 -84 -51 0 -130 46 -165 96 -46 67 -51
111 -48 444 3 328 2 337 -50 384 -35 32 -118 33 -183 4 -151 -70 -308 -248
-385 -439 -74 -184 -73 -437 3 -631 73 -186 236 -367 407 -449 l47 -23 0 -379
0 -378 -22 6 c-58 18 -212 87 -274 123 -347 202 -584 538 -660 937 -26 131
-24 359 4 490 59 278 168 483 369 695 111 118 119 137 82 184 -16 20 -29 26
-61 26 -36 0 -47 -7 -115 -72 -261 -252 -420 -586 -454 -955 -26 -274 28 -559
152 -806 220 -437 623 -736 1104 -819 102 -17 147 -19 300 -15 193 6 311 27
461 81 39 14 76 26 81 26 5 0 15 -28 22 -63 15 -75 67 -202 114 -283 19 -32
33 -62 31 -65 -2 -4 -61 -25 -131 -48 -176 -58 -179 -59 -192 -87 -6 -15 -11
-81 -11 -159 0 -135 0 -135 -29 -167 l-29 -33 -351 -3 c-301 -2 -355 -1 -381
13 -50 26 -60 59 -60 199 0 72 -5 136 -11 150 -13 28 -16 29 -190 86 -70 23
-189 73 -264 111 -76 38 -149 69 -163 69 -18 0 -52 -27 -127 -101 -90 -88
-108 -101 -145 -106 l-42 -6 -259 259 -259 259 0 44 c0 42 4 48 99 145 54 56
102 111 105 123 5 17 -12 62 -67 172 -43 87 -94 208 -121 292 -26 79 -54 150
-63 157 -12 8 -58 12 -145 12 -144 0 -185 11 -215 56 -17 26 -18 56 -18 374 0
318 1 348 18 374 30 45 71 56 215 56 87 0 133 4 145 13 9 6 37 77 63 156 27
84 78 205 121 292 55 110 72 155 67 172 -3 12 -51 67 -105 123 -95 97 -99 103
-99 145 l0 44 259 259 259 259 42 -6 c37 -5 55 -18 145 -106 75 -74 109 -101
127 -101 14 0 87 31 163 69 75 38 194 88 264 111 174 57 177 58 190 86 6 14
11 78 11 149 0 68 4 135 10 149 5 14 24 35 42 46 32 20 47 20 386 18 l354 -3
29 -33z m-769 -1679 c-4 -299 4 -389 43 -470 35 -70 109 -144 182 -180 51 -24
69 -28 148 -28 79 0 97 3 150 29 114 57 192 161 216 291 6 36 9 168 7 341 l-3
283 30 -19 c230 -146 361 -418 326 -675 -24 -169 -84 -288 -211 -415 -71 -71
-101 -94 -181 -133 -66 -33 -100 -56 -108 -73 -8 -17 -11 -155 -11 -453 l0
-428 -46 -7 c-60 -8 -263 -8 -331 0 l-53 7 0 434 c0 291 -4 441 -11 454 -6 11
-39 33 -75 49 -323 145 -494 497 -404 831 41 151 157 311 291 400 24 16 44 29
44 29 0 0 -2 -120 -3 -267z"/>
<path d="M4337 1855 c-63 -24 -89 -48 -232 -219 l-138 -165 -31 26 c-106 89
-278 83 -368 -13 -82 -88 -92 -244 -21 -336 41 -53 296 -266 345 -288 65 -29
160 -27 226 6 45 22 83 63 288 307 130 155 244 298 254 318 64 123 10 288
-114 351 -52 27 -157 33 -209 13z m151 -170 c34 -29 47 -70 34 -106 -11 -26
-430 -533 -465 -561 -12 -10 -39 -18 -59 -18 -33 0 -52 13 -166 109 -71 60
-139 122 -151 137 -50 63 -4 154 77 154 34 0 51 -9 112 -60 61 -51 78 -60 110
-60 38 0 42 4 200 193 88 105 175 202 192 215 41 29 79 28 116 -3z"/>
</g>
</svg>
