<?xml version="1.0" standalone="no"?>
<!DOCTYPE svg PUBLIC "-//W3C//DTD SVG 20010904//EN"
 "http://www.w3.org/TR/2001/REC-SVG-20010904/DTD/svg10.dtd">
<svg version="1.0" xmlns="http://www.w3.org/2000/svg"
 width="512.000000pt" height="512.000000pt" viewBox="0 0 512.000000 512.000000"
 preserveAspectRatio="xMidYMid meet">

<g transform="translate(0.000000,512.000000) scale(0.100000,-0.100000)"
fill="#000000" stroke="none">
<path d="M2400 5106 c-196 -36 -371 -128 -507 -269 -77 -79 -162 -201 -189
-272 l-17 -45 -117 0 -117 0 -7 49 c-9 70 -59 163 -113 210 -90 80 -231 104
-347 60 -110 -41 -199 -153 -213 -267 l-6 -52 -286 0 -287 0 -52 -26 c-29 -14
-65 -42 -82 -62 -64 -78 -60 35 -58 -1762 l3 -1635 22 -41 c12 -22 39 -56 59
-74 79 -69 25 -65 907 -68 l798 -3 -6 -32 c-21 -95 -73 -193 -146 -272 -40
-44 -43 -45 -103 -45 -96 -1 -180 -51 -222 -132 -23 -44 -29 -129 -13 -185 17
-62 96 -143 155 -161 60 -17 2148 -17 2208 0 59 18 138 99 155 161 46 165 -66
316 -234 317 -58 0 -63 2 -102 43 -55 56 -109 147 -133 226 -11 35 -20 67 -20
72 0 5 357 10 798 11 881 3 827 -1 906 68 20 18 47 52 59 74 l22 41 3 1635 c2
1795 6 1679 -58 1760 -17 21 -54 50 -82 64 l-52 26 -287 0 -286 0 -6 52 c-14
114 -104 227 -215 268 -76 29 -196 25 -263 -8 -104 -51 -181 -154 -195 -263
l-7 -49 -117 0 -117 0 -18 46 c-29 76 -129 215 -207 290 -126 119 -263 196
-420 234 -107 27 -287 34 -388 16z m355 -182 c188 -51 365 -184 464 -349 132
-219 142 -504 27 -733 -30 -60 -116 -185 -135 -196 -4 -3 -25 1 -47 9 -57 21
-951 21 -1008 0 -22 -8 -43 -12 -47 -9 -4 2 -29 32 -54 67 -163 217 -205 477
-116 728 94 264 329 456 616 503 55 8 239 -3 300 -20z m-1565 -253 c93 -49
118 -177 49 -255 -66 -75 -168 -84 -239 -20 -118 107 -48 293 110 294 25 0 61
-8 80 -19z m2897 3 c73 -35 110 -127 84 -207 -7 -20 -30 -51 -51 -71 -117
-106 -305 1 -276 158 20 108 141 168 243 120z m-3226 -378 c31 -34 68 -62 103
-77 51 -22 55 -27 61 -64 16 -93 71 -169 150 -206 35 -16 67 -19 258 -19 l217
0 12 -27 c48 -118 117 -244 171 -310 l62 -78 -9 -53 -10 -52 -220 2 -219 3
-15 45 c-10 30 -35 65 -77 107 -53 53 -71 64 -134 83 -163 50 -323 -15 -401
-162 -46 -86 -53 -193 -19 -283 31 -82 112 -163 194 -194 90 -34 197 -27 283
19 70 37 120 91 152 163 l21 47 250 0 250 0 33 -25 c40 -30 98 -55 130 -55 24
0 24 -1 28 -105 l3 -105 68 -68 67 -68 -43 -42 -43 -42 -469 0 c-284 0 -484
-4 -506 -10 -88 -25 -161 -106 -180 -199 -11 -58 -12 -60 -58 -77 -57 -22
-139 -102 -171 -169 -20 -41 -24 -65 -25 -140 0 -77 4 -98 26 -146 34 -72 90
-128 165 -165 51 -25 70 -29 144 -29 65 1 96 6 132 22 66 30 143 105 175 172
24 48 28 68 28 141 0 76 -4 93 -33 152 -37 76 -87 124 -168 162 -52 25 -53 26
-43 56 22 62 8 60 518 60 l465 0 43 -42 43 -42 -67 -68 c-58 -58 -67 -73 -67
-103 0 -31 9 -45 67 -103 l67 -67 -67 -67 c-105 -106 -108 -97 127 -333 179
-180 198 -195 230 -195 32 0 50 15 212 178 112 112 184 192 195 217 16 35 18
78 21 333 l3 292 437 0 c480 0 469 1 490 -60 11 -29 10 -30 -41 -55 -80 -37
-132 -87 -169 -163 -29 -59 -33 -76 -33 -152 0 -73 4 -93 28 -141 32 -67 109
-142 175 -172 71 -32 198 -30 272 4 72 34 135 97 168 167 23 49 27 70 27 147
-1 75 -5 99 -25 140 -33 67 -114 147 -172 170 -42 15 -48 22 -54 54 -16 95
-62 163 -138 204 -40 22 -48 22 -503 25 l-463 3 0 214 0 215 25 0 c33 0 91 24
131 55 l33 25 250 0 250 0 21 -47 c32 -72 82 -126 152 -163 53 -28 76 -34 143
-38 110 -5 179 21 256 97 76 77 102 146 97 256 -7 136 -78 240 -204 297 -75
34 -199 32 -276 -5 -69 -34 -150 -119 -170 -179 l-15 -43 -219 -3 -220 -2 -10
52 -9 53 62 78 c54 66 123 192 171 310 l12 27 217 0 c189 0 223 3 258 19 78
35 134 112 150 206 6 37 10 42 61 64 35 15 72 43 103 77 l50 54 293 0 c308 -1
312 -1 336 -47 9 -16 12 -380 12 -1437 l0 -1416 -2065 0 -2066 0 -24 -25 c-25
-24 -32 -65 -19 -100 18 -47 -77 -45 2119 -45 l2055 0 0 -100 c0 -93 -2 -103
-24 -125 -13 -13 -39 -26 -57 -30 -19 -3 -1073 -4 -2342 -3 l-2309 3 -24 28
c-22 26 -24 37 -24 128 l0 99 184 0 c180 0 186 1 212 24 39 33 39 89 0 122
-26 23 -32 24 -212 24 l-184 0 0 1416 c0 1057 3 1421 12 1437 24 46 28 46 336
47 l293 0 50 -54z m767 -13 c-5 -38 -8 -94 -6 -126 l3 -57 -191 0 c-185 0
-191 1 -211 23 -11 12 -23 32 -26 44 -4 19 4 26 57 51 41 19 76 46 106 80 l45
51 116 1 116 0 -9 -67z m2129 17 c27 -30 69 -61 108 -81 69 -34 74 -50 32 -96
-20 -22 -26 -23 -211 -23 l-191 0 3 57 c2 32 -1 88 -6 126 l-9 67 115 0 114 0
45 -50z m-2595 -810 c46 -13 105 -77 114 -124 21 -117 -64 -214 -181 -204
-143 12 -206 176 -107 282 49 51 102 66 174 46z m1877 -16 c40 -33 43 -83 6
-119 l-24 -25 -461 0 -461 0 -24 25 c-37 36 -34 86 6 119 l31 26 448 0 448 0
31 -26z m1034 12 c92 -39 132 -147 87 -236 -27 -53 -72 -83 -135 -88 -156 -13
-243 162 -138 279 50 56 121 73 186 45z m-1258 -908 l0 -578 -127 -127 -128
-128 -110 110 -110 109 35 36 c38 39 65 95 65 135 0 40 -27 96 -66 136 l-34
35 31 30 c37 34 68 97 69 137 0 41 -27 97 -66 138 l-34 35 31 30 c38 35 69 98
69 139 0 47 -33 105 -89 160 -50 49 -51 50 -51 110 0 34 3 65 7 69 4 3 119 5
257 4 l251 -3 0 -577z m-1625 -297 c98 -51 119 -185 41 -262 -71 -71 -160 -74
-236 -8 -83 73 -68 211 29 270 41 25 120 25 166 0z m2900 4 c101 -52 119 -200
35 -274 -76 -66 -165 -63 -236 8 -105 105 -28 281 124 281 26 0 61 -7 77 -15z
m-904 -1500 c14 -72 55 -176 89 -227 14 -21 25 -42 25 -48 0 -7 -243 -10 -740
-10 -530 0 -740 3 -740 11 0 6 9 24 20 39 32 44 68 133 86 208 9 37 18 73 20
80 3 10 131 12 615 10 l612 -3 13 -60z m444 -450 c55 -28 60 -105 10 -150 -22
-20 -36 -20 -1080 -20 l-1058 0 -25 23 c-48 45 -42 118 12 147 40 22 2098 22
2141 0z"/>
<path d="M2480 4765 c-101 -32 -172 -131 -173 -240 0 -80 25 -136 83 -188 166
-150 425 -34 423 188 -1 112 -73 209 -177 240 -60 18 -97 18 -156 0z m120
-170 c30 -15 46 -52 41 -90 -3 -29 -48 -65 -81 -65 -33 0 -78 36 -81 65 -5 37
11 74 39 89 35 19 46 19 82 1z"/>
</g>
</svg>
