<svg xmlns="http://www.w3.org/2000/svg" viewBox="0 0 30 51" fill="none">
  <path d="M16.0136 50.4605C15.9518 50.4605 15.89 50.4409 15.8372 50.4017L11.1196 46.8635C11.0457 46.8077 11.002 46.7202 11.002 46.6282V29.7261C11.002 29.6114 11.0683 29.5074 11.1709 29.4591C11.2749 29.4108 11.3971 29.4259 11.4846 29.4998L13.8434 31.465C13.9112 31.5208 13.9489 31.6037 13.9489 31.6912V45.0552C13.9519 45.1426 14.0108 45.939 15.3726 45.939C16.8295 45.939 16.8944 45.1411 16.8974 45.0506V31.2976C16.8974 31.1965 16.9502 31.1015 17.0362 31.0472L20.1807 29.0821C20.2968 29.0082 20.4492 29.0263 20.5457 29.1228L22.9045 31.4816C23.0146 31.5917 23.0206 31.7696 22.9165 31.8858L19.9847 35.1841L22.8728 37.3514C22.9407 37.4027 22.9844 37.4811 22.9904 37.5671C22.9965 37.653 22.9648 37.736 22.9045 37.7963L20.3617 40.3391L22.9045 42.8819C23.0176 42.995 23.0191 43.176 22.9105 43.2921L16.2278 50.367C16.1705 50.4288 16.092 50.4605 16.0136 50.4605ZM11.5916 46.4804L15.9804 49.7712L22.2846 43.096L19.7358 40.5472C19.6212 40.4326 19.6212 40.2456 19.7358 40.131L22.2469 37.6199L19.3738 35.4647C19.3075 35.4149 19.2653 35.341 19.2577 35.258C19.2502 35.1751 19.2758 35.0937 19.3301 35.0333L22.2907 31.7033L20.2938 29.7064L17.4871 31.4605V45.0552C17.4871 45.0702 17.463 46.5287 15.3726 46.5287C13.3819 46.5287 13.3592 45.0687 13.3592 45.0552V31.8285L11.5901 30.355V46.4804H11.5916Z" fill="#364BA8"/>
  <path d="M4.02534 10.5632C3.89262 10.5632 3.77347 10.4742 3.74029 10.34C3.73124 10.3068 2.93945 6.96321 6.22879 4.90907C8.89072 3.24555 11.3008 5.0237 12.165 5.81096C12.352 5.37058 12.7049 4.68737 13.2569 4.16102C13.5947 3.83827 14.008 3.60299 14.3714 3.39486C14.7108 3.20182 15.1316 2.96051 15.1316 2.80215C15.1316 2.63927 15.2643 2.50806 15.4256 2.50806C15.587 2.50806 15.7197 2.64078 15.7197 2.80215C15.7197 3.30287 15.207 3.59696 14.6625 3.90764C14.3277 4.09918 13.9491 4.31485 13.6626 4.58783C12.907 5.30874 12.5646 6.41423 12.5616 6.4263C12.5299 6.52886 12.447 6.60577 12.3414 6.6284C12.2359 6.65102 12.1288 6.61482 12.0579 6.53489C11.9523 6.41423 9.43064 3.6045 6.53947 5.4113C3.62266 7.23167 4.28173 10.0776 4.31189 10.1983C4.35111 10.3566 4.25458 10.5165 4.09622 10.5542C4.07209 10.5602 4.04796 10.5632 4.02534 10.5632Z" fill="#364BA8"/>
  <path d="M26.7359 10.5625C26.7118 10.5625 26.6892 10.5595 26.6651 10.5535C26.5067 10.5143 26.4117 10.3544 26.4494 10.1976C26.4796 10.0769 27.1371 7.23098 24.2203 5.4091C21.3306 3.6023 18.8075 6.41204 18.7019 6.53269C18.631 6.61262 18.5224 6.64882 18.4184 6.6262C18.3143 6.60358 18.2298 6.52666 18.1982 6.4241C18.1951 6.41355 17.8483 5.30353 17.0972 4.58564C16.8121 4.31266 16.4321 4.09548 16.0973 3.90545C15.5528 3.59476 15.04 3.30218 15.04 2.79995C15.04 2.63707 15.1728 2.50586 15.3341 2.50586C15.497 2.50586 15.6282 2.63858 15.6282 2.79995C15.6282 2.95831 16.049 3.19962 16.3883 3.39267C16.7518 3.6008 17.1651 3.83607 17.5029 4.15882C18.0534 4.68517 18.4063 5.36838 18.5948 5.80877C19.459 5.02301 21.8691 3.24487 24.531 4.90688C27.8188 6.96252 27.027 10.3046 27.0195 10.3378C26.9878 10.4736 26.8672 10.5625 26.7359 10.5625Z" fill="#364BA8"/>
  <path d="M15.3361 29.0379C15.1732 29.0379 15.042 28.9051 15.042 28.7438C15.042 28.243 15.5563 27.949 16.0992 27.6383C16.434 27.4467 16.8126 27.2311 17.0991 26.9581C17.8502 26.2402 18.1971 25.1317 18.2001 25.1196C18.2318 25.0171 18.3162 24.9401 18.4203 24.9175C18.5244 24.8949 18.633 24.9311 18.7038 25.011C18.8094 25.1317 21.3311 27.9399 24.2223 26.1346C27.1391 24.3112 26.48 21.4653 26.4513 21.3446C26.4121 21.1863 26.5087 21.0264 26.667 20.9887C26.8269 20.9495 26.9852 21.046 27.0245 21.2029C27.0335 21.2361 27.8253 24.5797 24.536 26.6338C21.874 28.2989 19.464 26.5192 18.5998 25.7334C18.4128 26.1738 18.0599 26.857 17.5079 27.3834C17.17 27.7061 16.7583 27.9414 16.3933 28.1495C16.054 28.3426 15.6332 28.5839 15.6332 28.7423C15.6317 28.9051 15.499 29.0379 15.3361 29.0379Z" fill="#364BA8"/>
  <path d="M15.4241 29.0385C15.2612 29.0385 15.13 28.9058 15.13 28.7445C15.13 28.5861 14.7092 28.3448 14.3699 28.1517C14.0064 27.9436 13.5932 27.7083 13.2569 27.3856C12.7049 26.8592 12.352 26.1745 12.1649 25.7341C11.3008 26.5214 8.8907 28.2995 6.22876 26.636C2.94094 24.5804 3.73273 21.2383 3.74027 21.2051C3.77949 21.0482 3.93785 20.9517 4.09771 20.9909C4.25607 21.0301 4.35109 21.19 4.31338 21.3468C4.28322 21.4675 3.62565 24.3134 6.54247 26.1368C9.43364 27.9436 11.9553 25.1339 12.0609 25.0132C12.1318 24.9333 12.2404 24.8971 12.3444 24.9197C12.4485 24.9423 12.5329 25.0193 12.5646 25.1218C12.5676 25.1324 12.9145 26.2424 13.6656 26.9603C13.9506 27.2333 14.3307 27.4489 14.6655 27.6405C15.21 27.9512 15.7227 28.2452 15.7227 28.746C15.7182 28.9058 15.587 29.0385 15.4241 29.0385Z" fill="#364BA8"/>
  <path d="M24.465 20.784C24.3021 20.784 24.1709 20.6513 24.1709 20.4899C24.1709 20.327 24.3036 20.1958 24.465 20.1958C27.8674 20.1958 29.2806 17.3152 29.2806 15.7738C29.2806 14.2325 27.8674 11.3519 24.465 11.3519C24.3021 11.3519 24.1709 11.2191 24.1709 11.0578C24.1709 10.8949 24.3036 10.7637 24.465 10.7637C28.2837 10.7637 29.8703 14.0274 29.8703 15.7753C29.8703 17.5233 28.2852 20.784 24.465 20.784Z" fill="#364BA8"/>
  <path d="M24.4637 11.3485C24.4079 11.3485 24.3506 11.3319 24.3008 11.2987C24.1651 11.2082 24.1289 11.0257 24.2194 10.89C24.9192 9.8403 24.4109 8.36983 23.8469 7.70623C23.1124 6.84355 21.6329 6.67313 20.6269 7.00945C20.4731 7.06224 20.3057 6.97778 20.2544 6.82244C20.2031 6.6686 20.2861 6.50119 20.4414 6.44992C21.6163 6.05779 23.3673 6.23123 24.2963 7.32466C24.9961 8.14812 25.5873 9.90063 24.7096 11.2173C24.6523 11.3032 24.5587 11.3485 24.4637 11.3485Z" fill="#364BA8"/>
  <path d="M20.5343 7.02605C20.3714 7.02605 20.2402 6.89333 20.2402 6.73195V5.94619C20.2402 5.78331 20.373 5.6521 20.5343 5.6521C20.6957 5.6521 20.8284 5.78482 20.8284 5.94619V6.73195C20.8299 6.89333 20.6972 7.02605 20.5343 7.02605Z" fill="#364BA8"/>
  <path d="M21.68 25.2827C21.2381 25.2827 20.8113 25.2149 20.4403 25.0912C20.2865 25.0399 20.202 24.8725 20.2533 24.7187C20.3046 24.5649 20.472 24.4804 20.6258 24.5317C21.6318 24.8665 23.1113 24.6976 23.8458 23.8349C24.4098 23.1713 24.9181 21.7023 24.2183 20.6511C24.1278 20.5154 24.164 20.3329 24.2997 20.2424C24.434 20.1519 24.618 20.1881 24.7084 20.3239C25.5862 21.6405 24.995 23.393 24.2952 24.2165C23.6603 24.966 22.6377 25.2827 21.68 25.2827Z" fill="#364BA8"/>
  <path d="M20.5334 25.8932C20.3705 25.8932 20.2393 25.7605 20.2393 25.5991V24.8134C20.2393 24.6505 20.372 24.5193 20.5334 24.5193C20.6947 24.5193 20.8274 24.652 20.8274 24.8134V25.5991C20.829 25.7605 20.6962 25.8932 20.5334 25.8932Z" fill="#364BA8"/>
  <path d="M25.2494 19.2105C25.1121 19.2105 24.9884 19.114 24.9613 18.9738C24.9296 18.8139 25.0322 18.6585 25.192 18.6269C26.4001 18.3856 27.2115 17.2378 27.2115 15.7719C27.2115 14.7056 26.1166 13.6001 25.0352 13.0602C24.8889 12.9878 24.8301 12.8098 24.904 12.6651C24.9764 12.5203 25.1543 12.4599 25.2991 12.5338C26.5042 13.1356 27.8012 14.407 27.8012 15.7734C27.8012 17.5289 26.7983 18.9089 25.3067 19.2075C25.2886 19.209 25.269 19.2105 25.2494 19.2105Z" fill="#364BA8"/>
  <path d="M25.1691 13.0903C25.0937 13.0903 25.0183 13.0616 24.961 13.0043C24.8463 12.8897 24.8463 12.7027 24.961 12.588L25.5175 12.0315C25.6321 11.9169 25.8191 11.9169 25.9337 12.0315C26.0484 12.1461 26.0484 12.3332 25.9337 12.4478L25.3772 13.0043C25.3199 13.0616 25.2445 13.0903 25.1691 13.0903Z" fill="#364BA8"/>
  <path d="M25.7237 19.7734C25.6483 19.7734 25.5728 19.7447 25.5155 19.6874L24.959 19.1309C24.8444 19.0163 24.8444 18.8292 24.959 18.7146C25.0736 18.6 25.2606 18.6 25.3753 18.7146L25.9318 19.2711C26.0464 19.3858 26.0464 19.5728 25.9318 19.6874C25.8745 19.7447 25.7991 19.7734 25.7237 19.7734Z" fill="#364BA8"/>
  <path d="M5.41272 19.2107C5.39311 19.2107 5.37351 19.2092 5.3539 19.2047C3.86231 18.906 2.85938 17.5261 2.85938 15.7705C2.85938 14.4041 4.15641 13.1343 5.36144 12.531C5.50773 12.4586 5.68419 12.5174 5.75658 12.6622C5.82898 12.8085 5.77016 12.9849 5.62537 13.0573C4.54552 13.6003 3.45058 14.7058 3.45058 15.7721C3.45058 17.238 4.26198 18.3857 5.47003 18.627C5.6299 18.6587 5.73396 18.814 5.70078 18.9739C5.67363 19.1142 5.54996 19.2107 5.41272 19.2107Z" fill="#364BA8"/>
  <path d="M5.49514 13.0905C5.41973 13.0905 5.34432 13.0619 5.28701 13.0045L4.7305 12.448C4.61588 12.3334 4.61588 12.1464 4.7305 12.0318C4.84512 11.9171 5.03213 11.9171 5.14675 12.0318L5.70327 12.5883C5.81789 12.7029 5.81789 12.8899 5.70327 13.0045C5.64596 13.0619 5.57055 13.0905 5.49514 13.0905Z" fill="#364BA8"/>
  <path d="M4.93863 19.7734C4.86322 19.7734 4.78781 19.7447 4.7305 19.6874C4.61588 19.5728 4.61588 19.3858 4.7305 19.2711L5.28701 18.7146C5.40163 18.6 5.58865 18.6 5.70327 18.7146C5.81789 18.8292 5.81789 19.0163 5.70327 19.1309L5.14675 19.6874C5.08944 19.7447 5.01403 19.7734 4.93863 19.7734Z" fill="#364BA8"/>
  <path d="M6.38382 20.7836C2.56512 20.7836 0.978516 17.5199 0.978516 15.7719C0.978516 14.0239 2.56361 10.7603 6.38382 10.7603C6.5467 10.7603 6.67792 10.893 6.67792 11.0543C6.67792 11.2172 6.5452 11.3484 6.38382 11.3484C2.98137 11.3484 1.56821 14.2291 1.56821 15.7704C1.56821 17.3118 2.98137 20.1924 6.38382 20.1924C6.5467 20.1924 6.67792 20.3251 6.67792 20.4865C6.67792 20.6509 6.5452 20.7836 6.38382 20.7836Z" fill="#364BA8"/>
  <path d="M6.3844 11.3485C6.28939 11.3485 6.19588 11.3017 6.13857 11.2173C5.26081 9.90063 5.85201 8.14812 6.55181 7.32466C7.48084 6.23123 9.23184 6.05779 10.4067 6.44992C10.5605 6.50119 10.645 6.6686 10.5937 6.82244C10.5424 6.97627 10.375 7.06073 10.2212 7.00945C9.21525 6.67463 7.73573 6.84355 7.00124 7.70623C6.43719 8.36983 5.92893 9.83879 6.62873 10.89C6.71922 11.0257 6.68302 11.2082 6.54728 11.2987C6.49751 11.3334 6.4402 11.3485 6.3844 11.3485Z" fill="#364BA8"/>
  <path d="M10.3146 7.02605C10.1517 7.02605 10.0205 6.89333 10.0205 6.73195V5.94619C10.0205 5.78331 10.1532 5.6521 10.3146 5.6521C10.4775 5.6521 10.6087 5.78482 10.6087 5.94619V6.73195C10.6087 6.89333 10.4775 7.02605 10.3146 7.02605Z" fill="#364BA8"/>
  <path d="M9.16796 25.2827C8.21027 25.2827 7.18923 24.966 6.55278 24.2165C5.85299 23.393 5.26179 21.6405 6.13954 20.3239C6.23004 20.1881 6.41252 20.1519 6.54826 20.2424C6.684 20.3329 6.72019 20.5154 6.6297 20.6511C5.92991 21.7008 6.43816 23.1713 7.00222 23.8349C7.7367 24.6991 9.21622 24.868 10.2222 24.5317C10.3775 24.4804 10.5434 24.5633 10.5947 24.7187C10.646 24.8725 10.563 25.0399 10.4077 25.0912C10.0367 25.2149 9.60835 25.2827 9.16796 25.2827Z" fill="#364BA8"/>
  <path d="M10.3136 25.8932C10.1507 25.8932 10.0195 25.7605 10.0195 25.5991V24.8134C10.0195 24.6505 10.1523 24.5193 10.3136 24.5193C10.4765 24.5193 10.6077 24.652 10.6077 24.8134V25.5991C10.6077 25.7605 10.4765 25.8932 10.3136 25.8932Z" fill="#364BA8"/>
  <path d="M11.4939 4.2729C11.4623 4.2729 11.4306 4.26837 11.3989 4.25782C11.2451 4.20503 11.1621 4.04064 11.2134 3.8868C11.2315 3.83251 11.6779 2.54905 13.3867 2.12224C14.7697 1.77686 15.1301 0.782976 15.1452 0.740747C15.198 0.588421 15.3639 0.503963 15.5193 0.558257C15.6731 0.611044 15.756 0.775435 15.7048 0.929269C15.6867 0.983563 15.2402 2.26702 13.5315 2.69384C12.1485 3.03921 11.788 4.0331 11.7729 4.07533C11.7307 4.19598 11.6161 4.2729 11.4939 4.2729Z" fill="#364BA8"/>
  <path d="M19.3549 4.27387C19.2327 4.27387 19.1181 4.19695 19.0759 4.07328C19.0608 4.02954 18.7003 3.03716 17.3173 2.69179C15.6071 2.26498 15.1622 0.981519 15.1441 0.927225C15.0928 0.773391 15.1757 0.605983 15.3311 0.554705C15.4849 0.503427 15.6523 0.586377 15.7036 0.741719C15.7172 0.78244 16.0776 1.77482 17.4606 2.1217C19.1709 2.54851 19.6158 3.83197 19.6339 3.88627C19.6852 4.0401 19.6022 4.20751 19.4469 4.25879C19.4182 4.26934 19.3866 4.27387 19.3549 4.27387Z" fill="#364BA8"/>
  <path d="M15.4246 31.0012C15.3929 31.0012 15.3612 30.9952 15.3296 30.9862C15.1757 30.9334 15.0928 30.769 15.1441 30.6152C15.1622 30.5609 15.6086 29.2774 17.3174 28.8506C18.7004 28.5052 19.0608 27.5113 19.0759 27.4691C19.1287 27.3153 19.2961 27.2338 19.4499 27.2851C19.6038 27.3379 19.6867 27.5023 19.6354 27.6561C19.6173 27.7104 19.1709 28.9939 17.4621 29.4207C16.0791 29.7661 15.7187 30.7599 15.7036 30.8022C15.6614 30.9243 15.5468 31.0012 15.4246 31.0012Z" fill="#364BA8"/>
  <path d="M15.4237 31.0035C15.3 31.0035 15.1854 30.9251 15.1447 30.8014C15.1311 30.7607 14.7707 29.7683 13.3877 29.4214C11.6774 28.9946 11.2325 27.7112 11.2144 27.6569C11.1631 27.5015 11.246 27.3356 11.4014 27.2844C11.5552 27.2346 11.7211 27.316 11.7739 27.4699C11.789 27.5136 12.1494 28.5045 13.5324 28.8514C15.2427 29.2782 15.6876 30.5616 15.7057 30.6159C15.757 30.7713 15.6741 30.9372 15.5187 30.9884C15.4855 30.999 15.4539 31.0035 15.4237 31.0035Z" fill="#364BA8"/>
  <path d="M15.4242 19.9963C13.094 19.9963 11.1982 18.1005 11.1982 15.7703C11.1982 13.4402 13.094 11.5444 15.4242 11.5444C17.7543 11.5444 19.6501 13.4402 19.6501 15.7703C19.6501 18.1005 17.7543 19.9963 15.4242 19.9963ZM15.4242 12.1356C13.4198 12.1356 11.7879 13.766 11.7879 15.7719C11.7879 17.7777 13.4183 19.4081 15.4242 19.4081C17.43 19.4081 19.0604 17.7777 19.0604 15.7719C19.0604 13.766 17.4285 12.1356 15.4242 12.1356Z" fill="#364BA8"/>
  <path d="M16.2101 12.1358C16.186 12.1358 16.1619 12.1328 16.1377 12.1267C15.9794 12.0875 15.8844 11.9276 15.9236 11.7693C16.1694 10.7829 15.7124 9.95495 15.4229 9.55378C15.1348 9.95345 14.6763 10.7829 14.9222 11.7693C14.9614 11.9276 14.8664 12.0875 14.708 12.1267C14.5496 12.1659 14.3898 12.0694 14.3506 11.9126C13.9222 10.1978 15.162 8.93392 15.2147 8.88113C15.3294 8.76651 15.5164 8.76651 15.631 8.88113C15.6838 8.93392 16.9235 10.1978 16.4952 11.9126C16.4635 12.0453 16.3429 12.1358 16.2101 12.1358Z" fill="#364BA8"/>
  <path d="M15.4244 8.6953C15.8584 8.6953 16.2102 8.3435 16.2102 7.90954C16.2102 7.47558 15.8584 7.12378 15.4244 7.12378C14.9905 7.12378 14.6387 7.47558 14.6387 7.90954C14.6387 8.3435 14.9905 8.6953 15.4244 8.6953Z" fill="#364BA8"/>
  <path d="M15.4239 22.7488C15.3484 22.7488 15.273 22.7202 15.2157 22.6629C15.1629 22.6101 13.9232 21.3462 14.3515 19.6314C14.3908 19.4731 14.5491 19.3766 14.709 19.4173C14.8673 19.4565 14.9624 19.6164 14.9231 19.7747C14.6773 20.7611 15.1343 21.5891 15.4239 21.9902C15.7119 21.5906 16.1704 20.7611 15.9246 19.7747C15.8854 19.6164 15.9804 19.4565 16.1387 19.4173C16.2971 19.3781 16.457 19.4746 16.4962 19.6314C16.9245 21.3462 15.6848 22.6101 15.632 22.6629C15.5747 22.7202 15.4993 22.7488 15.4239 22.7488Z" fill="#364BA8"/>
  <path d="M15.4244 24.4184C15.8584 24.4184 16.2102 24.0666 16.2102 23.6327C16.2102 23.1987 15.8584 22.8469 15.4244 22.8469C14.9905 22.8469 14.6387 23.1987 14.6387 23.6327C14.6387 24.0666 14.9905 24.4184 15.4244 24.4184Z" fill="#364BA8"/>
  <path d="M18.1107 13.0918C18.0352 13.0918 17.9598 13.0631 17.9025 13.0058C17.7879 12.8912 17.7864 12.7042 17.901 12.5881C18.6174 11.8671 18.6476 10.92 18.6053 10.4283C18.1529 10.6244 17.3355 11.1025 17.0414 12.0753C16.9946 12.2321 16.8287 12.3196 16.6749 12.2728C16.5195 12.2261 16.4305 12.0617 16.4773 11.9064C16.9856 10.2142 18.6973 9.76173 18.7712 9.74363C18.8466 9.72554 18.9266 9.73609 18.9944 9.77681C19.0623 9.81753 19.1106 9.88239 19.1287 9.95779C19.1468 10.0302 19.5645 11.751 18.3188 13.0043C18.2615 13.0616 18.1861 13.0918 18.1107 13.0918Z" fill="#364BA8"/>
  <path d="M19.4479 9.80248C19.8818 9.80248 20.2336 9.45068 20.2336 9.01672C20.2336 8.58275 19.8818 8.23096 19.4479 8.23096C19.0139 8.23096 18.6621 8.58275 18.6621 9.01672C18.6621 9.45068 19.0139 9.80248 19.4479 9.80248Z" fill="#364BA8"/>
  <path d="M12.0034 21.8078C11.9506 21.8078 11.8993 21.7942 11.8526 21.7671C11.7847 21.7264 11.7364 21.6615 11.7183 21.5861C11.7002 21.5137 11.2825 19.7929 12.5282 18.5396C12.6428 18.425 12.8299 18.4235 12.946 18.5381C13.0606 18.6527 13.0621 18.8397 12.9475 18.9559C12.2311 19.6768 12.201 20.6239 12.2432 21.1156C12.6956 20.9195 13.5131 20.4414 13.8072 19.4686C13.8539 19.3133 14.0198 19.2258 14.1737 19.2711C14.329 19.3178 14.418 19.4822 14.3712 19.6376C13.863 21.3297 12.1512 21.7822 12.0773 21.8003C12.0516 21.8048 12.0275 21.8078 12.0034 21.8078Z" fill="#364BA8"/>
  <path d="M11.399 23.3113C11.833 23.3113 12.1848 22.9595 12.1848 22.5255C12.1848 22.0915 11.833 21.7397 11.399 21.7397C10.9651 21.7397 10.6133 22.0915 10.6133 22.5255C10.6133 22.9595 10.9651 23.3113 11.399 23.3113Z" fill="#364BA8"/>
  <path d="M19.2472 14.861C19.116 14.861 18.9969 14.7735 18.9622 14.6408C18.92 14.484 19.015 14.3226 19.1718 14.2804C20.1612 14.0194 20.6634 13.2201 20.873 12.7752C20.3829 12.7149 19.4342 12.7119 18.6892 13.4041C18.5701 13.5142 18.383 13.5082 18.2729 13.389C18.1628 13.2699 18.1689 13.0829 18.288 12.9728C19.5836 11.7708 21.2893 12.2473 21.3602 12.2685C21.517 12.3137 21.606 12.4781 21.5608 12.6334C21.5397 12.7058 21.0299 14.401 19.3211 14.8505C19.297 14.858 19.2714 14.861 19.2472 14.861Z" fill="#364BA8"/>
  <path d="M22.3121 12.7693C22.7461 12.7693 23.0979 12.4175 23.0979 11.9835C23.0979 11.5496 22.7461 11.1978 22.3121 11.1978C21.8782 11.1978 21.5264 11.5496 21.5264 11.9835C21.5264 12.4175 21.8782 12.7693 22.3121 12.7693Z" fill="#364BA8"/>
  <path d="M10.3876 19.3856C9.88237 19.3856 9.5204 19.2845 9.48873 19.2755C9.33188 19.2302 9.2429 19.0658 9.28814 18.9105C9.30926 18.8381 9.81902 17.1429 11.5278 16.6935C11.6846 16.6513 11.846 16.7448 11.8882 16.9031C11.9305 17.06 11.8355 17.2213 11.6786 17.2636C10.6892 17.5245 10.187 18.3238 9.97738 18.7687C10.4675 18.8291 11.4147 18.8321 12.1612 18.1398C12.2804 18.0297 12.4674 18.0358 12.5775 18.1549C12.6876 18.2741 12.6815 18.4611 12.5624 18.5712C11.846 19.2333 11.0075 19.3856 10.3876 19.3856Z" fill="#364BA8"/>
  <path d="M8.53673 20.3447C8.9707 20.3447 9.32249 19.9929 9.32249 19.559C9.32249 19.125 8.9707 18.7732 8.53673 18.7732C8.10277 18.7732 7.75098 19.125 7.75098 19.559C7.75098 19.9929 8.10277 20.3447 8.53673 20.3447Z" fill="#364BA8"/>
  <path d="M20.0707 17.1054C19.8083 17.1054 19.5293 17.0707 19.2397 16.9863C19.0829 16.941 18.9939 16.7782 19.0391 16.6213C19.0844 16.4645 19.2488 16.374 19.4041 16.4207C20.3814 16.7043 21.226 16.2774 21.6362 16.003C21.2471 15.6998 20.4357 15.2112 19.4418 15.4208C19.2834 15.454 19.1266 15.3529 19.0919 15.1931C19.0587 15.0332 19.1598 14.8779 19.3196 14.8432C21.0465 14.4782 22.2651 15.7647 22.3164 15.819C22.4265 15.9381 22.4205 16.1251 22.3013 16.2352C22.2561 16.279 21.3481 17.1054 20.0707 17.1054Z" fill="#364BA8"/>
  <path d="M23.2799 16.8501C23.7139 16.8501 24.0657 16.4983 24.0657 16.0643C24.0657 15.6304 23.7139 15.2786 23.2799 15.2786C22.8459 15.2786 22.4941 15.6304 22.4941 16.0643C22.4941 16.4983 22.8459 16.8501 23.2799 16.8501Z" fill="#364BA8"/>
  <path d="M10.9107 16.7626C9.5156 16.7626 8.576 15.7702 8.53076 15.7219C8.42066 15.6028 8.42669 15.4158 8.54584 15.3057C8.60013 15.2544 9.91074 14.0629 11.6074 14.5561C11.7643 14.6014 11.8533 14.7642 11.808 14.9211C11.7628 15.0779 11.5984 15.1669 11.443 15.1217C10.4657 14.8381 9.62117 15.265 9.21094 15.5394C9.60005 15.8426 10.4115 16.3312 11.4053 16.1216C11.5652 16.0899 11.7206 16.1895 11.7552 16.3493C11.7884 16.5092 11.6874 16.6645 11.5275 16.6992C11.3133 16.743 11.1082 16.7626 10.9107 16.7626Z" fill="#364BA8"/>
  <path d="M7.56799 16.2634C8.00195 16.2634 8.35375 15.9116 8.35375 15.4777C8.35375 15.0437 8.00195 14.6919 7.56799 14.6919C7.13402 14.6919 6.78223 15.0437 6.78223 15.4777C6.78223 15.9116 7.13402 16.2634 7.56799 16.2634Z" fill="#364BA8"/>
  <path d="M20.463 19.4173C19.8401 19.4173 18.9895 19.2635 18.2716 18.5894C18.1525 18.4778 18.1479 18.2907 18.258 18.1731C18.3696 18.054 18.5566 18.0494 18.6743 18.1595C19.4148 18.8563 20.3634 18.8593 20.8521 18.802C20.644 18.3556 20.1432 17.5517 19.1614 17.2863C19.0046 17.2441 18.9111 17.0812 18.9533 16.9243C18.9955 16.7675 19.1584 16.674 19.3153 16.7162C21.021 17.1777 21.5202 18.8759 21.5413 18.9483C21.5851 19.1052 21.4946 19.268 21.3377 19.3118C21.3076 19.3208 20.9562 19.4173 20.463 19.4173Z" fill="#364BA8"/>
  <path d="M22.2867 20.3901C22.7207 20.3901 23.0725 20.0383 23.0725 19.6044C23.0725 19.1704 22.7207 18.8186 22.2867 18.8186C21.8528 18.8186 21.501 19.1704 21.501 19.6044C21.501 20.0383 21.8528 20.3901 22.2867 20.3901Z" fill="#364BA8"/>
  <path d="M11.6089 14.8369C11.5833 14.8369 11.5576 14.8339 11.532 14.8263C9.82625 14.3648 9.32704 12.6666 9.30592 12.5942C9.26219 12.4374 9.35268 12.2745 9.50953 12.2308C9.58192 12.2096 11.2892 11.7451 12.5772 12.9547C12.6963 13.0663 12.7008 13.2533 12.5907 13.3709C12.4791 13.4901 12.2921 13.4946 12.1745 13.3845C11.434 12.6892 10.4868 12.6847 9.99667 12.742C10.2048 13.1885 10.7055 13.9923 11.6873 14.2577C11.8442 14.3 11.9377 14.4629 11.8955 14.6197C11.8578 14.7494 11.7386 14.8369 11.6089 14.8369Z" fill="#364BA8"/>
  <path d="M8.5592 12.7256C8.99316 12.7256 9.34495 12.3738 9.34495 11.9398C9.34495 11.5058 8.99316 11.1541 8.5592 11.1541C8.12523 11.1541 7.77344 11.5058 7.77344 11.9398C7.77344 12.3738 8.12523 12.7256 8.5592 12.7256Z" fill="#364BA8"/>
  <path d="M18.7896 21.8396C18.7639 21.8396 18.7398 21.8365 18.7142 21.8305C18.6418 21.8109 16.9345 21.3434 16.4414 19.6467C16.3961 19.4898 16.4866 19.3269 16.6419 19.2817C16.7988 19.2365 16.9617 19.3269 17.0069 19.4823C17.2905 20.4581 18.1034 20.9437 18.5543 21.1443C18.6026 20.6541 18.5799 19.707 17.8711 18.9786C17.758 18.8624 17.7595 18.6754 17.8771 18.5623C17.9933 18.4492 18.1803 18.4507 18.2934 18.5683C19.5271 19.8337 19.0927 21.55 19.0731 21.6224C19.0535 21.6978 19.0037 21.7626 18.9374 21.8019C18.8921 21.826 18.8409 21.8396 18.7896 21.8396Z" fill="#364BA8"/>
  <path d="M19.3834 23.3491C19.8174 23.3491 20.1692 22.9973 20.1692 22.5633C20.1692 22.1294 19.8174 21.7776 19.3834 21.7776C18.9495 21.7776 18.5977 22.1294 18.5977 22.5633C18.5977 22.9973 18.9495 23.3491 19.3834 23.3491Z" fill="#364BA8"/>
  <path d="M12.7663 13.0661C12.6894 13.0661 12.6125 13.036 12.5552 12.9772C11.3215 11.7118 11.7558 9.9955 11.7754 9.9231C11.795 9.8477 11.8448 9.78284 11.9112 9.74363C11.979 9.70442 12.059 9.69386 12.1344 9.71347C12.2068 9.73307 13.914 10.2006 14.4072 11.8973C14.4524 12.0542 14.3619 12.217 14.2066 12.2623C14.0498 12.3075 13.8869 12.217 13.8416 12.0617C13.5581 11.0859 12.7452 10.6003 12.2942 10.3997C12.246 10.8898 12.2686 11.837 12.9774 12.5654C13.0906 12.6816 13.089 12.8686 12.9714 12.9817C12.9156 13.0375 12.8417 13.0661 12.7663 13.0661Z" fill="#364BA8"/>
  <path d="M11.4654 9.76488C11.8994 9.76488 12.2512 9.41308 12.2512 8.97912C12.2512 8.54516 11.8994 8.19336 11.4654 8.19336C11.0315 8.19336 10.6797 8.54516 10.6797 8.97912C10.6797 9.41308 11.0315 9.76488 11.4654 9.76488Z" fill="#364BA8"/>
  <path d="M15.3261 24.7141C10.3416 24.7141 6.28613 20.6586 6.28613 15.6741C6.28613 10.6896 10.3416 6.63257 15.3261 6.63257C20.3107 6.63257 24.3661 10.6881 24.3661 15.6726C24.3661 20.6571 20.3107 24.7141 15.3261 24.7141ZM15.3261 7.22227C10.6659 7.22227 6.87432 11.0138 6.87432 15.6741C6.87432 20.3343 10.6659 24.1259 15.3261 24.1259C19.9864 24.1259 23.778 20.3343 23.778 15.6741C23.778 11.0138 19.9864 7.22227 15.3261 7.22227Z" fill="#364BA8"/>
</svg>