<svg width="25" height="25" viewBox="0 0 25 25" fill="none" xmlns="http://www.w3.org/2000/svg">
    <path d="M12.584 5.56641C8.93804 5.56641 5.979 8.52545 5.979 12.1714C5.979 15.8174 8.93804 18.7764 12.584 18.7764H15.8865V17.4554H12.584C9.71743 17.4554 7.3 15.038 7.3 12.1714C7.3 9.30484 9.71743 6.88741 12.584 6.88741C15.4506 6.88741 17.868 9.30484 17.868 12.1714V13.1159C17.868 13.6377 17.399 14.1529 16.8773 14.1529C16.3555 14.1529 15.8865 13.6377 15.8865 13.1159V12.1714C15.8865 10.3484 14.407 8.86891 12.584 8.86891C10.761 8.86891 9.2815 10.3484 9.2815 12.1714C9.2815 13.9944 10.761 15.4739 12.584 15.4739C13.4955 15.4739 14.3277 15.104 14.9222 14.503C15.3515 15.0908 16.0913 15.4739 16.8773 15.4739C18.1784 15.4739 19.189 14.4171 19.189 13.1159V12.1714C19.189 8.52545 16.23 5.56641 12.584 5.56641ZM12.584 14.1529C11.4876 14.1529 10.6025 13.2678 10.6025 12.1714C10.6025 11.075 11.4876 10.1899 12.584 10.1899C13.6804 10.1899 14.5655 11.075 14.5655 12.1714C14.5655 13.2678 13.6804 14.1529 12.584 14.1529Z" fill="#0C338C"/>
</svg>
