<svg width="16" height="25" viewBox="0 0 16 25" fill="none" xmlns="http://www.w3.org/2000/svg">
    <path d="M7.66748 15.6725H4.66748C4.38415 15.6725 4.14648 15.5765 3.95448 15.3845C3.76248 15.1925 3.66682 14.9552 3.66748 14.6725V10.6725C3.66748 10.3892 3.76348 10.1515 3.95548 9.95955C4.14748 9.76755 4.38482 9.67188 4.66748 9.67255H7.66748L10.9675 6.37255C11.2842 6.05588 11.6468 5.98488 12.0555 6.15955C12.4642 6.33421 12.6682 6.64688 12.6675 7.09755V18.2475C12.6675 18.6975 12.4632 19.0102 12.0545 19.1855C11.6458 19.3609 11.2835 19.2899 10.9675 18.9725L7.66748 15.6725Z" fill="#0C338C"/>
</svg>
