<svg width="13" height="13" viewBox="0 0 13 13" fill="none" xmlns="http://www.w3.org/2000/svg">
    <g clip-path="url(#clip0_140_3137)">
        <path d="M12.5048 7.05324L9.50479 10.0532C9.21158 10.3464 8.73697 10.346 8.44424 10.0532C8.15127 9.76028 8.15127 9.28567 8.44424 8.9927L10.1657 7.27356H1.4751C1.06049 7.27356 0.725098 6.9384 0.725098 6.50246C0.725098 6.06653 1.06049 5.77356 1.4751 5.77356H10.1657L8.44588 4.05371C8.15291 3.76074 8.15291 3.28613 8.44588 2.99316C8.73885 2.7002 9.21346 2.7002 9.50643 2.99316L12.5064 5.99317C12.7978 6.28684 12.7978 6.76028 12.5048 7.05324Z" fill="white"/>
    </g>
    <defs>
        <clipPath id="clip0_140_3137">
            <rect width="12" height="12" fill="white" transform="translate(0.725098 0.523438)"/>
        </clipPath>
    </defs>
</svg>
