<svg width="25" height="25" viewBox="0 0 25 25" fill="none" xmlns="http://www.w3.org/2000/svg">
    <path d="M18.919 15.4152V18.0102C18.9191 18.196 18.8487 18.375 18.722 18.5109C18.5953 18.6468 18.4218 18.7296 18.2365 18.7426C17.9158 18.7647 17.6538 18.7764 17.4512 18.7764C10.9658 18.7764 5.70898 13.5196 5.70898 7.03418C5.70898 6.83163 5.71999 6.56963 5.74274 6.24892C5.75575 6.06357 5.83858 5.89006 5.97451 5.76339C6.11044 5.63672 6.28936 5.56632 6.47516 5.56641H9.0702C9.16123 5.56631 9.24904 5.60006 9.31658 5.66109C9.38412 5.72212 9.42657 5.80608 9.43567 5.89666C9.45255 6.06545 9.46796 6.19975 9.48264 6.30176C9.62849 7.31961 9.92738 8.30956 10.3692 9.23805C10.4389 9.38483 10.3934 9.56023 10.2613 9.65417L8.67756 10.7858C9.6459 13.0421 11.444 14.8402 13.7003 15.8086L14.8305 14.2278C14.8767 14.1632 14.9441 14.1169 15.0209 14.0969C15.0978 14.0769 15.1792 14.0845 15.251 14.1184C16.1794 14.5594 17.1691 14.8576 18.1866 15.0027C18.2886 15.0174 18.4229 15.0328 18.5902 15.0497C18.6806 15.059 18.7644 15.1015 18.8253 15.169C18.8862 15.2366 18.9191 15.3243 18.919 15.4152Z" fill="#0C338C"/>
</svg>
