<svg width="13" height="13" viewBox="0 0 13 13" fill="none" xmlns="http://www.w3.org/2000/svg">
    <g clip-path="url(#clip0_140_3141)">
        <path d="M0.945408 5.99363L3.94541 2.99363C4.23861 2.70043 4.71322 2.70089 5.00596 2.99363C5.29892 3.2866 5.29892 3.76121 5.00596 4.05418L3.28447 5.77332L11.9751 5.77332C12.3897 5.77332 12.7251 6.10847 12.7251 6.54441C12.7251 6.98035 12.3897 7.27332 11.9751 7.27332L3.28447 7.27332L5.00432 8.99316C5.29728 9.28613 5.29728 9.76074 5.00432 10.0537C4.71135 10.3467 4.23674 10.3467 3.94377 10.0537L0.943768 7.05371C0.65244 6.76004 0.65244 6.2866 0.945408 5.99363Z" fill="white"/>
    </g>
    <defs>
        <clipPath id="clip0_140_3141">
            <rect width="12" height="12" fill="white" transform="translate(12.7251 12.5234) rotate(180)"/>
        </clipPath>
    </defs>
</svg>
