<?xml version="1.0" standalone="no"?>
<!DOCTYPE svg PUBLIC "-//W3C//DTD SVG 20010904//EN"
 "http://www.w3.org/TR/2001/REC-SVG-20010904/DTD/svg10.dtd">
<svg version="1.0" xmlns="http://www.w3.org/2000/svg"
 width="300.000000pt" height="300.000000pt" viewBox="0 0 300.000000 300.000000"
 preserveAspectRatio="xMidYMid meet">
<metadata>
Created by potrace 1.10, written by Peter Selinger 2001-2011
</metadata>
<g transform="translate(0.000000,300.000000) scale(0.100000,-0.100000)"
fill="#000000" stroke="none">
<path d="M392 2855 l-22 -16 0 -919 0 -919 -22 -37 c-19 -33 -20 -41 -10 -80
7 -25 12 -55 12 -69 0 -29 -34 -55 -71 -55 -77 0 -121 -115 -88 -233 13 -48
44 -76 91 -83 53 -9 72 -34 63 -81 -20 -112 -7 -138 97 -193 83 -44 117 -43
173 9 25 23 54 41 65 41 12 0 38 -18 60 -40 52 -53 92 -56 174 -12 100 55 125
103 94 188 -16 46 7 79 61 88 22 3 53 17 68 30 27 24 28 27 28 130 l0 106 547
0 c484 0 548 2 562 16 14 13 16 58 16 332 l0 317 265 265 c146 146 265 273
265 283 0 24 -199 217 -224 217 -13 0 -71 -50 -163 -142 l-143 -143 0 486 c0
403 -2 488 -14 505 -14 19 -37 19 -938 22 -826 2 -925 1 -946 -13z m1798 -592
l0 -508 -217 -217 -218 -218 -302 0 c-298 0 -302 0 -314 -21 -8 -16 -8 -28 0
-45 l11 -24 260 0 c143 0 260 -4 260 -8 0 -4 -18 -62 -40 -127 -67 -200 -61
-207 143 -140 l142 47 138 136 137 137 0 -238 0 -237 -592 2 -593 3 2 25 c2
14 6 46 9 71 5 39 2 50 -20 76 -31 36 -134 93 -171 93 -34 0 -63 -16 -93 -51
-35 -42 -71 -39 -121 11 -42 42 -74 50 -125 30 l-26 -10 0 860 0 860 865 0
865 0 0 -507z m96 -762 l-419 -419 -74 -21 c-42 -12 -77 -20 -79 -18 -2 2 7
37 21 78 l25 74 418 417 417 418 55 -55 55 -55 -419 -419z m-1664 -595 c59
-24 110 -13 162 35 l42 38 53 -30 c41 -23 51 -34 46 -47 -4 -9 -10 -38 -12
-64 -9 -79 47 -150 131 -168 30 -6 31 -8 34 -67 l3 -61 -33 -6 c-47 -9 -95
-41 -118 -78 -22 -36 -27 -107 -9 -139 13 -26 0 -43 -54 -71 l-39 -20 -32 30
c-43 41 -68 52 -118 52 -45 0 -98 -26 -128 -62 l-17 -21 -47 24 c-26 13 -50
27 -53 32 -3 5 0 29 7 53 24 86 -27 173 -116 196 l-44 12 0 62 0 61 39 7 c52
8 96 46 117 102 15 40 16 53 6 91 -15 53 -10 62 50 92 l40 20 24 -29 c13 -15
43 -35 66 -44z"/>
<path d="M833 2358 l-62 -62 -30 28 c-37 35 -77 30 -87 -10 -6 -22 2 -34 47
-80 29 -30 60 -54 69 -54 8 0 55 39 103 88 86 86 101 114 75 140 -24 24 -54
11 -115 -50z"/>
<path d="M1138 2315 c-9 -21 -8 -28 7 -45 18 -19 31 -20 410 -20 428 0 420 -1
413 57 l-3 28 -408 3 -407 2 -12 -25z"/>
<path d="M868 1873 c-23 -21 -54 -51 -69 -68 l-28 -30 -28 28 c-44 41 -93 32
-93 -18 0 -30 89 -115 121 -115 36 0 189 155 189 192 0 17 -8 31 -19 38 -27
14 -26 14 -73 -27z"/>
<path d="M1140 1811 c-14 -27 -13 -37 6 -55 13 -14 64 -16 408 -16 412 0 416
0 416 45 0 45 -3 45 -422 45 -383 0 -398 -1 -408 -19z"/>
<path d="M835 1329 l-64 -61 -31 26 c-18 14 -37 26 -44 26 -18 0 -46 -33 -46
-53 0 -23 95 -117 119 -117 10 0 57 38 105 86 86 86 101 115 74 142 -23 23
-50 11 -113 -49z"/>
<path d="M595 784 c-144 -79 -155 -265 -20 -349 39 -24 58 -30 104 -29 66 1
106 20 149 68 77 88 58 228 -39 293 -52 34 -147 42 -194 17z m135 -91 c40 -27
49 -45 50 -91 0 -35 -6 -49 -29 -73 -81 -81 -219 18 -167 120 29 56 99 77 146
44z"/>
</g>
</svg>
