<svg width="17" height="17" viewBox="0 0 17 17" fill="none" xmlns="http://www.w3.org/2000/svg">
    <g clip-path="url(#clip0_140_3332)">
        <path d="M9.03223 0.722656C8.77313 0.722656 8.56348 0.932312 8.56348 1.19141C8.56348 1.4505 8.77313 1.66015 9.03223 1.66015C12.3922 1.66015 15.126 4.3939 15.126 7.75389C15.126 8.01299 15.3356 8.22264 15.5947 8.22264C15.8538 8.22264 16.0635 8.01299 16.0635 7.75389C16.0635 3.87665 12.9095 0.722656 9.03223 0.722656Z" fill="white"/>
        <path d="M9.03223 2.59766C8.77313 2.59766 8.56348 2.80731 8.56348 3.06641C8.56348 3.3255 8.77313 3.53515 9.03223 3.53515C11.3586 3.53515 13.251 5.42756 13.251 7.7539C13.251 8.01299 13.4606 8.22265 13.7197 8.22265C13.9788 8.22265 14.1885 8.01299 14.1885 7.7539C14.1885 4.91075 11.8754 2.59766 9.03223 2.59766Z" fill="white"/>
        <path d="M9.03223 4.47266C8.77313 4.47266 8.56348 4.68231 8.56348 4.94141C8.56348 5.2005 8.77313 5.41016 9.03223 5.41016C10.3245 5.41016 11.376 6.46162 11.376 7.75391C11.376 8.013 11.5856 8.22266 11.8447 8.22266C12.1038 8.22266 12.3135 8.013 12.3135 7.75391C12.3135 5.94481 10.8413 4.47266 9.03223 4.47266Z" fill="white"/>
        <path d="M9.03223 6.34766C8.77313 6.34766 8.56348 6.55731 8.56348 6.81641C8.56348 7.0755 8.77313 7.28515 9.03223 7.28515C9.29085 7.28515 9.50097 7.49528 9.50097 7.7539C9.50097 8.013 9.71063 8.22265 9.96972 8.22265C10.2288 8.22265 10.4385 8.013 10.4385 7.7539C10.4385 6.97847 9.80766 6.34766 9.03223 6.34766Z" fill="white"/>
        <path d="M6.29219 3.78532L3.64082 1.13395C3.09242 0.585106 2.20023 0.586012 1.65186 1.13395L1.32227 1.46351L5.9626 6.10388L6.29219 5.77428C6.55769 5.50878 6.70419 5.15538 6.70419 4.77957C6.70419 4.40419 6.55769 4.05082 6.29219 3.78532Z" fill="white"/>
        <path d="M15.652 13.1658L13.0006 10.5145C12.4691 9.983 11.5417 9.98391 11.0121 10.5145L10.6821 10.8442L15.3223 15.4844L15.652 15.1548C16.2004 14.6064 16.2004 13.7142 15.652 13.1658Z" fill="white"/>
        <path d="M9.95271 11.44C9.43058 11.6876 8.79199 11.6086 8.36043 11.177L5.6294 8.42522C5.19784 7.99366 5.11881 7.3551 5.36647 6.83294L0.695633 2.16211C-0.635302 4.20792 0.0391338 9.46422 3.64088 13.0656C7.19956 16.6242 12.5127 17.4669 14.6096 16.0969L9.95271 11.44Z" fill="white"/>
    </g>
    <defs>
        <clipPath id="clip0_140_3332">
            <rect width="16" height="16" fill="white" transform="translate(0.0634766 0.720703)"/>
        </clipPath>
    </defs>
</svg>
