<?xml version="1.0" standalone="no"?>
<!DOCTYPE svg PUBLIC "-//W3C//DTD SVG 20010904//EN"
 "http://www.w3.org/TR/2001/REC-SVG-20010904/DTD/svg10.dtd">
<svg version="1.0" xmlns="http://www.w3.org/2000/svg"
 width="300.000000pt" height="300.000000pt" viewBox="0 0 300.000000 300.000000"
 preserveAspectRatio="xMidYMid meet">
<metadata>
Created by potrace 1.10, written by Peter Selinger 2001-2011
</metadata>
<g transform="translate(0.000000,300.000000) scale(0.100000,-0.100000)"
fill="#000000" stroke="none">
<path d="M1465 2903 c-36 -10 -77 -45 -91 -79 -9 -21 -14 -72 -14 -139 l0
-105 -45 -43 c-31 -30 -45 -52 -45 -70 l0 -27 -95 0 c-167 0 -261 -33 -346
-122 -27 -28 -49 -55 -49 -60 0 -4 -85 -8 -188 -8 -186 0 -189 0 -243 -27 -75
-38 -111 -98 -111 -182 0 -75 29 -133 90 -175 35 -25 55 -31 112 -34 l69 -4
-105 -209 -104 -209 -85 0 c-74 0 -88 -3 -106 -21 -20 -20 -21 -29 -16 -114 9
-141 53 -229 149 -305 91 -72 145 -82 440 -78 250 3 254 3 310 30 149 70 228
201 228 380 0 99 -10 108 -127 108 l-83 0 -135 270 c-74 148 -135 274 -135
280 0 6 35 10 85 10 95 0 82 -7 164 97 60 76 79 86 180 91 85 4 88 4 104 -22
13 -20 26 -26 52 -26 l35 0 0 -673 0 -672 -34 -51 c-30 -45 -40 -52 -92 -67
-72 -20 -127 -64 -159 -127 l-24 -48 -118 -3 c-110 -4 -123 -6 -185 -37 -36
-18 -81 -49 -99 -69 -40 -46 -75 -124 -84 -185 -6 -39 -4 -49 14 -67 l21 -21
900 0 900 0 21 21 c18 18 20 28 14 67 -9 61 -44 139 -84 185 -18 20 -63 51
-99 69 -62 31 -75 33 -185 37 l-118 3 -24 47 c-33 66 -84 108 -156 128 -55 15
-64 22 -95 67 l-34 51 0 672 0 673 35 0 c26 0 39 6 52 26 16 26 19 26 104 22
101 -5 120 -15 180 -91 82 -104 69 -97 164 -97 50 0 85 -4 85 -10 0 -6 -61
-132 -135 -280 l-135 -270 -83 0 c-60 0 -89 -4 -106 -16 -23 -16 -23 -21 -19
-118 4 -82 10 -113 31 -158 36 -79 106 -151 186 -191 l65 -32 253 -3 c213 -3
262 -1 310 13 183 53 283 198 283 413 0 79 -18 92 -125 92 l-85 0 -104 209
-105 209 69 4 c57 3 77 9 112 34 61 42 90 100 90 175 0 84 -36 144 -111 182
-54 27 -57 27 -243 27 -103 0 -188 4 -188 8 0 5 -22 32 -49 60 -85 89 -179
122 -346 122 l-95 0 0 27 c0 18 -14 40 -45 70 l-45 43 0 105 c0 119 -12 161
-57 193 -31 22 -86 34 -118 25z m69 -109 c12 -12 16 -38 16 -115 l0 -99 -50 0
-50 0 0 99 c0 105 10 131 50 131 10 0 26 -7 34 -16z m94 -326 c8 -8 12 -54 12
-140 l0 -128 -140 0 -140 0 0 128 c0 86 4 132 12 140 8 8 51 12 128 12 77 0
120 -4 128 -12z m-358 -172 l0 -44 -107 -3 c-134 -5 -174 -25 -248 -123 l-49
-66 -223 0 -223 0 0 -45 0 -45 80 0 80 0 -12 -25 c-10 -23 -17 -25 -76 -25
-76 0 -127 21 -147 61 -22 41 -19 92 7 124 38 49 70 55 276 55 l188 0 59 66
c85 96 127 114 278 114 l117 0 0 -44z m746 20 c33 -15 70 -46 109 -90 l59 -66
188 0 c206 0 238 -6 276 -55 26 -32 29 -83 7 -124 -20 -40 -71 -61 -147 -61
-59 0 -66 2 -76 25 l-12 25 80 0 80 0 0 45 0 45 -223 0 -223 0 -49 66 c-74 98
-114 118 -247 123 l-108 3 0 44 0 44 118 0 c102 0 124 -3 168 -24z m-466 -898
c0 -672 1 -694 20 -718 11 -14 20 -28 20 -32 0 -5 -40 -8 -90 -8 -49 0 -90 3
-90 8 0 4 9 18 20 32 19 24 20 46 20 718 l0 692 50 0 50 0 0 -692z m-770 242
c66 -132 120 -242 120 -245 0 -3 -110 -5 -245 -5 -135 0 -245 2 -245 5 0 10
240 485 245 485 3 0 59 -108 125 -240z m1690 0 c66 -132 120 -242 120 -245 0
-3 -110 -5 -245 -5 -135 0 -245 2 -245 5 0 10 240 485 245 485 3 0 59 -108
125 -240z m-1350 -408 c0 -104 -64 -197 -169 -246 -43 -20 -63 -21 -296 -21
-275 0 -285 2 -365 65 -54 43 -100 137 -100 207 l0 53 465 0 465 0 0 -58z
m1690 5 c0 -70 -46 -164 -100 -207 -80 -63 -90 -65 -365 -65 -233 0 -253 1
-296 21 -105 49 -169 142 -169 246 l0 58 465 0 465 0 0 -53z m-1030 -712 c27
-14 60 -51 60 -67 0 -5 -153 -8 -340 -8 -187 0 -340 3 -340 6 0 17 25 47 53
64 29 18 52 20 285 20 205 0 258 -3 282 -15z m450 -207 c42 -26 60 -45 83 -88
l28 -55 -420 -3 c-232 -1 -610 -1 -842 0 l-420 3 28 55 c23 43 41 62 83 88
l54 32 676 0 676 0 54 -32z"/>
</g>
</svg>
