<svg width="33" height="33" viewBox="0 0 33 33" fill="none" xmlns="http://www.w3.org/2000/svg">
    <path opacity="0.1" fill-rule="evenodd" clip-rule="evenodd" d="M0.356445 16.7207C0.356445 7.88415 7.51989 0.720703 16.3564 0.720703C25.193 0.720703 32.3564 7.88415 32.3564 16.7207C32.3564 25.5573 25.193 32.7207 16.3564 32.7207C7.51989 32.7207 0.356445 25.5573 0.356445 16.7207Z" fill="white"/>
    <g clip-path="url(#clip0_140_3358)">
        <path fill-rule="evenodd" clip-rule="evenodd" d="M22.8373 10.2991C23.0432 10.2124 23.2686 10.1825 23.4901 10.2125C23.7115 10.2425 23.9208 10.3313 24.0962 10.4696C24.2717 10.608 24.4068 10.7908 24.4876 10.9991C24.5684 11.2074 24.5919 11.4336 24.5556 11.6541L22.6656 23.1182C22.4823 24.2241 21.269 24.8582 20.2548 24.3074C19.4065 23.8466 18.1465 23.1366 17.0131 22.3957C16.4465 22.0249 14.7106 20.8374 14.924 19.9924C15.1073 19.2699 18.024 16.5549 19.6906 14.9407C20.3448 14.3066 20.0465 13.9407 19.274 14.5241C17.3548 15.9724 14.2756 18.1749 13.2573 18.7949C12.359 19.3416 11.8906 19.4349 11.3306 19.3416C10.309 19.1716 9.36148 18.9082 8.58815 18.5874C7.54315 18.1541 7.59398 16.7174 8.58732 16.2991L22.8373 10.2991Z" fill="white"/>
    </g>
    <defs>
        <clipPath id="clip0_140_3358">
            <rect width="20" height="20" fill="white" transform="translate(6.35645 6.60742)"/>
        </clipPath>
    </defs>
</svg>
