
<svg width="25" height="24" viewBox="0 0 25 24" fill="none" xmlns="http://www.w3.org/2000/svg">
    <g clip-path="url(#clip0_204_6340)">
        <path d="M12.9181 0.75C8.15557 0.75 4.10557 3.7125 2.45557 7.875H23.3806C21.7306 3.7125 17.6806 0.75 12.9181 0.75Z" fill="#42ADE2"/>
        <path d="M12.9181 23.25C17.6806 23.25 21.7306 20.2875 23.3806 16.125H2.45557C4.10557 20.2875 8.15557 23.25 12.9181 23.25Z" fill="#83BF4F"/>
        <path d="M24.168 12C24.168 10.8375 23.9805 9.675 23.643 8.625H2.19297C1.85547 9.675 1.66797 10.8375 1.66797 12C1.66797 13.1625 1.85547 14.325 2.19297 15.375H23.643C23.9805 14.325 24.168 13.1625 24.168 12Z" fill="white"/>
        <path d="M23.3804 7.875C23.4179 7.9875 23.4929 8.1375 23.5304 8.25C23.5679 8.3625 23.6054 8.5125 23.6429 8.625" fill="#C94747"/>
        <path d="M23.5304 8.25C23.4929 8.1375 23.4179 7.9875 23.3804 7.875H2.45537C2.41787 7.9875 2.34287 8.1375 2.30537 8.25C2.26787 8.3625 2.23037 8.5125 2.19287 8.625H23.6429C23.6054 8.5125 23.5679 8.3625 23.5304 8.25ZM2.30537 15.75C2.34287 15.8625 2.41787 16.0125 2.45537 16.125H23.3804C23.4179 16.0125 23.4929 15.8625 23.5304 15.75C23.5679 15.6375 23.6054 15.4875 23.6429 15.375H2.19287C2.23037 15.4875 2.26787 15.6375 2.30537 15.75Z" fill="#C94747"/>
        <path d="M8.56797 6.4875C7.66797 6.4875 6.95547 5.775 6.95547 4.875C6.95547 3.975 7.66797 3.2625 8.56797 3.2625C8.79297 3.2625 8.98047 3.3 9.16797 3.375C8.86797 3.15 8.45547 3 8.04297 3C6.99297 3 6.16797 3.825 6.16797 4.875C6.16797 5.925 6.99297 6.75 8.04297 6.75C8.45547 6.75 8.86797 6.6 9.16797 6.375C8.98047 6.45 8.79297 6.4875 8.56797 6.4875ZM10.1805 5.7L10.3305 6.1125H10.743L10.4055 6.3375L10.518 6.75L10.1805 6.4875L9.84297 6.75L9.99297 6.3375L9.65547 6.1125H10.068L10.1805 5.7ZM11.793 5.7L11.9055 6.1125H12.3555L12.018 6.3375L12.1305 6.75L11.793 6.4875L11.4555 6.75L11.568 6.3375L11.2305 6.1125H11.643L11.793 5.7ZM13.4055 5.7L13.518 6.1125H13.9305L13.593 6.3375L13.743 6.75L13.4055 6.4875L13.0305 6.75L13.1805 6.3375L12.843 6.1125H13.2555L13.4055 5.7ZM14.9805 5.7L15.1305 6.1125H15.543L15.2055 6.3375L15.318 6.75L14.9805 6.4875L14.643 6.75L14.7555 6.3375L14.418 6.1125H14.868L14.9805 5.7ZM16.593 5.7L16.7055 6.1125H17.1555L16.7805 6.3375L16.9305 6.75L16.593 6.4875L16.2555 6.75L16.368 6.3375L16.0305 6.1125H16.443L16.593 5.7ZM11.793 4.35L11.9055 4.7625H12.3555L12.018 4.9875L12.1305 5.4L11.793 5.1375L11.4555 5.4L11.568 4.9875L11.2305 4.7625H11.643L11.793 4.35ZM13.4055 4.35L13.518 4.7625H13.9305L13.593 4.9875L13.743 5.4L13.4055 5.1375L13.0305 5.4L13.1805 4.9875L12.843 4.7625H13.2555L13.4055 4.35ZM14.9805 4.35L15.1305 4.7625H15.543L15.2055 4.9875L15.318 5.4L14.9805 5.1375L14.643 5.4L14.7555 4.9875L14.418 4.7625H14.868L14.9805 4.35ZM16.593 4.35L16.7055 4.7625H17.1555L16.7805 4.9875L16.9305 5.4L16.593 5.1375L16.2555 5.4L16.368 4.9875L16.0305 4.7625H16.443L16.593 4.35ZM13.4055 3L13.518 3.4125H13.9305L13.593 3.6375L13.743 4.05L13.4055 3.7875L13.0305 4.05L13.1805 3.6375L12.843 3.4125H13.2555L13.4055 3ZM14.9805 3L15.1305 3.4125H15.543L15.2055 3.6375L15.318 4.05L14.9805 3.7875L14.643 4.05L14.7555 3.6375L14.418 3.4125H14.868L14.9805 3ZM16.593 3L16.7055 3.4125H17.1555L16.7805 3.6375L16.9305 4.05L16.593 3.7875L16.2555 4.05L16.368 3.6375L16.0305 3.4125H16.443L16.593 3Z" fill="white"/>
    </g>
    <defs>
        <clipPath id="clip0_204_6340">
            <rect width="24" height="24" fill="white" transform="translate(0.917969)"/>
        </clipPath>
    </defs>
</svg>
